<svg width="214" height="74" viewBox="0 0 214 74" fill="none" xmlns="http://www.w3.org/2000/svg">
<rect x="0.587197" y="0.587197" width="212.826" height="72.8256" rx="11.4209" fill="white" stroke="#A2A2A2" stroke-width="0.825605"/>
<path d="M52.9355 38.0914C52.975 35.0494 54.6233 32.171 57.2382 30.5777C55.5886 28.2427 52.8256 26.7623 49.9509 26.6731C46.8849 26.3542 43.9126 28.4915 42.3502 28.4915C40.7575 28.4915 38.352 26.7048 35.7616 26.7576C32.3852 26.8657 29.2375 28.7683 27.5948 31.694C24.0636 37.7534 26.6976 46.6587 30.0801 51.5567C31.7725 53.9551 33.7504 56.6341 36.3384 56.5391C38.871 56.435 39.8168 54.9385 42.8738 54.9385C45.9025 54.9385 46.7899 56.5391 49.4304 56.4787C52.148 56.435 53.8601 54.0697 55.4931 51.6486C56.7091 49.9396 57.6448 48.0509 58.2655 46.0523C55.0719 44.7135 52.9392 41.5281 52.9355 38.0914Z" fill="#090909"/>
<path d="M47.9479 23.452C49.4296 21.689 50.1596 19.423 49.9828 17.1353C47.7191 17.3709 45.628 18.4432 44.1263 20.1385C42.6578 21.7949 41.8936 24.021 42.0381 26.2214C44.3026 26.2445 46.5288 25.2013 47.9479 23.452Z" fill="#090909"/>
<path d="M143.255 34.9497V38.6359H140.924V41.0534H143.255V49.2672C143.255 52.0719 144.535 53.1938 147.756 53.1938C148.322 53.1938 148.861 53.1271 149.333 53.0469V50.6562C148.928 50.6963 148.672 50.723 148.228 50.723C146.786 50.723 146.152 50.0552 146.152 48.5326V41.0534H149.333V38.6359H146.152V34.9497H143.255Z" fill="#090909"/>
<path d="M157.537 53.3942C161.822 53.3942 164.45 50.5494 164.45 45.8348C164.45 41.1468 161.809 38.2887 157.537 38.2887C153.252 38.2887 150.611 41.1468 150.611 45.8348C150.611 50.5494 153.238 53.3942 157.537 53.3942ZM157.537 50.8432C155.017 50.8432 153.602 49.0134 153.602 45.8348C153.602 42.6828 155.017 40.8397 157.537 40.8397C160.043 40.8397 161.472 42.6828 161.472 45.8348C161.472 49.0001 160.043 50.8432 157.537 50.8432Z" fill="#090909"/>
<path d="M166.698 53.1137H169.595V44.5259C169.595 42.4824 171.145 41.1068 173.342 41.1068C173.854 41.1068 174.716 41.2003 174.959 41.2804V38.449C174.649 38.3688 174.096 38.3288 173.665 38.3288C171.751 38.3288 170.121 39.3705 169.703 40.7996H169.488V38.5692H166.698V53.1137Z" fill="#090909"/>
<path d="M182.152 40.7328C184.295 40.7328 185.696 42.2153 185.764 44.4992H178.352C178.514 42.2287 180.01 40.7328 182.152 40.7328ZM185.75 49.1871C185.211 50.3223 184.012 50.95 182.26 50.95C179.942 50.95 178.447 49.334 178.352 46.783V46.6227H188.715V45.6211C188.715 41.0534 186.249 38.2887 182.166 38.2887C178.029 38.2887 175.401 41.2403 175.401 45.8882C175.401 50.536 177.975 53.3942 182.179 53.3942C185.535 53.3942 187.879 51.7915 188.54 49.1871H185.75Z" fill="#090909"/>
<path d="M124.256 47.7426C124.479 51.3141 127.482 53.5982 131.951 53.5982C136.728 53.5982 139.717 51.2034 139.717 47.3827C139.717 44.3788 138.013 42.7176 133.879 41.7625L131.658 41.2226C129.032 40.6135 127.971 39.7968 127.971 38.3709C127.971 36.5714 129.619 35.3947 132.091 35.3947C134.437 35.3947 136.058 36.5437 136.351 38.3848H139.396C139.214 35.021 136.225 32.6538 132.133 32.6538C127.733 32.6538 124.8 35.021 124.8 38.5786C124.8 41.5133 126.462 43.2575 130.108 44.1019L132.706 44.7249C135.373 45.3478 136.546 46.2614 136.546 47.7842C136.546 49.5561 134.703 50.8435 132.189 50.8435C129.493 50.8435 127.622 49.6391 127.356 47.7426H124.256Z" fill="#090909"/>
<path d="M94.2432 38.3288C92.2488 38.3288 90.5239 39.3171 89.6346 40.9732H89.419V38.5692H86.6295V57.9485H89.5268V50.91H89.7558C90.5239 52.4459 92.1814 53.3541 94.2701 53.3541C97.9759 53.3541 100.334 50.4559 100.334 45.8348C100.334 41.2136 97.9759 38.3288 94.2432 38.3288ZM93.4212 50.7764C90.9956 50.7764 89.4729 48.8799 89.4729 45.8481C89.4729 42.803 90.9956 40.9064 93.4347 40.9064C95.8872 40.9064 97.356 42.7629 97.356 45.8348C97.356 48.92 95.8872 50.7764 93.4212 50.7764Z" fill="#090909"/>
<path d="M110.472 38.3288C108.478 38.3288 106.753 39.3171 105.863 40.9732H105.648V38.5692H102.858V57.9485H105.756V50.91H105.985C106.753 52.4459 108.41 53.3541 110.499 53.3541C114.205 53.3541 116.563 50.4559 116.563 45.8348C116.563 41.2136 114.205 38.3288 110.472 38.3288ZM109.65 50.7764C107.224 50.7764 105.702 48.8799 105.702 45.8481C105.702 42.803 107.224 40.9064 109.663 40.9064C112.116 40.9064 113.585 42.7629 113.585 45.8348C113.585 48.92 112.116 50.7764 109.65 50.7764Z" fill="#090909"/>
<path d="M81.4314 53.1137H84.7555L77.4788 33.1383H74.1127L66.8359 53.1137H70.0483L71.9059 47.8118H79.5878L81.4314 53.1137ZM75.6351 36.7652H75.8726L78.7916 45.2094H72.7021L75.6351 36.7652Z" fill="#090909"/>
<path d="M66.7578 19.0491V26.9449H69.6341C72.0081 26.9449 73.3827 25.4949 73.3827 22.9724C73.3827 20.4882 71.997 19.0491 69.6341 19.0491H66.7578ZM67.9945 20.1654H69.4961C71.1468 20.1654 72.124 21.205 72.124 22.9888C72.124 24.8 71.1634 25.8287 69.4961 25.8287H67.9945V20.1654Z" fill="#090909"/>
<path d="M77.5929 27.0598C79.3485 27.0598 80.425 25.8943 80.425 23.9628C80.425 22.0422 79.343 20.8712 77.5929 20.8712C75.8373 20.8712 74.7552 22.0422 74.7552 23.9628C74.7552 25.8943 75.8318 27.0598 77.5929 27.0598ZM77.5929 26.0147C76.5605 26.0147 75.9808 25.2651 75.9808 23.9628C75.9808 22.6714 76.5605 21.9163 77.5929 21.9163C78.6198 21.9163 79.205 22.6714 79.205 23.9628C79.205 25.2596 78.6198 26.0147 77.5929 26.0147Z" fill="#090909"/>
<path d="M89.5928 20.9861H88.4059L87.3348 25.5332H87.241L86.0043 20.9861H84.8671L83.6304 25.5332H83.5421L82.4655 20.9861H81.262L82.9182 26.9449H84.1383L85.375 22.5565H85.4688L86.711 26.9449H87.9421L89.5928 20.9861Z" fill="#090909"/>
<path d="M90.9598 26.9449H92.1468V23.4594C92.1468 22.5292 92.7044 21.9492 93.5822 21.9492C94.46 21.9492 94.8795 22.4252 94.8795 23.3828V26.9449H96.0665V23.0873C96.0665 21.6701 95.3267 20.8712 93.9852 20.8712C93.0798 20.8712 92.4835 21.2707 92.1909 21.9328H92.1026V20.9861H90.9598V26.9449Z" fill="#090909"/>
<path d="M97.9358 26.9449H99.1228V18.6606H97.9358V26.9449Z" fill="#090909"/>
<path d="M103.587 27.0598C105.343 27.0598 106.419 25.8943 106.419 23.9628C106.419 22.0422 105.337 20.8712 103.587 20.8712C101.831 20.8712 100.749 22.0422 100.749 23.9628C100.749 25.8943 101.826 27.0598 103.587 27.0598ZM103.587 26.0147C102.555 26.0147 101.975 25.2651 101.975 23.9628C101.975 22.6714 102.555 21.9163 103.587 21.9163C104.614 21.9163 105.199 22.6714 105.199 23.9628C105.199 25.2596 104.614 26.0147 103.587 26.0147Z" fill="#090909"/>
<path d="M109.956 26.053C109.31 26.053 108.84 25.7411 108.84 25.2049C108.84 24.6796 109.216 24.4005 110.044 24.3458L111.513 24.2528V24.7507C111.513 25.4894 110.85 26.053 109.956 26.053ZM109.652 27.0434C110.441 27.0434 111.098 26.7041 111.457 26.1077H111.551V26.9449H112.694V22.8739C112.694 21.6154 111.844 20.8712 110.337 20.8712C108.973 20.8712 108.001 21.5278 107.88 22.5511H109.028C109.161 22.1297 109.619 21.889 110.281 21.889C111.093 21.889 111.513 22.2447 111.513 22.8739V23.3883L109.884 23.4813C108.454 23.5688 107.648 24.1871 107.648 25.2596C107.648 26.3485 108.493 27.0434 109.652 27.0434Z" fill="#090909"/>
<path d="M116.722 27.0434C117.55 27.0434 118.251 26.6549 118.61 26.0038H118.704V26.9449H119.841V18.6606H118.654V21.9328H118.566C118.24 21.2761 117.545 20.8877 116.722 20.8877C115.204 20.8877 114.227 22.0805 114.227 23.9628C114.227 25.8505 115.193 27.0434 116.722 27.0434ZM117.059 21.9437C118.052 21.9437 118.676 22.7262 118.676 23.9683C118.676 25.2158 118.058 25.9873 117.059 25.9873C116.054 25.9873 115.452 25.2268 115.452 23.9628C115.452 22.7098 116.059 21.9437 117.059 21.9437Z" fill="#090909"/>
<path d="M127.538 27.0598C129.294 27.0598 130.37 25.8943 130.37 23.9628C130.37 22.0422 129.288 20.8712 127.538 20.8712C125.783 20.8712 124.701 22.0422 124.701 23.9628C124.701 25.8943 125.777 27.0598 127.538 27.0598ZM127.538 26.0147C126.506 26.0147 125.926 25.2651 125.926 23.9628C125.926 22.6714 126.506 21.9163 127.538 21.9163C128.565 21.9163 129.15 22.6714 129.15 23.9628C129.15 25.2596 128.565 26.0147 127.538 26.0147Z" fill="#090909"/>
<path d="M131.942 26.9449H133.129V23.4594C133.129 22.5292 133.686 21.9492 134.564 21.9492C135.442 21.9492 135.861 22.4252 135.861 23.3828V26.9449H137.048V23.0873C137.048 21.6701 136.309 20.8712 134.967 20.8712C134.062 20.8712 133.465 21.2707 133.173 21.9328H133.084V20.9861H131.942V26.9449Z" fill="#090909"/>
<path d="M142.515 19.5033V21.0135H141.56V22.0039H142.515V25.369C142.515 26.5181 143.039 26.9777 144.359 26.9777C144.591 26.9777 144.812 26.9504 145.005 26.9175V25.9381C144.839 25.9545 144.734 25.9655 144.552 25.9655C143.961 25.9655 143.702 25.6919 143.702 25.0681V22.0039H145.005V21.0135H143.702V19.5033H142.515Z" fill="#090909"/>
<path d="M146.598 26.9449H147.785V23.4649C147.785 22.562 148.326 21.9546 149.298 21.9546C150.137 21.9546 150.584 22.4362 150.584 23.3883V26.9449H151.771V23.0982C151.771 21.6811 150.982 20.8767 149.701 20.8767C148.795 20.8767 148.161 21.2761 147.868 21.9437H147.774V18.6606H146.598V26.9449Z" fill="#090909"/>
<path d="M156.053 21.8726C156.931 21.8726 157.505 22.4799 157.533 23.4156H154.496C154.562 22.4854 155.175 21.8726 156.053 21.8726ZM157.527 25.3362C157.306 25.8013 156.815 26.0585 156.097 26.0585C155.148 26.0585 154.535 25.3964 154.496 24.3513V24.2856H158.742V23.8752C158.742 22.0039 157.731 20.8712 156.059 20.8712C154.364 20.8712 153.287 22.0805 153.287 23.9847C153.287 25.8888 154.342 27.0598 156.064 27.0598C157.439 27.0598 158.399 26.4032 158.67 25.3362H157.527Z" fill="#090909"/>
</svg>
