<svg width="30" height="30" viewBox="0 0 30 30" fill="none" xmlns="http://www.w3.org/2000/svg">
<rect width="30" height="30" rx="4" fill="#29816C"/>
<mask id="mask0_222_333" style="mask-type:alpha" maskUnits="userSpaceOnUse" x="5" y="5" width="20" height="20">
<rect x="5" y="5" width="20" height="20" fill="#D9D9D9"/>
</mask>
<g mask="url(#mask0_222_333)">
<path d="M21.625 22.5C19.8889 22.5 18.1736 22.1215 16.4792 21.3646C14.7847 20.6076 13.2431 19.5347 11.8542 18.1458C10.4653 16.7569 9.39236 15.2153 8.63542 13.5208C7.87847 11.8264 7.5 10.1111 7.5 8.375C7.5 8.125 7.58333 7.91667 7.75 7.75C7.91667 7.58333 8.125 7.5 8.375 7.5H11.75C11.9444 7.5 12.1181 7.56597 12.2708 7.69792C12.4236 7.82986 12.5139 7.98611 12.5417 8.16667L13.0833 11.0833C13.1111 11.3056 13.1042 11.4931 13.0625 11.6458C13.0208 11.7986 12.9444 11.9306 12.8333 12.0417L10.8125 14.0833C11.0903 14.5972 11.4201 15.0938 11.8021 15.5729C12.184 16.0521 12.6042 16.5139 13.0625 16.9583C13.4931 17.3889 13.9444 17.7882 14.4167 18.1562C14.8889 18.5243 15.3889 18.8611 15.9167 19.1667L17.875 17.2083C18 17.0833 18.1632 16.9896 18.3646 16.9271C18.566 16.8646 18.7639 16.8472 18.9583 16.875L21.8333 17.4583C22.0278 17.5139 22.1875 17.6146 22.3125 17.7604C22.4375 17.9062 22.5 18.0694 22.5 18.25V21.625C22.5 21.875 22.4167 22.0833 22.25 22.25C22.0833 22.4167 21.875 22.5 21.625 22.5ZM10.0208 12.5L11.3958 11.125L11.0417 9.16667H9.1875C9.25694 9.73611 9.35417 10.2986 9.47917 10.8542C9.60417 11.4097 9.78472 11.9583 10.0208 12.5ZM17.4792 19.9583C18.0208 20.1944 18.5729 20.3819 19.1354 20.5208C19.6979 20.6597 20.2639 20.75 20.8333 20.7917V18.9583L18.875 18.5625L17.4792 19.9583Z" fill="white"/>
</g>
</svg>
