<svg width="33" height="33" viewBox="0 0 33 33" fill="none" xmlns="http://www.w3.org/2000/svg">
<mask id="path-1-outside-1_0_347" maskUnits="userSpaceOnUse" x="5.32156" y="4.26471" width="23" height="25" fill="black">
<rect fill="white" x="5.32156" y="4.26471" width="23" height="25"/>
<path d="M14.5032 4.72372C12.993 4.9309 11.3448 5.65836 10.4469 6.50552C10.2213 6.72192 10.1983 6.76336 10.1983 6.94292C10.1983 7.21917 10.3871 7.40793 10.6587 7.40793C10.8245 7.40793 10.912 7.36189 11.3355 7.04421C12.4359 6.22007 13.6422 5.76886 15.0511 5.65836C15.7693 5.60311 18.0116 5.60311 18.785 5.65836C19.7934 5.73203 20.5853 5.94842 21.4508 6.38121C23.3063 7.31585 24.683 9.09766 25.0927 11.1097C25.1756 11.5148 25.2493 12.2285 25.2539 12.5968V12.8408H24.485C23.1958 12.8408 22.3625 12.6889 21.589 12.3113C20.8891 11.9706 20.4195 11.4504 20.4195 11.0038C20.4195 10.7966 20.1663 10.5388 19.9637 10.5388C19.6644 10.5388 19.4527 10.7413 19.4527 11.036C19.4527 11.1051 19.3974 11.2708 19.3329 11.4043C19.0014 12.0719 17.8918 12.629 16.5751 12.7902C16.3034 12.8224 14.8393 12.8408 12.3669 12.8408H8.57306L8.60529 12.2975C8.63751 11.7358 8.72499 11.1511 8.8401 10.7229C8.94139 10.3546 8.92758 10.2717 8.75262 10.0968C8.49479 9.83892 8.11264 9.91259 7.97452 10.2487C7.79035 10.7091 7.62 11.8878 7.62 12.7073V13.0526L7.45425 13.1309C7.23785 13.2368 6.82809 13.6281 6.65773 13.8952C6.31242 14.4339 6.22034 15.2534 6.44134 15.8519C6.66234 16.4689 7.03067 16.8787 7.59698 17.1503C7.96071 17.3253 8.35206 17.3943 9.00124 17.3989L9.43864 17.4035L9.67805 17.9008C10.0878 18.7479 10.8015 19.6411 11.5565 20.2489L11.8972 20.5205L11.6256 20.8566C10.9442 21.6946 10.4838 22.6661 10.2352 23.8171C10.1385 24.2545 10.1339 24.3972 10.1293 26.1606V28.0437L10.2582 28.1542L10.3871 28.2647H16.9204H23.4537L23.5826 28.1542L23.7115 28.0437V26.1836C23.7115 24.5722 23.7023 24.2729 23.6286 23.9138C23.3892 22.7535 22.9104 21.7084 22.2151 20.8566L21.9435 20.5205L22.2842 20.2489C23.0393 19.6411 23.7529 18.7479 24.1627 17.9008L24.4021 17.4035L24.8395 17.3989C25.4887 17.3943 25.88 17.3253 26.2438 17.1503C26.8101 16.8787 27.1784 16.4689 27.3994 15.8519C27.5467 15.4514 27.5513 14.8068 27.4132 14.397C27.2429 13.886 26.7871 13.3243 26.3911 13.1355L26.2346 13.0618L26.2069 12.385C26.1563 11.257 25.9813 10.4098 25.6314 9.55807C24.6323 7.13169 22.5927 5.42815 19.9591 4.82041C19.5401 4.72832 19.4066 4.71911 17.0815 4.70991C15.7417 4.7053 14.5815 4.70991 14.5032 4.72372ZM20.6589 12.9191C21.4048 13.4025 22.3533 13.6926 23.5227 13.7847L23.9279 13.8215L23.9049 14.77C23.8772 15.7368 23.8312 16.0545 23.6332 16.6623C23.1268 18.2139 21.9297 19.5491 20.332 20.3502C18.5502 21.2388 16.4001 21.3907 14.5078 20.7553C12.1689 19.9772 10.539 18.2553 10.0326 16.0407C9.98653 15.8335 9.9543 15.3823 9.93588 14.7608L9.91286 13.8077H13.0437C15.0189 13.8077 16.3541 13.7893 16.6533 13.7571C17.9287 13.6189 19.1027 13.1401 19.7243 12.5001L19.9269 12.2929L20.1387 12.5047C20.2538 12.6198 20.4886 12.8086 20.6589 12.9191ZM8.96901 14.8068C8.98283 15.3869 9.02426 15.944 9.0611 16.1282L9.12555 16.4459L8.70658 16.4228C8.20933 16.3952 7.94229 16.2939 7.67985 16.0315C7.42662 15.7783 7.32994 15.5481 7.30692 15.1521C7.2885 14.862 7.30231 14.7884 7.40821 14.5674C7.64762 14.0885 8.09423 13.8169 8.66054 13.8123L8.94139 13.8077L8.96901 14.8068ZM25.6544 13.8768C25.9537 13.9642 26.276 14.2497 26.4325 14.5674C26.5384 14.7884 26.5522 14.862 26.5338 15.1521C26.5108 15.5481 26.4141 15.7783 26.1609 16.0315C25.8985 16.2939 25.6314 16.3952 25.1342 16.4228L24.7152 16.4459L24.7796 16.1282C24.8165 15.944 24.8579 15.3869 24.8717 14.8068L24.8994 13.8077H25.1572C25.3045 13.8077 25.5255 13.8399 25.6544 13.8768ZM13.2417 21.3078C13.5041 21.4276 13.9185 21.5979 14.1625 21.6762L14.6045 21.8235L14.6551 22.132C14.8347 23.2094 15.8154 24.0289 16.9204 24.0289C18.0254 24.0289 19.006 23.2094 19.1856 22.132L19.2363 21.8235L19.7243 21.6578C19.9913 21.5657 20.4149 21.3953 20.6635 21.2756L21.1147 21.0638L21.2298 21.202C21.8238 21.9018 22.2474 22.6384 22.4868 23.4027C22.6479 23.9 22.7676 24.5906 22.7676 25.005V25.272H21.9159H21.0641V24.8669C21.0641 24.4064 21.0135 24.2959 20.7648 24.2131C20.6451 24.1716 20.5622 24.1716 20.4425 24.2131C20.1433 24.3144 20.1433 24.3051 20.1433 25.9028V27.3439H16.9204H13.6975V25.9028C13.6975 24.3051 13.6975 24.3144 13.3982 24.2131C13.2785 24.1716 13.1956 24.1716 13.0759 24.2131C12.8273 24.2959 12.7766 24.4064 12.7766 24.8669V25.272H11.9249H11.0731V25.005C11.0731 24.0013 11.5427 22.6108 12.1689 21.7591C12.4175 21.4137 12.6984 21.0868 12.7352 21.0822C12.749 21.0822 12.9792 21.1835 13.2417 21.3078ZM16.9204 22.1044C17.2473 22.1044 17.6755 22.0906 17.8688 22.0721L18.2187 22.0353L18.1865 22.1458C18.0346 22.643 17.4545 23.062 16.9204 23.062C16.3863 23.062 15.8062 22.643 15.6542 22.1458L15.622 22.0353L15.9719 22.0721C16.1653 22.0906 16.5935 22.1044 16.9204 22.1044ZM12.7766 26.7684V27.3439H11.9249H11.0731V26.7684V26.1928H11.9249H12.7766V26.7684ZM22.7676 26.7684V27.3439H21.9159H21.0641V26.7684V26.1928H21.9159H22.7676V26.7684Z"/>
</mask>
<path d="M14.5032 4.72372C12.993 4.9309 11.3448 5.65836 10.4469 6.50552C10.2213 6.72192 10.1983 6.76336 10.1983 6.94292C10.1983 7.21917 10.3871 7.40793 10.6587 7.40793C10.8245 7.40793 10.912 7.36189 11.3355 7.04421C12.4359 6.22007 13.6422 5.76886 15.0511 5.65836C15.7693 5.60311 18.0116 5.60311 18.785 5.65836C19.7934 5.73203 20.5853 5.94842 21.4508 6.38121C23.3063 7.31585 24.683 9.09766 25.0927 11.1097C25.1756 11.5148 25.2493 12.2285 25.2539 12.5968V12.8408H24.485C23.1958 12.8408 22.3625 12.6889 21.589 12.3113C20.8891 11.9706 20.4195 11.4504 20.4195 11.0038C20.4195 10.7966 20.1663 10.5388 19.9637 10.5388C19.6644 10.5388 19.4527 10.7413 19.4527 11.036C19.4527 11.1051 19.3974 11.2708 19.3329 11.4043C19.0014 12.0719 17.8918 12.629 16.5751 12.7902C16.3034 12.8224 14.8393 12.8408 12.3669 12.8408H8.57306L8.60529 12.2975C8.63751 11.7358 8.72499 11.1511 8.8401 10.7229C8.94139 10.3546 8.92758 10.2717 8.75262 10.0968C8.49479 9.83892 8.11264 9.91259 7.97452 10.2487C7.79035 10.7091 7.62 11.8878 7.62 12.7073V13.0526L7.45425 13.1309C7.23785 13.2368 6.82809 13.6281 6.65773 13.8952C6.31242 14.4339 6.22034 15.2534 6.44134 15.8519C6.66234 16.4689 7.03067 16.8787 7.59698 17.1503C7.96071 17.3253 8.35206 17.3943 9.00124 17.3989L9.43864 17.4035L9.67805 17.9008C10.0878 18.7479 10.8015 19.6411 11.5565 20.2489L11.8972 20.5205L11.6256 20.8566C10.9442 21.6946 10.4838 22.6661 10.2352 23.8171C10.1385 24.2545 10.1339 24.3972 10.1293 26.1606V28.0437L10.2582 28.1542L10.3871 28.2647H16.9204H23.4537L23.5826 28.1542L23.7115 28.0437V26.1836C23.7115 24.5722 23.7023 24.2729 23.6286 23.9138C23.3892 22.7535 22.9104 21.7084 22.2151 20.8566L21.9435 20.5205L22.2842 20.2489C23.0393 19.6411 23.7529 18.7479 24.1627 17.9008L24.4021 17.4035L24.8395 17.3989C25.4887 17.3943 25.88 17.3253 26.2438 17.1503C26.8101 16.8787 27.1784 16.4689 27.3994 15.8519C27.5467 15.4514 27.5513 14.8068 27.4132 14.397C27.2429 13.886 26.7871 13.3243 26.3911 13.1355L26.2346 13.0618L26.2069 12.385C26.1563 11.257 25.9813 10.4098 25.6314 9.55807C24.6323 7.13169 22.5927 5.42815 19.9591 4.82041C19.5401 4.72832 19.4066 4.71911 17.0815 4.70991C15.7417 4.7053 14.5815 4.70991 14.5032 4.72372ZM20.6589 12.9191C21.4048 13.4025 22.3533 13.6926 23.5227 13.7847L23.9279 13.8215L23.9049 14.77C23.8772 15.7368 23.8312 16.0545 23.6332 16.6623C23.1268 18.2139 21.9297 19.5491 20.332 20.3502C18.5502 21.2388 16.4001 21.3907 14.5078 20.7553C12.1689 19.9772 10.539 18.2553 10.0326 16.0407C9.98653 15.8335 9.9543 15.3823 9.93588 14.7608L9.91286 13.8077H13.0437C15.0189 13.8077 16.3541 13.7893 16.6533 13.7571C17.9287 13.6189 19.1027 13.1401 19.7243 12.5001L19.9269 12.2929L20.1387 12.5047C20.2538 12.6198 20.4886 12.8086 20.6589 12.9191ZM8.96901 14.8068C8.98283 15.3869 9.02426 15.944 9.0611 16.1282L9.12555 16.4459L8.70658 16.4228C8.20933 16.3952 7.94229 16.2939 7.67985 16.0315C7.42662 15.7783 7.32994 15.5481 7.30692 15.1521C7.2885 14.862 7.30231 14.7884 7.40821 14.5674C7.64762 14.0885 8.09423 13.8169 8.66054 13.8123L8.94139 13.8077L8.96901 14.8068ZM25.6544 13.8768C25.9537 13.9642 26.276 14.2497 26.4325 14.5674C26.5384 14.7884 26.5522 14.862 26.5338 15.1521C26.5108 15.5481 26.4141 15.7783 26.1609 16.0315C25.8985 16.2939 25.6314 16.3952 25.1342 16.4228L24.7152 16.4459L24.7796 16.1282C24.8165 15.944 24.8579 15.3869 24.8717 14.8068L24.8994 13.8077H25.1572C25.3045 13.8077 25.5255 13.8399 25.6544 13.8768ZM13.2417 21.3078C13.5041 21.4276 13.9185 21.5979 14.1625 21.6762L14.6045 21.8235L14.6551 22.132C14.8347 23.2094 15.8154 24.0289 16.9204 24.0289C18.0254 24.0289 19.006 23.2094 19.1856 22.132L19.2363 21.8235L19.7243 21.6578C19.9913 21.5657 20.4149 21.3953 20.6635 21.2756L21.1147 21.0638L21.2298 21.202C21.8238 21.9018 22.2474 22.6384 22.4868 23.4027C22.6479 23.9 22.7676 24.5906 22.7676 25.005V25.272H21.9159H21.0641V24.8669C21.0641 24.4064 21.0135 24.2959 20.7648 24.2131C20.6451 24.1716 20.5622 24.1716 20.4425 24.2131C20.1433 24.3144 20.1433 24.3051 20.1433 25.9028V27.3439H16.9204H13.6975V25.9028C13.6975 24.3051 13.6975 24.3144 13.3982 24.2131C13.2785 24.1716 13.1956 24.1716 13.0759 24.2131C12.8273 24.2959 12.7766 24.4064 12.7766 24.8669V25.272H11.9249H11.0731V25.005C11.0731 24.0013 11.5427 22.6108 12.1689 21.7591C12.4175 21.4137 12.6984 21.0868 12.7352 21.0822C12.749 21.0822 12.9792 21.1835 13.2417 21.3078ZM16.9204 22.1044C17.2473 22.1044 17.6755 22.0906 17.8688 22.0721L18.2187 22.0353L18.1865 22.1458C18.0346 22.643 17.4545 23.062 16.9204 23.062C16.3863 23.062 15.8062 22.643 15.6542 22.1458L15.622 22.0353L15.9719 22.0721C16.1653 22.0906 16.5935 22.1044 16.9204 22.1044ZM12.7766 26.7684V27.3439H11.9249H11.0731V26.7684V26.1928H11.9249H12.7766V26.7684ZM22.7676 26.7684V27.3439H21.9159H21.0641V26.7684V26.1928H21.9159H22.7676V26.7684Z" fill="white"/>
<path d="M14.5032 4.72372C12.993 4.9309 11.3448 5.65836 10.4469 6.50552C10.2213 6.72192 10.1983 6.76336 10.1983 6.94292C10.1983 7.21917 10.3871 7.40793 10.6587 7.40793C10.8245 7.40793 10.912 7.36189 11.3355 7.04421C12.4359 6.22007 13.6422 5.76886 15.0511 5.65836C15.7693 5.60311 18.0116 5.60311 18.785 5.65836C19.7934 5.73203 20.5853 5.94842 21.4508 6.38121C23.3063 7.31585 24.683 9.09766 25.0927 11.1097C25.1756 11.5148 25.2493 12.2285 25.2539 12.5968V12.8408H24.485C23.1958 12.8408 22.3625 12.6889 21.589 12.3113C20.8891 11.9706 20.4195 11.4504 20.4195 11.0038C20.4195 10.7966 20.1663 10.5388 19.9637 10.5388C19.6644 10.5388 19.4527 10.7413 19.4527 11.036C19.4527 11.1051 19.3974 11.2708 19.3329 11.4043C19.0014 12.0719 17.8918 12.629 16.5751 12.7902C16.3034 12.8224 14.8393 12.8408 12.3669 12.8408H8.57306L8.60529 12.2975C8.63751 11.7358 8.72499 11.1511 8.8401 10.7229C8.94139 10.3546 8.92758 10.2717 8.75262 10.0968C8.49479 9.83892 8.11264 9.91259 7.97452 10.2487C7.79035 10.7091 7.62 11.8878 7.62 12.7073V13.0526L7.45425 13.1309C7.23785 13.2368 6.82809 13.6281 6.65773 13.8952C6.31242 14.4339 6.22034 15.2534 6.44134 15.8519C6.66234 16.4689 7.03067 16.8787 7.59698 17.1503C7.96071 17.3253 8.35206 17.3943 9.00124 17.3989L9.43864 17.4035L9.67805 17.9008C10.0878 18.7479 10.8015 19.6411 11.5565 20.2489L11.8972 20.5205L11.6256 20.8566C10.9442 21.6946 10.4838 22.6661 10.2352 23.8171C10.1385 24.2545 10.1339 24.3972 10.1293 26.1606V28.0437L10.2582 28.1542L10.3871 28.2647H16.9204H23.4537L23.5826 28.1542L23.7115 28.0437V26.1836C23.7115 24.5722 23.7023 24.2729 23.6286 23.9138C23.3892 22.7535 22.9104 21.7084 22.2151 20.8566L21.9435 20.5205L22.2842 20.2489C23.0393 19.6411 23.7529 18.7479 24.1627 17.9008L24.4021 17.4035L24.8395 17.3989C25.4887 17.3943 25.88 17.3253 26.2438 17.1503C26.8101 16.8787 27.1784 16.4689 27.3994 15.8519C27.5467 15.4514 27.5513 14.8068 27.4132 14.397C27.2429 13.886 26.7871 13.3243 26.3911 13.1355L26.2346 13.0618L26.2069 12.385C26.1563 11.257 25.9813 10.4098 25.6314 9.55807C24.6323 7.13169 22.5927 5.42815 19.9591 4.82041C19.5401 4.72832 19.4066 4.71911 17.0815 4.70991C15.7417 4.7053 14.5815 4.70991 14.5032 4.72372ZM20.6589 12.9191C21.4048 13.4025 22.3533 13.6926 23.5227 13.7847L23.9279 13.8215L23.9049 14.77C23.8772 15.7368 23.8312 16.0545 23.6332 16.6623C23.1268 18.2139 21.9297 19.5491 20.332 20.3502C18.5502 21.2388 16.4001 21.3907 14.5078 20.7553C12.1689 19.9772 10.539 18.2553 10.0326 16.0407C9.98653 15.8335 9.9543 15.3823 9.93588 14.7608L9.91286 13.8077H13.0437C15.0189 13.8077 16.3541 13.7893 16.6533 13.7571C17.9287 13.6189 19.1027 13.1401 19.7243 12.5001L19.9269 12.2929L20.1387 12.5047C20.2538 12.6198 20.4886 12.8086 20.6589 12.9191ZM8.96901 14.8068C8.98283 15.3869 9.02426 15.944 9.0611 16.1282L9.12555 16.4459L8.70658 16.4228C8.20933 16.3952 7.94229 16.2939 7.67985 16.0315C7.42662 15.7783 7.32994 15.5481 7.30692 15.1521C7.2885 14.862 7.30231 14.7884 7.40821 14.5674C7.64762 14.0885 8.09423 13.8169 8.66054 13.8123L8.94139 13.8077L8.96901 14.8068ZM25.6544 13.8768C25.9537 13.9642 26.276 14.2497 26.4325 14.5674C26.5384 14.7884 26.5522 14.862 26.5338 15.1521C26.5108 15.5481 26.4141 15.7783 26.1609 16.0315C25.8985 16.2939 25.6314 16.3952 25.1342 16.4228L24.7152 16.4459L24.7796 16.1282C24.8165 15.944 24.8579 15.3869 24.8717 14.8068L24.8994 13.8077H25.1572C25.3045 13.8077 25.5255 13.8399 25.6544 13.8768ZM13.2417 21.3078C13.5041 21.4276 13.9185 21.5979 14.1625 21.6762L14.6045 21.8235L14.6551 22.132C14.8347 23.2094 15.8154 24.0289 16.9204 24.0289C18.0254 24.0289 19.006 23.2094 19.1856 22.132L19.2363 21.8235L19.7243 21.6578C19.9913 21.5657 20.4149 21.3953 20.6635 21.2756L21.1147 21.0638L21.2298 21.202C21.8238 21.9018 22.2474 22.6384 22.4868 23.4027C22.6479 23.9 22.7676 24.5906 22.7676 25.005V25.272H21.9159H21.0641V24.8669C21.0641 24.4064 21.0135 24.2959 20.7648 24.2131C20.6451 24.1716 20.5622 24.1716 20.4425 24.2131C20.1433 24.3144 20.1433 24.3051 20.1433 25.9028V27.3439H16.9204H13.6975V25.9028C13.6975 24.3051 13.6975 24.3144 13.3982 24.2131C13.2785 24.1716 13.1956 24.1716 13.0759 24.2131C12.8273 24.2959 12.7766 24.4064 12.7766 24.8669V25.272H11.9249H11.0731V25.005C11.0731 24.0013 11.5427 22.6108 12.1689 21.7591C12.4175 21.4137 12.6984 21.0868 12.7352 21.0822C12.749 21.0822 12.9792 21.1835 13.2417 21.3078ZM16.9204 22.1044C17.2473 22.1044 17.6755 22.0906 17.8688 22.0721L18.2187 22.0353L18.1865 22.1458C18.0346 22.643 17.4545 23.062 16.9204 23.062C16.3863 23.062 15.8062 22.643 15.6542 22.1458L15.622 22.0353L15.9719 22.0721C16.1653 22.0906 16.5935 22.1044 16.9204 22.1044ZM12.7766 26.7684V27.3439H11.9249H11.0731V26.7684V26.1928H11.9249H12.7766V26.7684ZM22.7676 26.7684V27.3439H21.9159H21.0641V26.7684V26.1928H21.9159H22.7676V26.7684Z" stroke="white" stroke-width="0.4" mask="url(#path-1-outside-1_0_347)"/>
<path d="M13.1796 15.0322L13.1796 15.0322L13.1808 15.0316C13.2306 15.005 13.3055 14.9869 13.3773 14.9746C13.4527 14.9618 13.5379 14.9533 13.6161 14.9508L13.6161 14.9508H13.6192C13.7405 14.9508 13.8298 14.9531 13.9118 14.9853C13.9938 15.0175 14.0601 15.0763 14.1474 15.1568L14.1476 15.157C14.1504 15.1596 14.1531 15.1621 14.1557 15.1645C14.2428 15.2453 14.3093 15.307 14.3424 15.3955C14.3595 15.4411 14.3665 15.4891 14.3698 15.5427C14.373 15.595 14.373 15.6592 14.373 15.7382V15.7414V15.7445C14.373 15.8236 14.373 15.8877 14.3698 15.94C14.3665 15.9936 14.3595 16.0417 14.3424 16.0873C14.3093 16.1758 14.2428 16.2374 14.1557 16.3182C14.1531 16.3207 14.1504 16.3232 14.1476 16.3257L14.1474 16.3259C14.0595 16.4071 13.9923 16.4655 13.9098 16.4976C13.8275 16.5296 13.7385 16.532 13.6192 16.532C13.3732 16.532 13.1659 16.4634 13.0192 16.3222C12.8721 16.1806 12.7988 15.9785 12.7963 15.7378L12.7963 15.7378V15.7368C12.7963 15.5958 12.8385 15.4507 12.905 15.3273C12.971 15.2047 13.066 15.0947 13.1796 15.0322Z" fill="white" stroke="white" stroke-width="0.2"/>
<path d="M19.8762 16.3586L19.8255 16.4448C19.6978 16.3696 19.6033 16.2843 19.5441 16.163C19.4863 16.0448 19.4677 15.9034 19.4677 15.7278L19.4677 15.722C19.4677 15.5787 19.4677 15.4783 19.5005 15.3944C19.5342 15.3084 19.5996 15.2462 19.6852 15.1648C19.6875 15.1626 19.6899 15.1603 19.6922 15.1581L19.6922 15.1581L19.6933 15.1571C19.7812 15.0759 19.8483 15.0176 19.93 14.9855C20.0119 14.9534 20.0998 14.951 20.2169 14.951C20.4634 14.951 20.6715 15.021 20.8191 15.1624C20.967 15.3042 21.0419 15.5061 21.0444 15.7452L21.0444 15.7452V15.7462C21.0444 15.8894 21.0023 16.0348 20.9341 16.1583C20.8662 16.2812 20.7684 16.3898 20.6502 16.4517M19.8762 16.3586L19.8244 16.4441C19.9243 16.5046 20.0851 16.5288 20.2305 16.5299C20.3773 16.5311 20.5409 16.5092 20.6502 16.4517M19.8762 16.3586C20.0282 16.4507 20.4287 16.4553 20.6037 16.3632M19.8762 16.3586C19.6414 16.2205 19.5677 16.0685 19.5677 15.7278C19.5677 15.4193 19.5724 15.4101 19.7611 15.2306C19.9407 15.0648 19.9775 15.051 20.2169 15.051C20.6727 15.051 20.9398 15.3088 20.9444 15.7462C20.9444 15.9949 20.7971 16.2619 20.6037 16.3632M20.6502 16.4517C20.6501 16.4517 20.6501 16.4518 20.6501 16.4518L20.6037 16.3632M20.6502 16.4517C20.6502 16.4517 20.6502 16.4517 20.6503 16.4517L20.6037 16.3632" fill="white" stroke="white" stroke-width="0.2"/>
<path d="M17.5298 16.2784L17.5298 16.2784L17.5308 16.278C17.6588 16.2315 17.8092 16.2423 17.9367 16.2839C18.0627 16.325 18.188 16.4037 18.2509 16.5168L18.2512 16.5167L18.2545 16.524C18.2716 16.5617 18.2848 16.6172 18.2938 16.671C18.3031 16.7271 18.3095 16.7914 18.3095 16.8509C18.3095 16.9444 18.3041 17.0213 18.2577 17.1044C18.216 17.1794 18.1433 17.2541 18.0355 17.3597L18.0351 17.3601C17.88 17.5103 17.7215 17.6177 17.5401 17.6867C17.3592 17.7556 17.1611 17.7842 16.9296 17.7842C16.7291 17.7842 16.5654 17.7689 16.4135 17.7285C16.2609 17.6878 16.1249 17.623 15.9781 17.5292C15.7635 17.3934 15.6157 17.2171 15.5574 17.0262C15.4982 16.832 15.5349 16.6313 15.6738 16.4649C15.7267 16.4 15.7775 16.3482 15.8494 16.3183C15.9183 16.2896 15.9956 16.2858 16.087 16.2858C16.183 16.2858 16.2605 16.2927 16.336 16.3229C16.4102 16.3526 16.4739 16.4015 16.5488 16.4671L16.5488 16.4671L16.5499 16.4681C16.6762 16.5819 16.8023 16.6307 16.92 16.6289C17.0376 16.627 17.1618 16.5744 17.2837 16.4566L17.2837 16.4566L17.2846 16.4557C17.3271 16.4158 17.374 16.3775 17.4156 16.3471C17.4537 16.3192 17.4971 16.2907 17.5298 16.2784ZM17.565 16.372C17.5281 16.3858 17.4314 16.4549 17.3532 16.5286L16.0318 17.4448C16.3126 17.6244 16.5382 17.6842 16.9296 17.6842C17.3762 17.6842 17.6708 17.5737 17.9655 17.2882C18.1865 17.0719 18.2095 17.0304 18.2095 16.8509C18.2095 16.745 18.1865 16.616 18.1635 16.5654C18.0714 16.3996 17.7675 16.2984 17.565 16.372Z" fill="white" stroke="white" stroke-width="0.2"/>
<path d="M15.5529 25.2029C15.3688 25.2812 15.3089 25.3963 15.3089 25.6541C15.3089 25.8291 15.3319 25.8797 15.4516 25.981L15.5944 26.1007H16.9203H18.2463L18.3891 25.981C18.5088 25.8797 18.5318 25.8291 18.5318 25.6541C18.5318 25.1615 18.4397 25.1338 16.9111 25.1338C15.9857 25.1384 15.668 25.1523 15.5529 25.2029Z" fill="white"/>
<path d="M8.87938 8.11567L8.87937 8.11567L8.87986 8.11518C8.99127 8.00378 9.12888 7.94431 9.27286 7.94431C9.41618 7.94431 9.55673 8.00316 9.67593 8.11163C9.74145 8.17014 9.79348 8.22343 9.82457 8.29299C9.85569 8.36259 9.8609 8.43744 9.8609 8.5266C9.8609 8.67228 9.81961 8.80239 9.73822 8.90394C9.65667 9.00569 9.54032 9.07195 9.4026 9.09896L9.4026 9.09896L9.40185 9.0991C8.83975 9.20484 8.47962 8.52098 8.87938 8.11567Z" fill="white" stroke="white" stroke-width="0.2"/>
</svg>
