<svg width="34" height="34" viewBox="0 0 34 34" fill="none" xmlns="http://www.w3.org/2000/svg">
<circle cx="17" cy="17" r="17" fill="#29816C"/>
<path d="M13.7857 22.7368C12.9286 22.7368 12.2429 22.4684 11.7286 21.9316C11.2429 21.3649 11 20.5895 11 19.6053C11 17.4281 11.6429 15.5193 12.9286 13.8789C13.5 13.1035 14.1429 12.4772 14.8571 12L16.1429 13.5658C15.7429 13.864 15.3429 14.2518 14.9429 14.7289C14.1714 15.5939 13.7857 16.4737 13.7857 17.3684C14.4429 17.3684 15 17.6219 15.4571 18.1289C15.9143 18.636 16.1429 19.2772 16.1429 20.0526C16.1429 20.8281 15.9143 21.4693 15.4571 21.9763C15 22.4833 14.4429 22.7368 13.7857 22.7368ZM20.6429 22.7368C19.7857 22.7368 19.1 22.4684 18.5857 21.9316C18.1 21.3649 17.8571 20.5895 17.8571 19.6053C17.8571 17.4281 18.5 15.5193 19.7857 13.8789C20.3571 13.1035 21 12.4772 21.7143 12L23 13.5658C22.6 13.864 22.2 14.2518 21.8 14.7289C21.0286 15.5939 20.6429 16.4737 20.6429 17.3684C21.3 17.3684 21.8571 17.6219 22.3143 18.1289C22.7714 18.636 23 19.2772 23 20.0526C23 20.8281 22.7714 21.4693 22.3143 21.9763C21.8571 22.4833 21.3 22.7368 20.6429 22.7368Z" fill="white"/>
</svg>
