<svg width="21" height="21" viewBox="0 0 21 21" fill="none" xmlns="http://www.w3.org/2000/svg">
<path d="M10.6735 3.01489C4.89268 3.01489 2.96518 4.94239 2.96518 10.7232C2.96518 16.5041 4.89268 18.4316 10.6735 18.4316C16.4543 18.4316 18.3818 16.5041 18.3818 10.7232" stroke="#29816C" stroke-width="1.8" stroke-linecap="round" stroke-linejoin="round"/>
<path fill-rule="evenodd" clip-rule="evenodd" d="M16.9471 4.30963V4.30963C16.1196 3.57713 14.8554 3.6538 14.1229 4.4813C14.1229 4.4813 10.4821 8.5938 9.2196 10.0213C7.95543 11.448 8.8821 13.4188 8.8821 13.4188C8.8821 13.4188 10.9688 14.0796 12.2138 12.673C13.4596 11.2663 17.1188 7.1338 17.1188 7.1338C17.8513 6.3063 17.7738 5.04213 16.9471 4.30963Z" stroke="#29816C" stroke-width="1.8" stroke-linecap="round" stroke-linejoin="round"/>
<path d="M13.1808 5.55713L16.1767 8.20963" stroke="#29816C" stroke-width="1.8" stroke-linecap="round" stroke-linejoin="round"/>
</svg>
