<svg width="60" height="60" viewBox="0 0 60 60" fill="none" xmlns="http://www.w3.org/2000/svg">
<rect width="60" height="60" rx="10" fill="#29816C"/>
<path d="M16.6667 23.3334V20.0001C16.6667 19.116 17.0179 18.2682 17.643 17.6431C18.2681 17.0179 19.1159 16.6667 20 16.6667H23.3333M16.6667 36.6667V40.0001C16.6667 40.8841 17.0179 41.732 17.643 42.3571C18.2681 42.9822 19.1159 43.3334 20 43.3334H23.3333M36.6667 16.6667H40C40.8841 16.6667 41.7319 17.0179 42.357 17.6431C42.9821 18.2682 43.3333 19.116 43.3333 20.0001V23.3334M36.6667 43.3334H40C40.8841 43.3334 41.7319 42.9822 42.357 42.3571C42.9821 41.732 43.3333 40.8841 43.3333 40.0001V36.6667M26.6667 28.3334V25.0001C26.6667 24.116 27.0179 23.2682 27.643 22.6431C28.2681 22.0179 29.1159 21.6667 30 21.6667C30.8841 21.6667 31.7319 22.0179 32.357 22.6431C32.9821 23.2682 33.3333 24.116 33.3333 25.0001V28.3334M23.3333 30.0001C23.3333 29.5581 23.5089 29.1341 23.8215 28.8216C24.134 28.509 24.558 28.3334 25 28.3334H35C35.442 28.3334 35.8659 28.509 36.1785 28.8216C36.4911 29.1341 36.6667 29.5581 36.6667 30.0001V35.0001C36.6667 35.4421 36.4911 35.866 36.1785 36.1786C35.8659 36.4912 35.442 36.6667 35 36.6667H25C24.558 36.6667 24.134 36.4912 23.8215 36.1786C23.5089 35.866 23.3333 35.4421 23.3333 35.0001V30.0001Z" stroke="white" stroke-width="2" stroke-linecap="round" stroke-linejoin="round"/>
</svg>
