<svg width="60" height="60" viewBox="0 0 60 60" fill="none" xmlns="http://www.w3.org/2000/svg">
<rect width="60" height="60" rx="10" fill="#29816C"/>
<path d="M42.8572 29.8715C42.8371 32.1025 42.1998 34.2844 41.016 36.1754C39.8322 38.0665 38.148 39.593 36.15 40.5858L30 43.9287L23.85 40.7144C21.8326 39.7118 20.1355 38.1653 18.9503 36.2493C17.7652 34.3334 17.1392 32.1244 17.1429 29.8715V18.2144C17.1429 17.6461 17.3686 17.101 17.7705 16.6992C18.1724 16.2973 18.7174 16.0715 19.2857 16.0715H40.7143C41.2826 16.0715 41.8277 16.2973 42.2295 16.6992C42.6314 17.101 42.8572 17.6461 42.8572 18.2144V29.8715Z" stroke="white" stroke-width="2" stroke-linecap="round" stroke-linejoin="round"/>
<path d="M26.7857 32.1429C26.7857 32.9954 27.1244 33.8129 27.7272 34.4157C28.33 35.0185 29.1475 35.3572 30 35.3572M30 35.3572C30.4303 35.3892 30.8625 35.328 31.267 35.1778C31.6714 35.0276 32.0388 34.7919 32.3439 34.4868C32.649 34.1817 32.8847 33.8143 33.0349 33.4098C33.1851 33.0053 33.2463 32.5732 33.2143 32.1429C33.2143 28.9286 26.7857 28.9286 26.7857 25.7143C26.7537 25.284 26.8149 24.8519 26.9651 24.4474C27.1153 24.0429 27.351 23.6756 27.6561 23.3704C27.9613 23.0653 28.3286 22.8296 28.7331 22.6794C29.1376 22.5292 29.5697 22.468 30 22.5M30 35.3572V37.5M30 22.5C30.8525 22.5 31.6701 22.8387 32.2729 23.4415C32.8757 24.0443 33.2143 24.8618 33.2143 25.7143M30 22.5V20.3572" stroke="white" stroke-width="2" stroke-linecap="round" stroke-linejoin="round"/>
</svg>
