<svg width="60" height="60" viewBox="0 0 60 60" fill="none" xmlns="http://www.w3.org/2000/svg">
<rect width="60" height="60" rx="10" fill="#29816C"/>
<path d="M16.7415 18.705C18.4814 16.9644 20.8152 15.9462 23.2746 15.8547C25.734 15.7631 28.137 16.6051 30.0015 18.2115C31.8641 16.6075 34.2639 15.7663 36.7203 15.8562C39.1768 15.9461 41.5086 16.9605 43.249 18.6964C44.9894 20.4322 46.0099 22.7614 46.1063 25.2176C46.2026 27.6738 45.3676 30.0757 43.7685 31.9425L32.121 43.629C31.5859 44.1644 30.8682 44.4776 30.1118 44.506C29.3554 44.5344 28.6162 44.2758 28.0425 43.782L27.8775 43.629L16.2315 31.944C14.6328 30.0787 13.7972 27.6787 13.8917 25.2238C13.9863 22.769 15.004 20.4418 16.7415 18.705ZM18.8625 20.8245C17.6354 22.0516 16.9281 23.7041 16.8873 25.4389C16.8465 27.1738 17.4754 28.8577 18.6435 30.141L18.8625 30.3705L30 41.508L37.9545 33.552L32.652 28.2495L31.062 29.8395C30.6442 30.2575 30.1482 30.5892 29.6022 30.8154C29.0562 31.0417 28.4711 31.1583 27.8801 31.1584C26.6865 31.1587 25.5417 30.6848 24.6975 29.841C23.8533 28.9973 23.3789 27.8527 23.3786 26.6591C23.3783 25.4655 23.8522 24.3207 24.696 23.4765L27.849 20.3235C26.5944 19.3219 25.0239 18.8001 23.4193 18.8518C21.8147 18.9035 20.2811 19.5252 19.0935 20.6055L18.8625 20.8245ZM31.5915 25.068C31.8728 24.7868 32.2542 24.6289 32.652 24.6289C33.0497 24.6289 33.4312 24.7868 33.7125 25.068L40.0755 31.431L41.1375 30.3705C42.3847 29.1242 43.0947 27.4394 43.1157 25.6764C43.1368 23.9133 42.4671 22.2121 41.25 20.9364C40.0329 19.6607 38.365 18.9118 36.6029 18.85C34.8408 18.7882 33.1245 19.4183 31.821 20.6055L31.5915 20.8245L26.8185 25.5975C26.5585 25.8574 26.403 26.2036 26.3814 26.5705C26.3598 26.9375 26.4737 27.2995 26.7015 27.588L26.8185 27.72C27.0785 27.9798 27.4248 28.1351 27.7918 28.1564C28.1587 28.1777 28.5207 28.0635 28.809 27.8355L28.9395 27.72L31.5915 25.068Z" fill="white"/>
</svg>
