<svg width="60" height="60" viewBox="0 0 60 60" fill="none" xmlns="http://www.w3.org/2000/svg">
<rect width="60" height="60" rx="10" fill="#29816C"/>
<path d="M29.969 35.2857C35.2946 35.2857 39.6119 30.9685 39.6119 25.6429C39.6119 20.3173 35.2946 16 29.969 16C24.6434 16 20.3262 20.3173 20.3262 25.6429C20.3262 30.9685 24.6434 35.2857 29.969 35.2857Z" stroke="white" stroke-width="2" stroke-linecap="round" stroke-linejoin="round"/>
<path d="M29.9693 29.9286C32.3362 29.9286 34.255 28.0098 34.255 25.6429C34.255 23.276 32.3362 21.3572 29.9693 21.3572C27.6024 21.3572 25.6836 23.276 25.6836 25.6429C25.6836 28.0098 27.6024 29.9286 29.9693 29.9286Z" stroke="white" stroke-width="2" stroke-linecap="round" stroke-linejoin="round"/>
<path d="M28.1043 35.1143L26.2186 43.0429C26.1813 43.1936 26.1123 43.3346 26.0162 43.4565C25.9202 43.5784 25.7992 43.6785 25.6615 43.75C25.5161 43.8131 25.3593 43.8457 25.2008 43.8457C25.0423 43.8457 24.8855 43.8131 24.7401 43.75L17.6258 40.6429C17.4765 40.5723 17.3452 40.4689 17.2417 40.3403C17.1382 40.2118 17.0651 40.0614 17.028 39.9006C16.9909 39.7398 16.9907 39.5726 17.0274 39.4117C17.0641 39.2508 17.1368 39.1003 17.2401 38.9714L22.7472 32.0714M32.3901 35.0072L34.3186 43.0429C34.357 43.1961 34.4287 43.339 34.5288 43.4612C34.6288 43.5835 34.7546 43.6821 34.8972 43.75C35.0386 43.8139 35.192 43.847 35.3472 43.847C35.5024 43.847 35.6558 43.8139 35.7972 43.75L42.8686 40.6429C43.0201 40.5732 43.1532 40.4691 43.2574 40.3389C43.3615 40.2087 43.4339 40.056 43.4686 39.8929C43.5093 39.7334 43.511 39.5664 43.4737 39.4061C43.4364 39.2457 43.3612 39.0967 43.2543 38.9714L37.5115 31.6643" stroke="white" stroke-width="2" stroke-linecap="round" stroke-linejoin="round"/>
</svg>
