<svg width="60" height="60" viewBox="0 0 60 60" fill="none" xmlns="http://www.w3.org/2000/svg">
<rect width="60" height="60" rx="10" fill="#29816C"/>
<path d="M45 22C45 21.6 44.8 21.3 44.5 21.1L37.5 17.1C37.3 17 37.2 17 37 17C36.8 17 36.7 17 36.5 17.1L30 20.8L23.5 17.1C23.3 17 23.2 17 23 17C22.8 17 22.7 17 22.5 17.1L15.5 21.1C15.2 21.3 15 21.6 15 22V42C15 42.6 15.4 43 16 43C16.2 43 16.3 42.9 16.5 42.9L23 39.2L29.5 42.9C29.7 43 29.8 43 30 43C30.2 43 30.3 43 30.5 42.9L37 39.2L43.5 42.9C43.6 43 43.8 43 44 43C44.6 43 45 42.6 45 42V22ZM17 22.6L22 19.7V37.4L17 40.3V22.6ZM29 40.3L24 37.4V19.7L29 22.6V40.3ZM36 37.4L31 40.3V22.6L36 19.7V37.4ZM38 37.4V19.7L43 22.6V40.3L38 37.4Z" fill="white"/>
</svg>
