<svg width="548" height="390" viewBox="0 0 548 390" fill="none" xmlns="http://www.w3.org/2000/svg">
<g clip-path="url(#clip0_50_1178)">
<g style="mix-blend-mode:multiply" opacity="0.1">
<path d="M522.379 298.371H76.864C62.7739 298.371 51.2426 305.306 51.2426 313.821C51.2426 319.706 56.7737 324.852 64.8544 327.459H25.6213C11.5312 327.459 0 334.394 0 342.914C0 351.411 11.5312 358.364 25.6213 358.364H39.2935C35.4714 361.064 33.1586 364.559 33.1586 368.364V374.545C33.1586 383.047 44.6852 390 58.78 390H497.644C511.734 390 523.266 383.065 523.266 374.545V368.364C523.266 359.867 511.734 352.909 497.644 352.909L467.802 353.256C470.894 353.123 473.857 351.986 476.24 350.02C480.582 346.21 480.777 340.408 478.655 335.605C477.262 332.489 475.07 330.02 469.608 329.091L522.36 329.299C536.45 329.299 547.981 322.365 547.981 313.844C548 305.324 536.469 298.371 522.379 298.371Z" fill="#CACBCC"/>
</g>
<path d="M182.075 91.3513L190.899 93.6628L228.052 126.024L222.479 143.592H204.367L182.075 91.3513Z" fill="#29816C"/>
<path d="M394.746 105.221L364.559 127.873L339.017 132.497V141.743L376.485 138.775L411 120.939L404.498 101.707L394.746 105.221Z" fill="#FCD8B9"/>
<path d="M435.265 354.273L435.716 358.711L427.63 364.245L422.907 360.353L426.725 355.369L434.815 349.831L435.265 354.273Z" fill="#211E1C"/>
<path d="M435.065 218.564L436.435 232.045L424.305 278.358L435.567 352.785L427.277 355.632L405.418 282.972L401.948 261.836L402.074 217.084L435.065 218.564Z" fill="#CAB5A1"/>
<path d="M371.307 233.589L388.741 358.295H396.668L398.094 278.358L412.519 222.253L371.307 233.589Z" fill="#CAB5A1"/>
<path d="M396.622 357.311V361.79L388.054 366.27L383.767 361.79L388.054 357.311H396.622Z" fill="#211E1C"/>
<path d="M434.624 203.58C427.858 159.296 430.273 127.05 429.925 118.193C429.834 115.615 429.199 113.085 428.062 110.768C426.925 108.45 425.311 106.396 423.325 104.74C420.585 104.134 418.217 102.377 415.43 101.684C396.715 96.996 386.507 111.221 379.499 126.565C370.876 145.487 363.608 164.992 357.751 184.936C352.606 202.429 347.451 220.071 345.291 238.225C344.399 245.715 343.656 252.82 351.895 256.121C365.019 261.387 379.759 261.271 393.636 262.963C409.56 264.9 425.508 266.32 441.539 266.981C449.913 267.327 441.395 247.864 434.624 203.58Z" fill="#7A543E"/>
<path d="M399.329 34.2291C342.556 35.3432 319.86 4.7618 316.865 0.314427C316.865 0.314427 316.865 -0.0692888 316.688 0.0509103C316.572 -0.124765 316.424 0.231209 316.424 0.231209C311.965 3.22232 279.359 23.0228 227.202 0.665776C227.202 0.665776 199.648 96.5801 223.565 142.566C249.112 191.672 275.207 210.113 275.393 210.03C275.519 210.168 306.866 203.192 348.941 167.008C388.281 133.158 399.329 34.2291 399.329 34.2291Z" fill="#EBB044"/>
<path d="M389.387 42.7078C337.907 43.5168 317.227 16.1992 314.496 12.228C314.496 12.228 314.496 11.8859 314.338 11.9923C314.232 11.8351 314.097 12.1494 314.097 12.1494C310.066 14.8031 280.562 32.3383 233.193 12.2511C233.193 12.2511 208.519 97.6157 230.355 138.659C253.682 182.499 276.921 201.324 277.07 201.25C277.181 201.375 306.067 192.929 344.102 160.84C379.69 130.809 389.387 42.7078 389.387 42.7078Z" fill="#DD9B4B"/>
<path d="M312.393 20.7066C312.393 20.7066 312.536 20.3737 312.643 20.5401C312.81 20.4292 312.815 20.7898 312.815 20.7898C315.602 24.8673 336.5 52.453 388.142 52.7258C389.637 43.8264 390.264 38.1863 390.264 38.1863C338.78 39.0046 318.119 11.687 315.374 7.71582C315.374 7.71582 315.374 7.37372 315.216 7.48005C315.109 7.32286 314.975 7.63723 314.975 7.63723C310.944 10.2909 281.44 27.8261 234.07 7.73894C234.07 7.73894 232.496 13.1803 230.494 21.9779C278.444 41.1451 308.25 23.4295 312.393 20.7066Z" fill="#E8A154"/>
<path d="M369.988 63.9829C331.062 64.7457 311.231 42.0235 309.179 38.9769C309.179 38.9769 309.179 38.7088 309.058 38.792C308.979 38.6718 308.877 38.9168 308.877 38.9168C305.816 40.9602 279.108 54.5612 243.349 39.2358C243.349 39.2358 228.832 104.975 245.207 136.5C262.724 170.174 280.613 182.809 280.725 182.754C280.808 182.851 302.301 178.066 331.145 153.259C358.141 130.051 369.988 63.9829 369.988 63.9829Z" fill="#FBDCB2"/>
<path d="M354.143 230.408L378.492 219.41L394.281 202.767L399.39 208.314L386.386 228.194L366.505 243.477L354.143 230.408Z" fill="#29816C"/>
<path d="M334.531 243.45L321.541 221.305L320.292 194.519L327.718 194.177L332.148 219.428L344.242 229.516L334.531 243.45Z" fill="#29816C"/>
<path d="M331.684 308.88V360.399H339.495L344.376 329.295L348.769 305.477L331.684 308.88Z" fill="#3B2C24"/>
<path d="M348.77 303.535L351.7 325.892L355.606 361.859L363.417 361.369V333.668L367.327 305.477L348.77 303.535Z" fill="#3B2C24"/>
<path d="M345.11 228.443C345.11 228.443 336.811 226.987 333.393 239.622C329.975 252.256 320.701 289.218 320.208 308.635C319.716 328.051 332.418 315.44 347.553 317.881C362.688 320.322 375.139 320.557 375.139 311.806C375.139 303.055 380.507 228.688 345.11 228.443Z" fill="#29816C"/>
<path d="M340.345 203.326C347.26 191.191 362.748 198.957 363.807 211.047C364.411 217.921 359.79 229.386 351.653 228.808C351.147 229.918 350.26 232.017 349.113 232.507C347.878 233.015 345.142 231.198 344.06 230.528C343.744 230.366 343.479 230.119 343.294 229.816C343.099 229.419 343.322 228.61 343.619 227.731C342.739 227.359 341.907 226.881 341.144 226.307C337.791 223.783 336.249 219.373 336.421 215.175C336.593 210.977 338.269 206.974 340.345 203.326Z" fill="#FCD8B9"/>
<path d="M349.996 200.173C349.996 200.173 361.058 202.947 361.058 207.515C361.058 214.412 361.522 219.04 361.058 223.145L368.892 218.522L373.499 205.675C373.499 205.675 372.57 195.125 367.049 193.29C361.527 191.454 349.996 189.619 349.996 189.619L341.237 192.37L334.786 191.907L337.015 211.176C337.015 211.176 339.853 197.423 349.996 200.173Z" fill="#3B2C24"/>
<path d="M331.684 360.399L327.291 364.772L329.241 367.689L338.032 364.772V360.399H331.684Z" fill="#2A2C2D"/>
<path d="M356.911 361.776L358.536 368.175L363.909 370.121L366.835 368.665L362.288 361.444L356.911 361.776Z" fill="#2A2C2D"/>
<path d="M394.281 202.767L395.21 197.219H397.068L400.783 193.521L402.176 196.295L401.247 203.229L397.95 206.382L394.281 202.767Z" fill="#FCD8B9"/>
<path d="M326.167 194.251L330.193 187.973L328.336 185.661L326.014 187.973L323.692 181.501L318.583 183.812L321.207 194.478L326.167 194.251Z" fill="#FCD8B9"/>
<path d="M430.041 128.724L386.851 160.697L338.181 158.016L338.46 148.229L380.089 143.596L412.96 115.535L430.561 110.144L430.041 128.724Z" fill="#FCD8B9"/>
<path d="M338.525 148.465L327.569 148.169L322.266 153.55L323.757 156.481L329.956 157.623L338.26 155.284L338.525 148.465Z" fill="#FCD8B9"/>
<path d="M404.424 58.99C404.424 58.99 398.424 61.8193 397.04 77.3481C395.656 92.8769 391.801 102.336 391.801 102.336C391.801 102.336 396.38 105.946 400.718 104.541C405.056 103.135 406.579 103.015 406.686 96.5938C406.792 90.1724 411.204 60.5341 411.204 60.5341L404.424 58.99Z" fill="#3B2C24"/>
<path d="M415.533 67.1174C412.477 67.2446 409.525 68.2592 407.041 70.036C404.557 71.8128 402.65 74.2743 401.554 77.1171C400.353 75.2754 399.612 73.1738 399.394 70.9885C399.177 68.8032 399.489 66.5978 400.304 64.5572C401.119 62.5166 402.413 60.7001 404.079 59.2602C405.744 57.8202 407.732 56.7986 409.876 56.281C412.969 59.0742 414.838 62.9631 415.082 67.1128L415.533 67.1174Z" fill="#3B2C24"/>
<path d="M402.037 71.8652C408.85 57.0714 427.607 64.5746 430.05 78.5085C431.443 86.4324 427.212 100.2 417.711 100.329C417.246 101.67 416.41 104.199 415.129 104.855C413.735 105.567 410.387 103.732 409.063 103.061C408.68 102.902 408.348 102.641 408.102 102.308C407.837 101.869 408.014 100.921 408.269 99.8531C407.21 99.519 406.197 99.053 405.255 98.4662C401.108 95.868 398.874 90.889 398.656 85.984C398.438 81.0789 399.989 76.3079 402.037 71.8652Z" fill="#FCD8B9"/>
<path d="M410.262 56.3319C410.262 56.3319 406.286 64.2743 416.499 69.2765C426.711 74.2786 431.615 84.4216 427.542 92.854C423.469 101.286 413.851 105.836 417.492 109.215C421.133 112.594 437.202 114.088 437.202 114.088C437.202 114.088 454.385 85.1104 445.097 68.4305C435.809 51.7505 417.636 46.7484 410.262 56.3319Z" fill="#3B2C24"/>
<path d="M146.469 37.6549C146.469 37.6549 142.429 38.0478 140.06 40.9927C137.692 43.9376 130.21 57.2936 130.308 67.663C130.405 78.0325 128.78 90.9123 149.376 99.8903C159.635 103.224 159.867 94.0745 168.073 93.5197C176.28 92.965 183.366 95.8312 182.242 83.1179C181.119 70.4045 173.057 67.5613 168.58 53.3871C164.103 39.2128 157.1 33.4895 146.469 37.6549Z" fill="#29816C"/>
<path d="M143.506 38.4731L125.26 44.6172L111.486 46.6097L111.69 52.5596L125.13 54.4319L139.582 51.6026L143.506 38.4731Z" fill="#29816C"/>
<path d="M160.545 36.8643L173.855 41.6676L185.02 37.7334L186.757 41.4596L176.224 49.0599L165.686 49.7718L160.545 36.8643Z" fill="#29816C"/>
<path d="M157.16 11.3357C157.16 11.3357 165.496 16.8002 164.739 25.0615C164.739 25.0615 170.2 20.6974 167.86 14.6227C165.519 8.54803 163.936 6.15792 158.177 7.43851C152.418 8.71909 157.16 11.3357 157.16 11.3357Z" fill="#3B2C24"/>
<path d="M164.651 20.4571C163.638 8.15514 148.304 8.65444 142.935 17.9652C139.879 23.2586 139.303 34.1736 146.051 36.7209C146.051 37.7981 145.968 39.8138 146.711 40.6135C147.454 41.4133 150.389 41.0389 151.508 40.9002C151.823 40.887 152.128 40.7878 152.39 40.6135C152.692 40.3639 152.818 39.6334 152.911 38.8152C153.756 38.8467 154.601 38.7722 155.428 38.5933C159.064 37.812 161.953 34.8347 163.383 31.4091C164.813 27.9834 164.957 24.1555 164.651 20.4571Z" fill="#FCD8B9"/>
<path d="M159.11 14.5719C154.815 19.0609 148.002 19.3475 143.91 23.7024C143.91 23.7024 141.235 26.5548 141.923 33.3415C139.732 33.3338 137.592 32.6874 135.766 31.4821C133.94 30.2768 132.509 28.5654 131.65 26.5595C128.52 19.4724 135.728 5.50613 135.728 5.50613C135.728 5.50613 144.18 -0.610152 155.265 1.98338C159.027 2.86175 162.417 5.68182 161.595 9.94889C161.237 11.698 160.373 13.3049 159.11 14.5719Z" fill="#3B2C24"/>
<path d="M143.358 38.6486C143.358 38.6486 142.517 44.8666 145.828 45.5832C149.14 46.2998 156.77 44.9036 158.084 43.7617C159.909 42.1806 158.084 37.6085 158.084 37.6085L160.541 36.9058C160.541 36.9058 171.9 59.9932 162.751 63.4605C153.603 66.9278 142.02 67.9079 140.125 60.6173C138.231 53.3268 140.938 39.6565 140.938 39.6565L143.358 38.6486Z" fill="#B5D6CA"/>
<path d="M111.504 47.2476L104.766 45.6711L104.459 47.0812L109.057 51.0108L107.905 51.7551L108.75 52.4254L111.662 51.6857L111.504 47.2476Z" fill="#FCD8B9"/>
<path d="M185.187 38.2142L186.924 36.0784L190.333 36.3141L191.247 38.9678L189.692 41.589L186.743 41.2747L185.187 38.2142Z" fill="#FCD8B9"/>
<path d="M212.225 192.064L213.906 263.597L201.464 355.998L191.048 356.122L183.459 271.086L168.194 186.142L212.225 192.064Z" fill="#3B2C24"/>
<path d="M191.094 354.888L191.164 360.491L202.491 365.965L208.054 360.292L202.356 354.754L191.094 354.888Z" fill="#3B2C24"/>
<path d="M155.66 357.588L164.614 365.165L162.375 369.622L145.81 366.053V357.588H155.66Z" fill="#3B2C24"/>
<path d="M176.112 220.205L168.668 289.537L158.85 358.647L144.844 357.985L145.355 286.291L136.921 219.793L156.723 210.612L176.112 220.205Z" fill="#3B2C24"/>
<path d="M184.37 92.7384C184.37 92.7384 201.664 104.125 212.657 141.049C223.853 178.653 222.2 228.397 222.2 228.397C222.2 228.397 123.816 244.971 125.854 228.656C125.854 228.656 122.603 96.8991 166.258 93.663C168.241 93.5151 183.297 91.9201 184.37 92.7384Z" fill="#29816C"/>
<path d="M180.19 96.4368C187.62 114.467 193.193 131.443 200.8 149.371C205.319 160.004 205.365 171.099 206.011 182.412L207.934 216.16C208.206 220.912 208.477 225.666 208.746 230.422L167.651 234.721C170.019 221.093 172.727 207.519 174.845 193.849C176.795 181.242 179.786 167.086 177.454 154.373C176.321 148.187 175.095 142.006 173.93 135.816C171.793 124.466 170.841 112.853 168.603 101.522C168.445 100.732 170.21 96.3074 170.461 95.5122L180.19 96.4368Z" fill="white"/>
<path d="M168.649 95.6786L168.677 97.8052L157.466 124.009L152.507 122.377L155.409 96.8714L163.123 92.5165C163.683 92.2048 164.316 92.043 164.958 92.0469C165.6 92.0509 166.23 92.2203 166.786 92.5388C167.343 92.8573 167.807 93.314 168.134 93.8642C168.46 94.4145 168.638 95.0396 168.649 95.6786Z" fill="#FCD8B9"/>
<path d="M158.117 123.708L160.796 128.507L158.702 129.714L152.154 125.368L152.59 121.887L158.117 123.708Z" fill="#3B2C24"/>
<path d="M190.003 87.3942L191.294 89.0908L197.893 116.806L192.929 118.419L180.06 96.1779L183.668 88.1153C183.933 87.533 184.346 87.029 184.865 86.6525C185.384 86.276 185.992 86.04 186.63 85.9673C187.268 85.8947 187.914 85.9879 188.505 86.238C189.097 86.4881 189.612 86.8864 190.003 87.3942Z" fill="#E0C5A9"/>
<path d="M198.241 116.639L203.252 118.919L202.291 121.124L194.429 121.494L192.706 118.438L198.241 116.639Z" fill="#3B2C24"/>
<path d="M180.018 97.1211L170.405 95.5816C170.531 93.0059 170.864 90.4444 171.399 87.9212C168.77 86.8209 165.751 85.2213 165.454 82.3967C165.408 81.5004 165.516 80.6029 165.775 79.743C166.629 76.1463 167.482 72.5465 168.334 68.9436C168.631 67.7 168.942 66.4194 169.694 65.3792C171.018 63.5624 173.41 62.8782 175.648 62.6285C181.369 61.9905 187.462 63.5855 191.624 67.5428C192.782 68.5527 193.652 69.8493 194.145 71.3014C194.805 73.562 194.062 75.9614 193.323 78.1943L191.28 84.38C190.5 86.7516 189.422 89.4329 187.026 90.1957C185.758 90.6026 184.305 90.3714 183.144 91.014C181.086 92.1467 181.174 95.0869 180.018 97.1211Z" fill="#FCD8B9"/>
<path d="M213.79 62.6884C213.97 60.2368 213.858 57.7724 213.455 55.347C212.838 51.3851 208.314 49.3371 204.325 48.8147C195.701 47.682 187.583 43.267 178.936 45.7496C173.995 47.1735 167.479 47.1874 162.951 49.3463C161.078 50.3057 159.468 51.7053 158.261 53.4239C156.142 56.3788 154.898 59.8659 154.669 63.4893C154.441 67.1127 155.238 70.7272 156.969 73.9224C157.779 75.3297 158.711 76.6632 159.756 77.9075C161.888 80.5103 164.433 83.7187 167.516 84.819C167.762 82.0451 165.742 73.0579 168.036 70.899C171.682 67.4687 179.345 69.2069 183.538 70.3581C188.108 71.6155 192.037 75.129 196.588 76.1045C199.862 76.8072 204.176 75.448 207.088 73.9178C211.649 71.5231 213.395 67.2005 213.79 62.6884Z" fill="#3B2C24"/>
<path d="M155.576 96.8992L104.492 128.336L115.173 145.441L146.753 130.647L155.576 96.8992Z" fill="#29816C"/>
<path d="M139.178 83.7141L104.417 128.345L115.173 145.552L127.247 139.893L146.929 89.308L139.178 83.7141Z" fill="#0D6545"/>
<path d="M140.711 84.8191L145.359 78.8692L156.505 77.02L158.363 81.6431L152.79 86.2661L145.736 88.4482L140.711 84.8191Z" fill="#FCD8B9"/>
<path d="M296.767 112.665L291.015 104.708L293.196 113.403C293.63 115.112 293.679 116.876 293.369 118.633C293.257 119.24 293.11 119.758 292.936 120.338C292.094 122.669 290.832 125.475 289.787 127.429C289.194 128.485 288.444 129.402 287.562 130.118L279.733 136.461L295.816 143.275L294.656 136.102C294.209 133.225 294.779 130.343 296.269 127.852C299.737 122.058 305.399 117.412 311.151 113.748L322.922 107.841L303.533 114.297C300.496 114.971 298.937 114.892 296.767 112.665Z" fill="#19897C"/>
<path d="M304.196 110.511C303.492 112.173 301.655 112.92 299.971 112.279C298.314 111.577 297.511 109.712 298.19 108.111C298.894 106.448 300.757 105.64 302.415 106.342C304.098 106.983 304.901 108.848 304.196 110.511Z" fill="#19897C"/>
<path d="M285.231 115.112C286.384 115.601 287.715 115.059 288.205 113.903C288.695 112.747 288.158 111.414 287.005 110.925C285.853 110.437 284.521 110.978 284.031 112.135C283.541 113.291 284.078 114.624 285.231 115.112Z" fill="#19897C"/>
<path d="M274.747 94.4011C276.798 97.594 279.453 110.122 282.542 115.135C285.262 119.483 288.371 116.588 290.484 114.506C289.052 118.911 281.133 130.081 277.945 133.161C278.776 129.663 279.631 119.785 278.767 112.083C277.902 103.873 275.231 97.8743 274.747 94.4011Z" fill="#19897C"/>
<path d="M269.804 81.1211L273.06 83.5177C277.231 87.1735 279.684 90.61 280.287 96.0222L280.261 101.894L277.066 96.6183C277.031 96.5307 276.969 96.5048 276.934 96.4172L273.486 91.3972L274.37 97.0011C274.414 97.2378 274.424 97.387 274.494 97.5622L276.107 103.838L271.057 99.0108C265.847 93.5349 267.231 87.8753 269.804 81.1211Z" fill="#19897C"/>
<path d="M279.823 78.3214L281.325 79.9022C282.435 81.8976 282.983 83.5097 282.49 85.6977L281.735 87.9925L281.193 85.5114L281.158 85.4238L280.441 83.0139L280.045 85.3155C280.019 85.3771 280.028 85.5263 280.002 85.5879L279.809 88.2658L277.954 85.8092C276.675 83.016 277.816 80.6666 279.674 78.331" fill="#19897C"/>
<path d="M289.954 83.6312L290.208 86.2806C289.839 89.0297 289.101 91.1137 286.908 92.8718L284.294 94.5969L285.643 91.7549C285.669 91.6934 285.669 91.6933 285.696 91.6318L286.834 88.7733L284.598 90.8037C284.485 90.9008 284.459 90.9624 284.345 91.0596L282.049 93.573L282.056 89.7989C282.903 86.0905 285.859 84.583 289.657 83.6504" fill="#19897C"/>
<path d="M259.168 100.582L261.154 99.8261C263.403 99.472 265.121 99.6912 266.964 100.981L268.799 102.63L266.293 102.222L266.232 102.196L263.735 101.937L265.727 103.216C265.788 103.242 265.911 103.294 265.972 103.32L268.349 104.546L265.348 105.307C262.248 105.446 260.543 103.489 259.125 100.855" fill="#19897C"/>
<path d="M253.237 91.1694L255.58 89.9109C258.284 89.1682 260.465 89.148 262.913 90.5483L265.475 92.3605L262.322 92.1137C262.26 92.0877 262.26 92.0877 262.173 92.1233L259.064 92.1132L261.774 93.4068C261.897 93.4588 262.019 93.5108 262.081 93.5368L265.264 94.7402L261.765 96.1628C257.974 96.7356 255.506 94.5279 253.22 91.3802" fill="#19897C"/>
<path d="M289.625 96.7105L289.429 98.3703C288.998 100.584 288.319 102.185 286.581 103.555L284.535 104.794L285.71 102.533L285.737 102.471L286.763 100.219L284.972 101.711C284.885 101.747 284.859 101.808 284.833 101.87L282.947 103.758L283.551 100.964C284.409 97.9139 286.728 97.2259 289.625 96.7105Z" fill="#19897C"/>
<path d="M335.358 102.071L331.371 101.398C325.844 100.945 321.668 101.572 317.36 104.904L313.16 109.007L319.173 107.632C319.26 107.597 319.321 107.623 319.409 107.587L325.414 106.573L320.773 109.836C320.572 109.969 320.458 110.066 320.283 110.137L314.653 113.344L321.634 113.614C329.166 113.61 332.269 108.679 335.358 102.071Z" fill="#19897C"/>
<path d="M330.374 92.9867L328.194 93.0069C325.988 93.5977 324.449 94.3254 323.22 96.2014L322.096 98.3401L324.256 97.0034L324.343 96.9679L326.573 95.8064L325.195 97.6919C325.169 97.7535 325.055 97.8506 325.029 97.9122L323.24 99.9139L326.295 99.5381C329.191 98.5136 330.086 96.0601 330.471 93.1003" fill="#19897C"/>
<path d="M319.512 89.4011L317.433 91.0621C315.714 93.239 314.73 95.2189 314.993 98.0174L315.571 101.095L316.675 98.149C316.701 98.0874 316.701 98.0875 316.727 98.0259L317.988 95.2194L318.085 98.2382C318.094 98.3874 318.068 98.4489 318.077 98.5981L317.868 101.996L320.575 99.3662C322.65 96.1781 321.678 93.0059 319.706 89.6283" fill="#19897C"/>
<path d="M328.748 123.311L327.91 121.358C326.6 119.495 325.248 118.414 323.039 117.987L320.578 117.815L322.614 119.332L322.676 119.358L324.598 120.972L322.293 120.431C322.232 120.405 322.109 120.353 322.048 120.327L319.514 119.471L321.055 122.157C323.111 124.481 325.703 124.345 328.582 123.531" fill="#19897C"/>
<path d="M339.636 121.024L338.91 118.465C337.563 116.006 336.061 114.425 333.352 113.641L330.268 113.06L332.638 115.154C332.7 115.18 332.7 115.18 332.735 115.268L334.905 117.495L332.09 116.447C331.968 116.395 331.845 116.343 331.784 116.317L328.705 114.868L330.117 118.371C332.342 121.493 335.644 121.73 339.496 121.183" fill="#19897C"/>
<path d="M310.37 98.6734L309.314 99.9692C308.024 101.819 307.345 103.42 307.571 105.622L308.103 107.954L308.911 105.536L308.937 105.474L309.841 103.17L310.014 105.495C310.049 105.583 310.023 105.644 309.997 105.706L309.953 108.374L311.539 105.996C313.134 103.258 312.015 101.114 310.37 98.6734Z" fill="#19897C"/>
</g>
<defs>
<clipPath id="clip0_50_1178">
<rect width="548" height="390" fill="white"/>
</clipPath>
</defs>
</svg>
