<svg width="757" height="454" viewBox="0 0 757 454" fill="none" xmlns="http://www.w3.org/2000/svg">
<path d="M69 257.314H121.567V296.971V305.325L113.543 296.971H69V257.314Z" fill="#FFCE55"/>
<path d="M101.767 271.716C101.509 271.446 101.22 271.208 100.906 271.007C100.484 270.734 100.044 270.492 99.5867 270.284C99.0551 270.041 98.5048 269.841 97.9412 269.687C97.3393 269.521 96.7227 269.415 96.1002 269.371L96.0779 276.155L96.6965 276.287C97.7731 276.546 98.8339 276.868 99.8737 277.25C100.731 277.555 101.538 277.989 102.267 278.536C102.907 279.028 103.424 279.664 103.776 280.393C104.155 281.231 104.336 282.145 104.305 283.064C104.332 284.089 104.117 285.104 103.677 286.029C103.267 286.837 102.674 287.537 101.945 288.073C101.178 288.634 100.315 289.048 99.3986 289.294C98.3825 289.57 97.3357 289.714 96.2833 289.724V293.166H94.5883V289.66C93.0668 289.553 91.5676 289.234 90.1342 288.71C88.7382 288.2 87.4312 287.471 86.2617 286.551L87.9344 283.41C88.2465 283.735 88.5953 284.022 88.9737 284.266C89.4824 284.603 90.016 284.9 90.5697 285.156C91.2187 285.458 91.8886 285.712 92.5741 285.917C93.3133 286.14 94.0711 286.296 94.8382 286.382L94.8605 279.597C94.7293 279.553 94.5932 279.515 94.4522 279.481C94.3149 279.45 94.1795 279.412 94.0464 279.366C93.0249 279.096 92.0194 278.768 91.0349 278.384C90.2608 278.09 89.5402 277.67 88.902 277.14C88.3544 276.679 87.9165 276.1 87.6202 275.447C87.31 274.706 87.1623 273.907 87.1872 273.104C87.171 272.124 87.3633 271.153 87.7513 270.254C88.1154 269.434 88.6514 268.703 89.3226 268.11C90.0197 267.5 90.8235 267.025 91.6931 266.71C92.6541 266.362 93.6584 266.15 94.6773 266.081V262.771H96.3724V266.081C97.7133 266.157 99.0333 266.449 100.282 266.946C101.404 267.388 102.465 267.973 103.439 268.687L101.767 271.716ZM91.0028 272.532C91.0028 273.449 91.3212 274.139 91.9579 274.601C92.5947 275.064 93.5663 275.471 94.8728 275.822L94.8926 269.356C93.5729 269.419 92.5938 269.727 91.9554 270.281C91.6394 270.561 91.3898 270.908 91.225 271.298C91.0601 271.687 90.9842 272.109 91.0028 272.532ZM100.391 283.445C100.413 283.012 100.32 282.582 100.121 282.197C99.9216 281.813 99.6235 281.49 99.2576 281.261C98.2615 280.667 97.1869 280.216 96.0655 279.923L96.0457 286.414C97.4364 286.396 98.5086 286.137 99.2625 285.638C99.6254 285.404 99.9207 285.078 100.119 284.693C100.317 284.308 100.411 283.878 100.391 283.445Z" fill="white"/>
<path d="M704.434 209.187H757.001V248.844V257.198L748.976 248.844H704.434V209.187Z" fill="#FFCE55"/>
<path d="M737.2 223.589C736.943 223.319 736.654 223.08 736.339 222.88C735.918 222.606 735.477 222.365 735.02 222.157C734.489 221.913 733.938 221.714 733.375 221.56C732.773 221.394 732.156 221.288 731.534 221.244L731.511 228.028L732.13 228.16C733.207 228.419 734.268 228.741 735.307 229.123C736.165 229.428 736.971 229.861 737.7 230.408C738.34 230.901 738.857 231.537 739.21 232.266C739.588 233.104 739.77 234.018 739.739 234.937C739.766 235.961 739.55 236.977 739.111 237.902C738.7 238.71 738.107 239.41 737.378 239.946C736.611 240.506 735.748 240.92 734.832 241.167C733.816 241.443 732.769 241.587 731.717 241.597V245.039H730.022V241.533C728.5 241.426 727.001 241.106 725.568 240.583C724.172 240.073 722.865 239.344 721.695 238.424L723.368 235.283C723.68 235.608 724.029 235.895 724.407 236.138C724.916 236.476 725.45 236.773 726.003 237.029C726.652 237.331 727.322 237.585 728.008 237.79C728.747 238.013 729.505 238.169 730.272 238.255L730.294 231.47C730.163 231.426 730.027 231.388 729.886 231.353C729.749 231.323 729.613 231.284 729.48 231.239C728.458 230.969 727.453 230.641 726.469 230.257C725.694 229.963 724.974 229.543 724.336 229.013C723.788 228.552 723.35 227.973 723.054 227.319C722.744 226.579 722.596 225.78 722.621 224.977C722.605 223.997 722.797 223.025 723.185 222.127C723.549 221.307 724.085 220.575 724.756 219.983C725.453 219.373 726.257 218.898 727.127 218.583C728.088 218.235 729.092 218.023 730.111 217.953V214.643H731.806V217.953C733.147 218.03 734.467 218.322 735.716 218.819C736.838 219.261 737.899 219.846 738.873 220.56L737.2 223.589ZM726.436 224.405C726.436 225.322 726.755 226.011 727.392 226.474C728.028 226.936 729 227.344 730.306 227.695L730.326 221.229C729.007 221.292 728.027 221.6 727.389 222.154C727.073 222.434 726.823 222.781 726.659 223.171C726.494 223.56 726.418 223.982 726.436 224.405ZM735.824 235.318C735.847 234.885 735.754 234.454 735.555 234.07C735.355 233.686 735.057 233.363 734.691 233.134C733.695 232.539 732.62 232.089 731.499 231.796L731.479 238.287C732.87 238.269 733.942 238.01 734.696 237.511C735.059 237.277 735.354 236.951 735.552 236.566C735.75 236.181 735.844 235.751 735.824 235.318Z" fill="white"/>
<path d="M86.3441 76.3507C86.02 75.4854 85.5927 74.6629 85.0714 73.9013C84.3829 72.8707 83.6174 71.8942 82.7817 70.9803C81.8142 69.9135 80.7612 68.9284 79.6333 68.0348C78.4309 67.0703 77.1355 66.2292 75.7665 65.5241L69.2018 80.8699L70.4746 81.7701C72.6615 83.4039 74.7537 85.1622 76.7408 87.0364C78.3873 88.5604 79.7956 90.3255 80.9182 92.2722C81.8976 94.0075 82.4587 95.9497 82.5564 97.9426C82.6019 100.209 82.1333 102.456 81.1862 104.513C80.2656 106.864 78.8049 108.962 76.9235 110.637C75.2303 112.07 73.2256 113.084 71.0713 113.595C68.7948 114.121 66.4411 114.218 64.1292 113.882C61.5639 113.524 59.0549 112.837 56.6634 111.837L53.3323 119.62L49.4959 117.961L52.8939 110.031C49.5433 108.31 46.4483 106.128 43.6986 103.546C41.0255 101.035 38.7646 98.1148 37 94.8931L43.8021 89.3818C44.1976 90.4205 44.7126 91.409 45.3367 92.3273C46.1645 93.5843 47.0867 94.7757 48.0952 95.8912C49.2689 97.2096 50.5391 98.4378 51.8952 99.5654C53.3517 100.79 54.9149 101.88 56.5659 102.823L63.1366 87.5141C62.8797 87.2798 62.6092 87.061 62.3267 86.8589C62.0404 86.6445 61.7725 86.4241 61.5168 86.1975C59.4606 84.5985 57.4966 82.8832 55.6342 81.0598C54.1576 79.6508 52.923 78.0058 51.9804 76.1915C51.1809 74.615 50.7439 72.878 50.7016 71.1089C50.7134 69.1288 51.1474 67.1742 51.9743 65.3772C52.8821 63.1448 54.2523 61.1325 55.9935 59.474C57.6059 57.973 59.5208 56.8389 61.6081 56.1488C63.768 55.4431 66.0392 55.1462 68.3067 55.2732C70.8164 55.4237 73.2937 55.9203 75.669 56.749L78.8721 49.2659L82.7086 50.9254L79.4994 58.4085C82.462 59.8829 85.1698 61.8264 87.5194 64.1647C89.6343 66.2635 91.4759 68.6236 93 71.1885L86.3441 76.3507ZM61.1879 67.747C60.2988 69.825 60.3577 71.6967 61.3645 73.3624C62.3713 75.028 64.18 76.8937 66.7904 78.9594L73.0383 64.3545C69.9813 63.2073 67.4684 62.9542 65.4994 63.5952C64.5197 63.9227 63.6246 64.4651 62.879 65.1832C62.1333 65.9012 61.5557 66.7769 61.1879 67.747ZM71.9605 101.598C72.4251 100.64 72.6262 99.5742 72.5427 98.5113C72.4591 97.4484 72.0941 96.4275 71.4854 95.5544C69.8049 93.2406 67.8058 91.1788 65.5481 89.4308L59.2636 104.128C62.4302 105.438 65.1056 105.893 67.2897 105.493C68.3389 105.311 69.3223 104.856 70.1418 104.172C70.9614 103.489 71.5884 102.602 71.9605 101.598Z" fill="#FFCE55"/>
<path d="M362.098 240.931C362.006 240.684 361.884 240.449 361.735 240.231C361.538 239.937 361.319 239.658 361.08 239.396C360.804 239.092 360.503 238.81 360.181 238.555C359.837 238.279 359.467 238.039 359.076 237.838L357.201 242.222L357.564 242.479C358.189 242.946 358.787 243.448 359.355 243.984C359.825 244.419 360.227 244.924 360.548 245.48C360.828 245.976 360.988 246.531 361.016 247.1C361.029 247.748 360.895 248.39 360.625 248.977C360.362 249.649 359.944 250.249 359.407 250.727C358.923 251.137 358.35 251.426 357.735 251.572C357.084 251.722 356.412 251.75 355.751 251.654C355.018 251.552 354.301 251.356 353.618 251.07L352.666 253.294L351.57 252.82L352.541 250.554C351.584 250.062 350.7 249.439 349.914 248.701C349.15 247.984 348.504 247.149 348 246.229L349.943 244.654C350.056 244.951 350.204 245.233 350.382 245.496C350.618 245.855 350.882 246.195 351.17 246.514C351.505 246.891 351.868 247.241 352.256 247.564C352.672 247.914 353.119 248.225 353.59 248.494L355.468 244.12C355.394 244.054 355.317 243.991 355.236 243.933C355.154 243.872 355.078 243.809 355.005 243.744C354.417 243.287 353.856 242.797 353.324 242.276C352.902 241.874 352.549 241.404 352.28 240.885C352.052 240.435 351.927 239.939 351.915 239.433C351.918 238.867 352.042 238.309 352.278 237.796C352.538 237.158 352.929 236.583 353.427 236.109C353.887 235.68 354.435 235.356 355.031 235.159C355.648 234.957 356.297 234.872 356.945 234.909C357.662 234.952 358.37 235.094 359.048 235.33L359.963 233.192L361.06 233.667L360.143 235.805C360.989 236.226 361.763 236.781 362.434 237.449C363.038 238.049 363.565 238.723 364 239.456L362.098 240.931ZM354.911 238.473C354.657 239.066 354.674 239.601 354.961 240.077C355.249 240.553 355.766 241.086 356.512 241.676L358.297 237.503C357.423 237.176 356.705 237.103 356.143 237.286C355.863 237.38 355.607 237.535 355.394 237.74C355.181 237.945 355.016 238.196 354.911 238.473ZM357.989 248.145C358.121 247.871 358.179 247.566 358.155 247.263C358.131 246.959 358.027 246.667 357.853 246.418C357.373 245.757 356.802 245.167 356.157 244.668L354.361 248.867C355.266 249.242 356.03 249.372 356.654 249.257C356.954 249.205 357.235 249.075 357.469 248.88C357.703 248.685 357.882 248.431 357.989 248.145Z" fill="#FFCE55"/>
<path d="M549.124 52.4052C558.719 42.761 558.719 27.1245 549.124 17.4802C539.528 7.83597 523.97 7.83598 514.375 17.4803C504.779 27.1245 504.779 42.761 514.375 52.4052C523.97 62.0495 539.528 62.0495 549.124 52.4052Z" fill="#F8BB66"/>
<path d="M537.431 58.97L528.953 10.4107C541.778 8.92099 553.691 17.7312 555.951 30.6787C558.211 43.6263 549.996 55.9784 537.431 58.97Z" fill="#F8BB66"/>
<path d="M507.548 39.211C505.559 27.8239 511.675 16.892 521.725 12.3899L529.963 59.5791C518.989 58.7848 509.536 50.598 507.548 39.211Z" fill="#F8BB66"/>
<path d="M544.954 48.2149C552.247 40.8848 552.247 29.0004 544.954 21.6704C537.661 14.3404 525.836 14.3404 518.543 21.6704C511.25 29.0005 511.25 40.8848 518.543 48.2148C525.836 55.5449 537.661 55.5449 544.954 48.2149Z" fill="#F89829"/>
<path d="M532.616 28.4276C532.305 28.4008 531.992 28.4123 531.685 28.4618C531.27 28.5226 530.86 28.6148 530.459 28.7375C529.991 28.8802 529.536 29.0605 529.098 29.2768C528.627 29.5059 528.179 29.7813 527.762 30.0992L531.476 34.3695L531.938 34.1084C532.757 33.6737 533.599 33.2871 534.462 32.9505C535.168 32.6666 535.913 32.4913 536.671 32.4307C537.344 32.3848 538.018 32.4972 538.64 32.7589C539.267 33.0225 539.867 33.4845 540.442 34.145C541.076 34.877 541.486 35.6139 541.674 36.3558C541.862 37.088 541.877 37.8544 541.717 38.5934C541.543 39.3716 541.228 40.1109 540.787 40.7737C540.3 41.5113 539.722 42.1837 539.067 42.7746L540.949 44.9427L539.881 45.8809L537.964 43.675C536.948 44.4548 535.829 45.088 534.638 45.5564C533.481 46.0116 532.259 46.2793 531.018 46.3494L530.344 43.4469C530.719 43.4786 531.097 43.4654 531.469 43.4078C531.973 43.3374 532.471 43.2285 532.959 43.0821C533.533 42.9118 534.093 42.6998 534.636 42.4476C535.223 42.1779 535.785 41.8553 536.315 41.4838L532.601 37.2135C532.496 37.2574 532.389 37.3086 532.282 37.366C532.175 37.4233 532.068 37.4746 531.963 37.5185C531.174 37.9183 530.364 38.2719 529.535 38.5775C528.888 38.8229 528.206 38.9601 527.516 38.9838C526.919 38.9981 526.326 38.878 525.781 38.6324C525.179 38.3387 524.647 37.9179 524.221 37.3989C523.673 36.7925 523.259 36.0754 523.007 35.2955C522.787 34.5788 522.722 33.8226 522.819 33.0786C522.921 32.3081 523.164 31.5634 523.537 30.8825C523.95 30.1306 524.465 29.4399 525.067 28.8303L523.255 26.7452L524.325 25.8069L526.136 27.8933C527.02 27.1973 528.01 26.6482 529.067 26.2669C530.017 25.9235 531.006 25.7037 532.011 25.6129L532.616 28.4276ZM526.303 34.9148C526.806 35.4931 527.384 35.7494 528.039 35.6835C528.694 35.6176 529.528 35.3329 530.542 34.8294L527.009 30.7605C526.208 31.5356 525.763 32.2729 525.673 32.9725C525.583 33.672 525.793 34.3194 526.301 34.9148H526.303ZM538.2 36.5607C537.673 35.9547 537.036 35.7071 536.288 35.8177C535.54 35.9283 534.626 36.2386 533.547 36.7486L537.099 40.8371C537.963 40.0546 538.494 39.2978 538.693 38.5665C538.891 37.8353 538.725 37.1667 538.195 36.5607H538.2Z" fill="#F8C681"/>
<g style="mix-blend-mode:soft-light">
<path d="M541.281 57.7097C551.623 53.3479 557.971 42.2463 555.951 30.6751C553.931 19.1038 544.201 10.8353 533 10.274L541.281 57.7097Z" fill="#F8F8F8"/>
</g>
<g style="mix-blend-mode:soft-light">
<path d="M529.962 59.579L521.725 12.3899C523.571 11.5631 525.512 10.9681 527.503 10.6183C527.989 10.537 528.472 10.4666 528.952 10.4072L537.431 58.9665C536.958 59.0788 536.48 59.178 535.996 59.2642C534.005 59.6179 531.979 59.7236 529.962 59.579Z" fill="#F8F8F8"/>
</g>
<path d="M532.714 13.4427H532.707C532.734 13.4537 532.739 13.4549 532.714 13.4427Z" fill="#323657"/>
<path d="M556.376 266.738C565.835 257.232 565.835 241.819 556.376 232.313C546.918 222.807 531.584 222.807 522.125 232.313C512.667 241.819 512.667 257.232 522.125 266.738C531.584 276.244 546.918 276.244 556.376 266.738Z" fill="#F8BB66"/>
<path d="M544.851 273.209L536.494 225.345C549.136 223.877 560.877 232.561 563.105 245.323C565.333 258.085 557.235 270.26 544.851 273.209Z" fill="#F8BB66"/>
<path d="M515.396 253.733C513.436 242.509 519.464 231.734 529.37 227.296L537.49 273.809C526.673 273.026 517.356 264.956 515.396 253.733Z" fill="#F8BB66"/>
<path d="M552.267 262.608C559.456 255.383 559.456 243.669 552.267 236.444C545.078 229.219 533.423 229.219 526.235 236.444C519.046 243.669 519.046 255.383 526.235 262.608C533.423 269.833 545.078 269.833 552.267 262.608Z" fill="#F89829"/>
<path d="M540.105 243.104C539.799 243.078 539.491 243.089 539.188 243.138C538.779 243.198 538.375 243.289 537.979 243.41C537.519 243.55 537.07 243.728 536.638 243.941C536.174 244.167 535.733 244.438 535.322 244.752L538.982 248.961L539.438 248.703C540.244 248.275 541.075 247.894 541.925 247.562C542.622 247.282 543.356 247.11 544.103 247.05C544.766 247.005 545.431 247.115 546.044 247.373C546.661 247.633 547.253 248.088 547.82 248.739C548.444 249.461 548.849 250.187 549.034 250.919C549.219 251.64 549.234 252.396 549.076 253.124C548.905 253.891 548.594 254.62 548.159 255.273C547.68 256 547.11 256.663 546.464 257.245L548.32 259.382L547.267 260.307L545.377 258.133C544.376 258.901 543.272 259.526 542.099 259.987C540.958 260.436 539.754 260.7 538.531 260.769L537.867 257.908C538.236 257.939 538.608 257.926 538.975 257.87C539.472 257.8 539.963 257.693 540.444 257.548C541.009 257.381 541.562 257.172 542.097 256.923C542.676 256.657 543.229 256.339 543.751 255.973L540.091 251.764C539.987 251.807 539.882 251.858 539.776 251.914C539.671 251.971 539.566 252.021 539.462 252.065C538.685 252.459 537.886 252.807 537.069 253.108C536.432 253.35 535.759 253.486 535.079 253.509C534.49 253.523 533.906 253.405 533.369 253.163C532.776 252.873 532.251 252.458 531.831 251.947C531.291 251.349 530.883 250.642 530.635 249.873C530.417 249.167 530.354 248.422 530.449 247.688C530.549 246.929 530.789 246.195 531.157 245.524C531.564 244.783 532.072 244.102 532.665 243.501L530.879 241.446L531.933 240.521L533.718 242.577C534.59 241.891 535.566 241.35 536.608 240.974C537.544 240.636 538.519 240.419 539.51 240.33L540.105 243.104ZM533.884 249.498C534.379 250.068 534.949 250.321 535.595 250.256C536.24 250.191 537.062 249.91 538.062 249.414L534.579 245.403C533.79 246.168 533.351 246.894 533.263 247.584C533.174 248.273 533.38 248.911 533.881 249.498H533.884ZM545.61 251.121C545.09 250.523 544.462 250.279 543.725 250.388C542.988 250.497 542.087 250.803 541.023 251.306L544.524 255.336C545.376 254.564 545.9 253.818 546.095 253.098C546.291 252.377 546.127 251.718 545.605 251.121H545.61Z" fill="#F8C681"/>
<g style="mix-blend-mode:soft-light">
<path d="M548.647 271.966C558.84 267.667 565.097 256.725 563.106 245.319C561.115 233.914 551.525 225.764 540.484 225.211L548.647 271.966Z" fill="#F8F8F8"/>
</g>
<g style="mix-blend-mode:soft-light">
<path d="M537.491 273.809L529.371 227.296C531.191 226.481 533.104 225.895 535.067 225.55C535.545 225.47 536.021 225.4 536.495 225.342L544.852 273.205C544.386 273.316 543.915 273.414 543.438 273.499C541.476 273.847 539.478 273.951 537.491 273.809Z" fill="#F8F8F8"/>
</g>
<path d="M540.202 228.334H540.195C540.222 228.345 540.226 228.346 540.202 228.334Z" fill="#323657"/>
<path d="M291.124 96.628C300.719 86.9838 300.719 71.3473 291.124 61.703C281.528 52.0587 265.97 52.0588 256.375 61.703C246.779 71.3473 246.779 86.9837 256.375 96.628C265.97 106.272 281.528 106.272 291.124 96.628Z" fill="#F8BB66"/>
<path d="M279.431 103.193L270.953 54.6335C283.778 53.1438 295.691 61.954 297.951 74.9015C300.211 87.849 291.996 100.201 279.431 103.193Z" fill="#F8BB66"/>
<path d="M249.548 83.4338C247.559 72.0467 253.675 61.1148 263.725 56.6127L271.963 103.802C260.989 103.008 251.536 94.8208 249.548 83.4338Z" fill="#F8BB66"/>
<path d="M286.954 92.4376C294.247 85.1076 294.247 73.2232 286.954 65.8932C279.661 58.5631 267.836 58.5631 260.543 65.8932C253.25 73.2232 253.25 85.1076 260.543 92.4376C267.836 99.7677 279.661 99.7677 286.954 92.4376Z" fill="#F89829"/>
<path d="M274.616 72.6504C274.305 72.6236 273.992 72.635 273.685 72.6846C273.27 72.7454 272.86 72.8376 272.459 72.9603C271.991 73.1029 271.536 73.2833 271.098 73.4996C270.627 73.7287 270.179 74.0041 269.762 74.3219L273.476 78.5922L273.938 78.3311C274.757 77.8965 275.599 77.5099 276.462 77.1733C277.168 76.8893 277.913 76.7141 278.671 76.6535C279.344 76.6076 280.018 76.72 280.64 76.9817C281.267 77.2453 281.867 77.7073 282.442 78.3677C283.076 79.0998 283.486 79.8367 283.674 80.5785C283.862 81.3108 283.877 82.0772 283.717 82.8162C283.543 83.5944 283.228 84.3337 282.787 84.9964C282.3 85.7341 281.722 86.4065 281.067 86.9974L282.949 89.1655L281.881 90.1037L279.964 87.8978C278.948 88.6775 277.829 89.3108 276.638 89.7792C275.481 90.2344 274.259 90.5021 273.018 90.5722L272.344 87.6697C272.719 87.7013 273.097 87.6882 273.469 87.6306C273.973 87.5601 274.471 87.4512 274.959 87.3049C275.533 87.1346 276.093 86.9226 276.636 86.6704C277.223 86.4007 277.785 86.0781 278.315 85.7065L274.601 81.4362C274.496 81.4802 274.389 81.5314 274.282 81.5887C274.175 81.6461 274.068 81.6973 273.963 81.7413C273.174 82.1411 272.364 82.4947 271.535 82.8003C270.888 83.0457 270.206 83.1829 269.516 83.2066C268.919 83.2209 268.326 83.1008 267.781 82.8552C267.179 82.5614 266.647 82.1407 266.221 81.6217C265.673 81.0153 265.259 80.2982 265.007 79.5183C264.787 78.8016 264.722 78.0453 264.819 77.3014C264.921 76.5309 265.164 75.7862 265.537 75.1052C265.95 74.3533 266.465 73.6627 267.067 73.0531L265.255 70.9679L266.325 70.0297L268.136 72.116C269.02 71.42 270.01 70.8709 271.067 70.4897C272.017 70.1462 273.006 69.9265 274.011 69.8357L274.616 72.6504ZM268.303 79.1376C268.806 79.7159 269.384 79.9721 270.039 79.9063C270.694 79.8404 271.528 79.5557 272.542 79.0522L269.009 74.9832C268.208 75.7584 267.763 76.4957 267.673 77.1952C267.583 77.8947 267.793 78.5422 268.301 79.1376H268.303ZM280.2 80.7835C279.673 80.1775 279.036 79.9298 278.288 80.0405C277.54 80.1511 276.626 80.4614 275.547 80.9714L279.099 85.0599C279.963 84.2774 280.494 83.5206 280.693 82.7893C280.891 82.0581 280.725 81.3895 280.195 80.7835H280.2Z" fill="#F8C681"/>
<g style="mix-blend-mode:soft-light">
<path d="M283.281 101.932C293.623 97.5706 299.971 86.4691 297.951 74.8978C295.931 63.3266 286.201 55.0581 275 54.4968L283.281 101.932Z" fill="#F8F8F8"/>
</g>
<g style="mix-blend-mode:soft-light">
<path d="M271.962 103.802L263.725 56.6126C265.571 55.7859 267.512 55.1909 269.503 54.8411C269.989 54.7597 270.472 54.6894 270.952 54.63L279.431 103.189C278.958 103.302 278.48 103.401 277.996 103.487C276.005 103.841 273.979 103.946 271.962 103.802Z" fill="#F8F8F8"/>
</g>
<path d="M274.714 57.6655H274.707C274.734 57.6765 274.739 57.6777 274.714 57.6655Z" fill="#323657"/>
<path d="M660 306.562L672.467 299.527V304.166H691V308.958H672.467V313.597L660 306.562Z" fill="#FFCE55"/>
<path d="M691 290.48L678.533 297.516V292.876H660V288.083H678.533V283.446L691 290.48Z" fill="#FFCE55"/>
<path d="M717.099 136.895C714.605 136.73 712.229 135.768 710.317 134.151C709.321 133.331 708.517 132.301 707.96 131.135C707.403 129.969 707.107 128.694 707.093 127.401C706.741 122.377 705.182 117.184 703.896 113.626C700.022 110.526 697.217 106.28 695.878 101.49C694.54 96.6988 694.735 91.606 696.437 86.9331C698.139 82.2601 701.261 78.244 705.36 75.4538C709.46 72.6636 714.329 71.241 719.278 71.3875C724.227 71.534 729.005 73.2421 732.934 76.2699C736.863 79.2977 739.744 83.4915 741.17 88.257C742.595 93.0226 742.492 98.1181 740.875 102.821C739.258 107.525 736.21 111.597 732.161 114.462C730.4 119.269 729.343 123.674 729.017 127.551C728.959 132.765 724.022 136.971 718.006 136.931C717.694 136.931 717.394 136.917 717.099 136.895ZM720.222 73.3762C715.582 73.0223 710.953 74.18 707.019 76.6778C703.086 79.1755 700.058 82.8803 698.383 87.2434C696.709 91.6064 696.478 96.3955 697.724 100.901C698.969 105.407 701.626 109.389 705.301 112.258L705.521 112.426L705.613 112.687C706.961 116.374 708.648 121.903 709.022 127.294V127.378C709.032 128.398 709.266 129.403 709.708 130.322C710.149 131.24 710.787 132.049 711.576 132.69C713.38 134.202 715.658 135.021 718.006 135.001C722.987 135.036 727.061 131.672 727.092 127.507V127.432C727.436 123.293 728.568 118.61 730.457 113.51L730.563 113.223L730.814 113.05C734.514 110.507 737.338 106.871 738.895 102.646C740.452 98.4204 740.665 93.8133 739.505 89.4608C738.345 85.1084 735.868 81.2254 732.418 78.3481C728.968 75.4709 724.714 73.7413 720.244 73.3983L720.222 73.3762Z" fill="#FFCE55"/>
<path d="M712.726 128.813L709.639 102.985L714.999 107.438L718.319 103.733L721.191 107.212L726.198 102.945L723.155 128.817L721.239 128.587L723.705 107.61L720.953 109.956L718.258 106.698L715.192 110.12L712.131 107.57L714.642 128.583L712.726 128.813Z" fill="#FFCE55"/>
<path d="M725.616 137.378L708.889 137.21L708.821 143.982L725.548 144.15L725.616 137.378Z" fill="#FFCE55"/>
<path d="M729.112 127.656L707.008 127.509L706.936 138.416L729.04 138.563L729.112 127.656Z" fill="#FFCE55"/>
<path d="M484.402 70.0444H624.751C634.558 70.0444 643.963 73.9557 650.898 80.9177C657.832 87.8797 661.728 97.3222 661.728 107.168V109.02C661.724 118.863 657.826 128.301 650.892 135.26C643.958 142.218 634.555 146.127 624.751 146.127H95.325C85.518 146.127 76.1126 150.038 69.1781 157C62.2435 163.962 58.3477 173.405 58.3477 183.251C58.3477 193.096 62.2435 202.539 69.1781 209.501C76.1126 216.463 85.518 220.374 95.325 220.374H646.13C662.539 220.374 678.277 226.917 689.881 238.565C701.486 250.212 708.007 266.01 708.012 282.484C708.012 298.961 701.492 314.763 689.887 326.414C678.282 338.064 662.542 344.61 646.13 344.61H461.787" stroke="#FFD900" stroke-opacity="0.63" stroke-width="1.6471" stroke-linecap="round" stroke-linejoin="round" stroke-dasharray="4.94 6.59"/>
<path d="M472.902 60.5029L481.533 88.5812L486.985 81.0408L495.616 89.5238L501.43 83.3062L493.178 75.0051L501.43 70.1104L472.902 60.5029Z" fill="#FFD900" fill-opacity="0.63" stroke="#F6FFFD" stroke-width="1.6471" stroke-linecap="round" stroke-linejoin="round"/>
<path d="M357.837 340.111C357.448 340.111 357.075 339.956 356.8 339.68C356.526 339.404 356.371 339.03 356.371 338.64C356.371 336.543 357.201 334.533 358.677 333.05C360.154 331.568 362.156 330.735 364.244 330.735H388.061C388.45 330.735 388.823 330.89 389.098 331.166C389.373 331.442 389.527 331.817 389.527 332.207C389.527 332.597 389.373 332.972 389.098 333.248C388.823 333.524 388.45 333.679 388.061 333.679H364.244C362.934 333.679 361.677 334.201 360.75 335.132C359.824 336.062 359.303 337.324 359.303 338.64C359.303 339.03 359.148 339.404 358.874 339.68C358.599 339.956 358.226 340.111 357.837 340.111Z" fill="#29816C"/>
<path d="M451.438 351.703L461.781 345.286L451.438 338.87V351.703Z" fill="#29816C"/>
<path d="M448.838 338.888H377.832V351.72H448.838V338.888Z" fill="#29816C"/>
<path d="M354.824 338.987C353.129 338.987 351.504 339.663 350.305 340.866C349.107 342.069 348.434 343.701 348.434 345.403C348.434 347.105 349.107 348.737 350.305 349.94C351.504 351.143 353.129 351.819 354.824 351.819H375.232V338.987H354.824Z" fill="#29816C"/>
<path d="M259.668 75.12H292.033" stroke="#29816C" stroke-width="1.6471" stroke-miterlimit="10"/>
<path d="M251.09 82.0653H283.455" stroke="#29816C" stroke-width="1.6471" stroke-miterlimit="10"/>
<path d="M203.898 329H236.264" stroke="#29816C" stroke-width="1.6471" stroke-miterlimit="10"/>
<path d="M195.32 335.961H227.686" stroke="#29816C" stroke-width="1.6471" stroke-miterlimit="10"/>
<path d="M48.3945 179.578H80.76" stroke="#29816C" stroke-width="1.6471" stroke-miterlimit="10"/>
<path d="M39.8164 186.524H72.1818" stroke="#29816C" stroke-width="1.6471" stroke-miterlimit="10"/>
<path d="M606.023 167.408H638.389" stroke="#29816C" stroke-width="1.6471" stroke-miterlimit="10"/>
<path d="M597.461 174.354H629.826" stroke="#29816C" stroke-width="1.6471" stroke-miterlimit="10"/>
<path d="M126.022 141.165C134.445 141.165 141.274 134.31 141.274 125.853C141.274 117.396 134.445 110.54 126.022 110.54C117.598 110.54 110.77 117.396 110.77 125.853C110.77 134.31 117.598 141.165 126.022 141.165Z" stroke="#FFD900" stroke-opacity="0.63" stroke-width="1.6471" stroke-miterlimit="10"/>
<path d="M694.599 263.169C694.602 264.35 694.256 265.506 693.605 266.49C692.954 267.474 692.026 268.241 690.94 268.696C689.854 269.15 688.658 269.271 687.503 269.042C686.349 268.814 685.288 268.247 684.454 267.412C683.621 266.578 683.053 265.514 682.822 264.356C682.592 263.198 682.709 261.997 683.158 260.905C683.608 259.813 684.37 258.88 685.348 258.223C686.326 257.566 687.476 257.216 688.653 257.216C690.227 257.216 691.737 257.843 692.852 258.958C693.966 260.074 694.595 261.588 694.599 263.169Z" fill="#29816C"/>
<path d="M213.485 77.7164L215.132 76.4762L214.391 73.0036L212.398 72.3753C211.78 70.581 210.933 68.8747 209.878 67.2987L210.652 65.4466L208.231 62.8339L206.189 63.297C204.746 62.0486 203.146 60.9976 201.429 60.1716L201.165 58.1707L197.871 57.0628L196.339 58.4849C194.467 58.1284 192.555 58.0283 190.657 58.1873L189.421 56.5337L185.962 57.2778L185.336 59.2787C183.541 59.9138 181.836 60.781 180.263 61.8583L178.419 61.0811L175.783 63.4623L176.244 65.5128C175.001 66.9606 173.954 68.5676 173.131 70.2917L171.138 70.5563L170.035 73.8635L171.451 75.4014C171.096 77.2809 170.996 79.2 171.155 81.1063L169.508 82.3465L170.249 85.8191L172.242 86.4475C172.875 88.25 173.738 89.9621 174.811 91.5406L174.037 93.3926L176.409 96.0384L178.452 95.5919C179.896 96.8331 181.496 97.8784 183.212 98.7007L183.475 100.702L186.769 101.81L188.301 100.387C190.173 100.744 192.085 100.844 193.984 100.685L195.219 102.339L198.678 101.595L199.304 99.5937C201.099 98.9586 202.805 98.0914 204.377 97.0141L206.222 97.7913L208.857 95.4101L208.396 93.3596C209.643 91.9145 210.69 90.307 211.509 88.5807L213.502 88.3161L214.605 85.0089L213.189 83.471C213.548 81.5753 213.648 79.6392 213.485 77.7164ZM192.271 90.813C190.029 90.813 187.838 90.1458 185.975 88.8957C184.111 87.6456 182.659 85.8688 181.801 83.7899C180.944 81.7111 180.719 79.4236 181.156 77.2167C181.594 75.0098 182.673 72.9826 184.258 71.3916C185.843 69.8005 187.862 68.7169 190.06 68.2779C192.258 67.839 194.537 68.0643 196.607 68.9254C198.678 69.7865 200.448 71.2447 201.693 73.1156C202.938 74.9865 203.603 77.186 203.603 79.4362C203.605 80.9316 203.313 82.4128 202.745 83.795C202.176 85.1772 201.342 86.4333 200.289 87.4915C199.237 88.5497 197.987 89.3892 196.611 89.962C195.235 90.5347 193.76 90.8295 192.271 90.8295V90.813Z" fill="#29816C"/>
<path d="M192.27 84.2646C194.917 84.2646 197.063 82.1102 197.063 79.4526C197.063 76.795 194.917 74.6406 192.27 74.6406C189.622 74.6406 187.477 76.795 187.477 79.4526C187.477 82.1102 189.622 84.2646 192.27 84.2646Z" fill="#29816C"/>
<path d="M348.331 97.9891H366.96C369.727 109.697 378.737 111.797 383.942 111.995C384.173 112.007 384.402 111.945 384.595 111.818C384.789 111.69 384.937 111.504 385.017 111.287C385.098 111.069 385.108 110.831 385.045 110.608C384.982 110.384 384.849 110.187 384.666 110.044C378.902 105.563 381.092 97.9891 381.092 97.9891H389.74C394.13 97.976 398.337 96.2192 401.442 93.1023C404.546 89.9854 406.296 85.7617 406.309 81.3538V64.7185C406.275 60.3264 404.515 56.1256 401.412 53.0292C398.309 49.9328 394.114 48.1909 389.74 48.1824H348.331C343.957 48.1909 339.762 49.9328 336.659 53.0292C333.556 56.1256 331.796 60.3264 331.762 64.7185V81.3538C331.775 85.7617 333.525 89.9854 336.629 93.1023C339.734 96.2192 343.941 97.976 348.331 97.9891Z" fill="#29816C"/>
<path d="M382.117 85.2403H400.762C403.529 96.9313 412.522 99.0479 417.743 99.2464C417.97 99.2483 418.192 99.1801 418.378 99.0511C418.565 98.9222 418.707 98.7387 418.786 98.5256C418.866 98.3125 418.878 98.0801 418.821 97.8599C418.764 97.6398 418.641 97.4426 418.468 97.2951C412.703 92.7973 414.877 85.2403 414.877 85.2403H423.541C427.932 85.2272 432.139 83.4704 435.243 80.3535C438.348 77.2366 440.098 73.0129 440.111 68.605V51.9697C440.098 47.5617 438.348 43.3381 435.243 40.2212C432.139 37.1043 427.932 35.3474 423.541 35.3344H382.117C377.726 35.3474 373.519 37.1043 370.414 40.2212C367.31 43.3381 365.56 47.5617 365.547 51.9697V68.605C365.56 73.0129 367.31 77.2366 370.414 80.3535C373.519 83.4704 377.726 85.2272 382.117 85.2403Z" fill="#FFD900" fill-opacity="0.63" stroke="#F6FFFD" stroke-width="1.6471" stroke-miterlimit="10"/>
<path d="M399.757 66.141V64.4874C399.73 63.1554 400.047 61.8391 400.679 60.6676C401.58 59.3016 402.745 58.1318 404.105 57.2281C405.282 56.4532 406.342 55.5119 407.251 54.4335C407.753 53.7362 408.018 52.8958 408.009 52.0357C408.032 51.5968 407.945 51.1591 407.755 50.7631C407.565 50.3671 407.278 50.0256 406.922 49.7703C406.009 49.2041 404.946 48.9328 403.875 48.9931C401.138 49.1175 398.469 49.8879 396.084 51.242L393.613 46.2812C396.889 44.4043 400.597 43.4182 404.369 43.4204C407.042 43.283 409.68 44.0839 411.83 45.6859C412.729 46.4053 413.447 47.3259 413.927 48.374C414.408 49.422 414.637 50.5685 414.597 51.7215C414.638 53.245 414.244 54.7483 413.461 56.054C412.284 57.6848 410.815 59.0811 409.129 60.1715C408.104 60.8683 407.173 61.6966 406.362 62.6354C405.955 63.3003 405.754 64.0716 405.785 64.8512V66.141H399.757ZM399.016 72.4247C398.978 71.8939 399.051 71.361 399.23 70.86C399.408 70.359 399.689 69.9007 400.053 69.5144C400.883 68.8119 401.952 68.4619 403.035 68.5388C403.563 68.505 404.093 68.5768 404.593 68.7499C405.093 68.9231 405.555 69.1941 405.95 69.5475C406.313 69.9282 406.593 70.3807 406.771 70.8762C406.95 71.3716 407.024 71.8991 406.988 72.4247C407.016 72.9447 406.939 73.465 406.76 73.954C406.582 74.443 406.306 74.8904 405.95 75.269C405.558 75.629 405.098 75.9066 404.597 76.0855C404.097 76.2644 403.565 76.341 403.035 76.3107C402.498 76.3452 401.959 76.2724 401.45 76.0964C400.941 75.9204 400.472 75.6448 400.07 75.2855C399.715 74.9153 399.439 74.4768 399.258 73.9965C399.077 73.5162 398.994 73.004 399.016 72.4909V72.4247Z" fill="#29816C"/>
<path d="M548.707 90.9456V110.59L562.872 100.768L548.707 90.9456Z" fill="#29816C"/>
<path d="M459.002 125.853C461.376 125.853 463.301 123.92 463.301 121.537C463.301 119.153 461.376 117.221 459.002 117.221C456.628 117.221 454.703 119.153 454.703 121.537C454.703 123.92 456.628 125.853 459.002 125.853Z" fill="#FFD900" fill-opacity="0.63" stroke="#F6FFFD" stroke-width="1.6471" stroke-miterlimit="10"/>
<path d="M705.174 172.617C705.177 171.758 704.926 170.918 704.453 170.203C703.98 169.488 703.307 168.931 702.517 168.601C701.728 168.271 700.859 168.184 700.021 168.35C699.182 168.517 698.411 168.93 697.807 169.537C697.202 170.144 696.791 170.917 696.625 171.759C696.459 172.601 696.546 173.473 696.875 174.266C697.203 175.058 697.759 175.735 698.471 176.209C699.183 176.684 700.02 176.936 700.875 176.933C702.015 176.933 703.108 176.478 703.915 175.668C704.721 174.859 705.174 173.761 705.174 172.617Z" fill="#FFD900" fill-opacity="0.63" stroke="#F6FFFD" stroke-width="1.6471" stroke-miterlimit="10"/>
<path d="M136.912 352.596C139.286 352.596 141.211 350.663 141.211 348.28C141.211 345.896 139.286 343.964 136.912 343.964C134.538 343.964 132.613 345.896 132.613 348.28C132.613 350.663 134.538 352.596 136.912 352.596Z" fill="#FFD900" fill-opacity="0.63" stroke="#F6FFFD" stroke-width="1.6471" stroke-miterlimit="10"/>
<path d="M143.996 75.0044C143.996 74.1508 143.744 73.3163 143.272 72.6066C142.799 71.8968 142.128 71.3437 141.342 71.017C140.557 70.6903 139.693 70.6049 138.859 70.7714C138.025 70.9379 137.259 71.349 136.658 71.9526C136.056 72.5562 135.647 73.3252 135.481 74.1624C135.315 74.9996 135.4 75.8674 135.726 76.656C136.051 77.4447 136.602 78.1187 137.309 78.593C138.016 79.0672 138.847 79.3203 139.697 79.3203C140.838 79.3203 141.931 78.8656 142.737 78.0562C143.543 77.2468 143.996 76.1491 143.996 75.0044Z" fill="#FFD900" fill-opacity="0.63" stroke="#F6FFFD" stroke-width="1.6471" stroke-miterlimit="10"/>
<path d="M284.643 103.1C287.017 103.1 288.942 101.168 288.942 98.7842C288.942 96.4006 287.017 94.4683 284.643 94.4683C282.268 94.4683 280.344 96.4006 280.344 98.7842C280.344 101.168 282.268 103.1 284.643 103.1Z" fill="#FFD900" fill-opacity="0.63" stroke="#F6FFFD" stroke-width="1.6471" stroke-miterlimit="10"/>
<path d="M117.608 334.125C119.982 334.125 121.906 332.193 121.906 329.809C121.906 327.426 119.982 325.494 117.608 325.494C115.233 325.494 113.309 327.426 113.309 329.809C113.309 332.193 115.233 334.125 117.608 334.125Z" fill="#29816C"/>
<path d="M647.401 321.542C649.775 321.542 651.699 319.609 651.699 317.226C651.699 314.842 649.775 312.91 647.401 312.91C645.026 312.91 643.102 314.842 643.102 317.226C643.102 319.609 645.026 321.542 647.401 321.542Z" fill="#29816C"/>
<path d="M258.088 107.415C260.462 107.415 262.387 105.483 262.387 103.099C262.387 100.715 260.462 98.7831 258.088 98.7831C255.714 98.7831 253.789 100.715 253.789 103.099C253.789 105.483 255.714 107.415 258.088 107.415Z" fill="#29816C"/>
<path d="M342.732 379.699C342.736 378.842 342.485 378.002 342.013 377.288C341.541 376.573 340.868 376.015 340.08 375.685C339.292 375.354 338.423 375.266 337.585 375.431C336.747 375.597 335.977 376.008 335.371 376.613C334.766 377.218 334.354 377.99 334.186 378.831C334.018 379.672 334.102 380.544 334.428 381.337C334.755 382.129 335.308 382.807 336.018 383.284C336.728 383.761 337.563 384.015 338.417 384.015C338.983 384.017 339.544 383.907 340.067 383.691C340.591 383.475 341.066 383.158 341.467 382.757C341.868 382.356 342.186 381.879 342.404 381.355C342.621 380.83 342.732 380.267 342.732 379.699Z" fill="#29816C"/>
<path d="M596.942 45.8348C596.942 44.9812 596.69 44.1468 596.217 43.437C595.745 42.7273 595.073 42.1741 594.288 41.8475C593.502 41.5208 592.638 41.4353 591.804 41.6018C590.97 41.7684 590.204 42.1794 589.603 42.783C589.002 43.3866 588.592 44.1556 588.426 44.9929C588.26 45.8301 588.346 46.6979 588.671 47.4865C588.996 48.2751 589.547 48.9492 590.254 49.4234C590.961 49.8976 591.792 50.1508 592.643 50.1508C593.207 50.1508 593.766 50.0391 594.288 49.8222C594.809 49.6054 595.283 49.2874 595.682 48.8867C596.082 48.4859 596.398 48.0101 596.614 47.4865C596.83 46.9629 596.942 46.4016 596.942 45.8348Z" fill="#29816C"/>
<path d="M145.108 332.185V156.899H272.489V190.65H188.929V227.395H262.419V261.69H188.929V332.185H145.108ZM267.781 332.185L334.738 156.899H382.098L449.055 332.185H403.328L387.542 292.446H329.022L313.508 332.185H267.781ZM335.011 260.056H381.554L358.146 199.088L335.011 260.056ZM568.231 379C555.892 379 546.184 377.276 539.107 373.829C532.212 370.563 527.403 365.573 524.681 358.859C521.96 352.145 520.508 343.798 520.326 333.818C497.645 331.096 480.406 322.568 468.612 308.233C456.817 293.716 450.92 272.758 450.92 245.359C450.92 212.878 458.36 189.561 473.239 175.408C488.118 161.254 509.802 154.177 538.291 154.177C566.779 154.177 588.463 161.254 603.342 175.408C618.221 189.561 625.661 212.878 625.661 245.359C625.661 272.214 619.945 292.809 608.514 307.144C597.263 321.479 580.842 330.189 559.249 333.274C559.249 339.08 560.247 343.072 562.243 345.25C564.42 347.608 568.049 348.788 573.13 348.788C578.755 348.788 584.471 348.062 590.277 346.61V376.278C587.556 377.004 583.926 377.639 579.39 378.184C575.035 378.728 571.315 379 568.231 379ZM538.291 297.618C552.988 297.618 563.694 293.444 570.408 285.097C577.303 276.569 580.751 263.323 580.751 245.359C580.751 225.761 577.303 211.971 570.408 203.987C563.694 195.821 552.988 191.739 538.291 191.739C523.411 191.739 512.524 195.821 505.629 203.987C498.915 211.971 495.558 225.761 495.558 245.359C495.558 263.323 498.915 276.569 505.629 285.097C512.524 293.444 523.411 297.618 538.291 297.618Z" fill="#29816C"/>
<path d="M471.954 315.941C480.017 314.624 485.49 306.994 484.178 298.9C482.867 290.805 475.267 285.31 467.204 286.627C459.142 287.944 453.669 295.574 454.98 303.668C456.292 311.763 463.892 317.258 471.954 315.941Z" fill="#FFD900" fill-opacity="0.63" stroke="#F6FFFD" stroke-width="1.6471" stroke-miterlimit="10"/>
<path d="M469.104 309.117V308.523C469.104 307.748 469.276 307.085 469.62 306.534C469.964 305.983 470.386 305.501 470.886 305.088C471.402 304.657 471.901 304.236 472.384 303.822C472.866 303.409 473.279 302.979 473.623 302.531C473.968 302.066 474.14 301.515 474.14 300.878C474.14 299.88 473.856 299.156 473.287 298.709C472.737 298.261 471.721 298.037 470.24 298.037C469.482 298.037 468.742 298.123 468.019 298.295C467.296 298.468 466.659 298.691 466.108 298.967V297.159C466.659 296.866 467.33 296.643 468.122 296.488C468.931 296.315 469.801 296.229 470.731 296.229C472.573 296.229 473.95 296.643 474.863 297.469C475.793 298.278 476.258 299.406 476.258 300.852C476.258 301.799 476.016 302.574 475.534 303.177C475.07 303.762 474.45 304.382 473.675 305.036C473.176 305.449 472.737 305.82 472.358 306.147C471.996 306.474 471.712 306.827 471.505 307.206C471.316 307.567 471.221 308.041 471.221 308.626V309.117H469.104ZM469 313.12V311.441H471.325V313.12H469Z" fill="#FFD900" fill-opacity="0.63"/>
<path d="M407.205 170.88C415.374 170.88 421.996 164.232 421.996 156.031C421.996 147.83 415.374 141.182 407.205 141.182C399.036 141.182 392.414 147.83 392.414 156.031C392.414 164.232 399.036 170.88 407.205 170.88Z" fill="#FFD900" fill-opacity="0.63" stroke="#F6FFFD" stroke-width="1.6471" stroke-miterlimit="10"/>
<path d="M406.709 163.898V163.304C406.709 162.529 406.881 161.866 407.226 161.315C407.57 160.764 407.992 160.282 408.491 159.869C409.008 159.438 409.507 159.016 409.989 158.603C410.471 158.19 410.884 157.759 411.229 157.312C411.573 156.847 411.745 156.296 411.745 155.659C411.745 154.66 411.461 153.937 410.893 153.489C410.342 153.042 409.326 152.818 407.845 152.818C407.088 152.818 406.347 152.904 405.624 153.076C404.901 153.248 404.264 153.472 403.713 153.748V151.94C404.264 151.647 404.936 151.423 405.728 151.268C406.537 151.096 407.406 151.01 408.336 151.01C410.178 151.01 411.556 151.423 412.468 152.25C413.398 153.059 413.863 154.187 413.863 155.633C413.863 156.58 413.622 157.355 413.14 157.957C412.675 158.543 412.055 159.163 411.28 159.817C410.781 160.23 410.342 160.6 409.963 160.927C409.602 161.255 409.318 161.608 409.111 161.986C408.922 162.348 408.827 162.821 408.827 163.407V163.898H406.709ZM406.606 167.901V166.222H408.93V167.901H406.606Z" fill="#FFD900" fill-opacity="0.63"/>
<path d="M603.123 132.07C611.292 132.07 617.914 125.422 617.914 117.221C617.914 109.02 611.292 102.371 603.123 102.371C594.954 102.371 588.332 109.02 588.332 117.221C588.332 125.422 594.954 132.07 603.123 132.07Z" fill="#FFD900" fill-opacity="0.63" stroke="#F6FFFD" stroke-width="1.6471" stroke-miterlimit="10"/>
<path d="M602.635 125.087V124.493C602.635 123.718 602.807 123.055 603.151 122.504C603.496 121.953 603.918 121.471 604.417 121.058C604.933 120.628 605.433 120.206 605.915 119.793C606.397 119.379 606.81 118.949 607.154 118.501C607.499 118.036 607.671 117.486 607.671 116.848C607.671 115.85 607.387 115.127 606.819 114.679C606.268 114.231 605.252 114.008 603.771 114.008C603.014 114.008 602.273 114.094 601.55 114.266C600.827 114.438 600.19 114.662 599.639 114.937V113.129C600.19 112.837 600.861 112.613 601.653 112.458C602.463 112.286 603.332 112.2 604.262 112.2C606.104 112.2 607.482 112.613 608.394 113.439C609.324 114.249 609.789 115.376 609.789 116.823C609.789 117.77 609.548 118.544 609.066 119.147C608.601 119.732 607.981 120.352 607.206 121.007C606.707 121.42 606.268 121.79 605.889 122.117C605.527 122.444 605.243 122.797 605.037 123.176C604.847 123.538 604.753 124.011 604.753 124.596V125.087H602.635ZM602.532 129.09V127.411H604.856V129.09H602.532Z" fill="#FFD900" fill-opacity="0.63"/>
<path d="M93.7227 210.551V230.195L107.888 220.373L93.7227 210.551Z" fill="#FFD900" fill-opacity="0.63" stroke="#F6FFFD" stroke-width="1.6471" stroke-linecap="round" stroke-linejoin="round"/>
<path d="M619.578 281.623V301.268L633.727 291.446L619.578 281.623Z" fill="#FFD900" fill-opacity="0.63" stroke="#F6FFFD" stroke-width="1.6471" stroke-linecap="round" stroke-linejoin="round"/>
<path d="M297.699 349.289V368.934L311.864 359.112L297.699 349.289Z" fill="#FFD900" fill-opacity="0.63" stroke="#F6FFFD" stroke-width="1.6471" stroke-linecap="round" stroke-linejoin="round"/>
<g style="mix-blend-mode:multiply" opacity="0.32">
<path d="M368 453.301C570.965 453.301 735.5 443.336 735.5 431.044C735.5 418.751 570.965 408.786 368 408.786C165.035 408.786 0.5 418.751 0.5 431.044C0.5 443.336 165.035 453.301 368 453.301Z" fill="#F6FFFD"/>
</g>
</svg>
