<svg width="734" height="586" viewBox="0 0 734 586" fill="none" xmlns="http://www.w3.org/2000/svg">
<path d="M322.59 25.8576C280.146 39.6919 239.196 57.914 199.915 78.2639C146.339 106.023 93.8753 138.593 56.7606 184.666C24.3858 224.902 9.44363 269.501 3.94823 319.002C-4.22017 392.503 -3.45646 470.64 43.3624 532.708C56.4036 550.012 72.7819 565.27 92.4807 574.617C118.488 586.944 142.62 584.171 171.458 585.231C225.914 587.226 467.754 584.543 531.731 585.943C600.631 587.449 654.963 539.638 689.321 486.387C715.429 445.919 724.278 397.073 729.167 349.344C733.922 304.061 735.171 258.48 732.903 213.005C728.503 130.082 693.472 62.393 611.34 26.9836C545.578 -1.37213 467.272 -6.09118 396.895 6.82411C371.727 11.5024 346.903 17.8612 322.59 25.8576Z" fill="#FBF9F8"/>
<path d="M195.698 465.392C183.869 448.9 172.455 426.414 161.796 398.547C153.279 376.276 145.194 350.528 137.789 322.057C125.188 273.558 118.804 233.314 118.746 232.941L120.672 232.643C120.73 233.041 127.097 273.211 139.682 321.585C147.07 349.999 155.122 375.664 163.622 397.86C174.231 425.57 185.554 447.906 197.292 464.299L195.698 465.392Z" fill="#29816C" fill-opacity="0.18"/>
<path d="M113.178 199.097C126.85 196.34 125.887 227.684 120.425 236.791C111.858 230.574 96.8494 202.4 113.178 199.097Z" fill="#29816C" fill-opacity="0.18"/>
<path d="M104.682 261.669C110.302 253.101 126.265 269.808 128.216 277.4C120.521 278.633 97.9663 271.902 104.682 261.669Z" fill="#29816C" fill-opacity="0.18"/>
<path d="M143.469 253.573C134.877 247.976 126.975 269.659 128.22 277.366C135.782 275.446 153.738 260.262 143.469 253.573Z" fill="#29816C" fill-opacity="0.18"/>
<path d="M107.935 313.496C116.236 300.829 139.861 325.534 142.759 336.677C131.369 338.582 98.0067 328.639 107.935 313.496Z" fill="#29816C" fill-opacity="0.18"/>
<path d="M165.31 301.516C152.601 293.237 140.913 325.319 142.764 336.719C153.938 333.871 180.502 311.41 165.31 301.516Z" fill="#29816C" fill-opacity="0.18"/>
<path d="M169.012 577.159C137.144 573.516 111.734 557.422 93.471 534.489L129.017 514.387L85.9335 523.991C76.6394 509.473 69.8021 493.53 65.6951 476.8L111.883 466.037L63.6447 467.867C61.9435 459.211 60.8863 450.442 60.4819 441.631L109.882 437.582L60.3242 429.08C60.5246 420.101 61.4098 411.15 62.9723 402.306L99.3648 399.888L65.1555 391.89C69.5622 373.312 77.4483 355.731 88.3989 340.072C110.53 352.491 128.245 367.095 142.183 383.057L116.889 405.518L152.194 395.691C157.838 403.5 162.809 411.773 167.053 420.42L133.225 441.946L173.071 434.155C176.273 442.501 178.823 451.082 180.7 459.82L145.179 468.323L182.609 470.028C184.327 481.044 185.066 492.189 184.818 503.335L155.489 506.522L184.278 513.973C182.65 535.72 177.495 557.059 169.012 577.159Z" fill="#29816C" fill-opacity="0.18"/>
<path d="M158.592 558.067L159.721 557.645L88.7618 341.827L87.6328 342.249L158.592 558.067Z" fill="#E9EFF4"/>
<path d="M618.694 571.28L584.476 450.638L627.028 473.306L582.824 436.879C588.749 427.494 595.216 418.46 602.191 409.823L643.697 444.206L612.518 397.653C620.163 389.133 628.301 381.067 636.89 373.494L664.948 399.275L647.291 364.768C666.276 349.601 687.046 337.108 708.72 328.614C715.474 352.273 717.682 376.992 715.229 401.469L676.653 408.175L712.597 419.451C710.467 430.489 707.48 441.345 703.665 451.922L659.121 452.749L696.916 468.629C692.417 478.636 687.294 488.353 681.576 497.721L646.553 485.046L674.569 508.633C666.68 520.31 657.993 531.43 648.57 541.915L622.886 527.782L639.356 551.792C632.656 558.68 625.758 565.154 618.694 571.28Z" fill="#29816C" fill-opacity="0.18"/>
<path d="M706.268 330.086L603.977 535.51L605.248 536.14L707.54 330.715L706.268 330.086Z" fill="#E9EFF4"/>
<path d="M168.714 178.258L167.262 175.344L252.474 133.088L305.037 161.932L387.194 107.141L421.42 127.185L573.847 36.6783L575.516 39.4766L421.437 130.96L387.31 110.983L305.203 165.74L252.399 136.764L168.714 178.258Z" fill="#29816C"/>
<path d="M174.119 178.556C173.716 179.738 172.974 180.775 171.985 181.54C170.997 182.305 169.805 182.763 168.557 182.859C167.31 182.954 166.062 182.683 164.967 182.078C163.873 181.472 162.981 180.56 162.402 179.454C161.823 178.348 161.582 177.096 161.709 175.855C161.836 174.614 162.326 173.437 163.117 172.47C163.909 171.504 164.967 170.79 166.161 170.418C167.356 170.046 168.633 170.031 169.836 170.377C171.49 170.896 172.87 172.05 173.673 173.583C174.476 175.116 174.637 176.905 174.119 178.556Z" fill="#0E5B99"/>
<path d="M259.866 138.304C259.46 139.481 258.717 140.515 257.729 141.275C256.74 142.036 255.55 142.491 254.305 142.584C253.059 142.677 251.814 142.403 250.723 141.797C249.632 141.191 248.744 140.28 248.167 139.175C247.59 138.071 247.351 136.822 247.479 135.583C247.607 134.344 248.096 133.17 248.886 132.206C249.676 131.242 250.733 130.53 251.924 130.158C253.116 129.787 254.391 129.772 255.591 130.116C256.411 130.373 257.172 130.789 257.831 131.34C258.49 131.891 259.033 132.565 259.43 133.326C259.827 134.086 260.07 134.917 260.145 135.772C260.22 136.626 260.125 137.486 259.866 138.304Z" fill="#0E5B99"/>
<path d="M311.385 165.624C310.98 166.805 310.237 167.841 309.247 168.604C308.258 169.367 307.065 169.824 305.818 169.918C304.57 170.012 303.323 169.738 302.23 169.132C301.136 168.525 300.246 167.612 299.668 166.505C299.09 165.399 298.851 164.147 298.979 162.906C299.108 161.665 299.598 160.489 300.391 159.524C301.183 158.558 302.242 157.846 303.436 157.475C304.631 157.104 305.908 157.09 307.11 157.436C307.93 157.694 308.691 158.11 309.35 158.66C310.009 159.211 310.552 159.886 310.949 160.647C311.346 161.407 311.589 162.238 311.664 163.092C311.739 163.946 311.644 164.807 311.385 165.624Z" fill="#0E5B99"/>
<path d="M394.244 109.666C393.841 110.848 393.099 111.885 392.11 112.65C391.122 113.415 389.93 113.873 388.682 113.969C387.435 114.065 386.187 113.793 385.092 113.188C383.998 112.582 383.106 111.67 382.527 110.564C381.948 109.458 381.707 108.207 381.834 106.965C381.961 105.724 382.451 104.547 383.242 103.58C384.034 102.614 385.092 101.9 386.286 101.528C387.481 101.156 388.758 101.142 389.961 101.487C391.615 102.006 392.995 103.16 393.798 104.693C394.601 106.227 394.762 108.015 394.244 109.666Z" fill="#0E5B99"/>
<path d="M428.331 129.437C427.927 130.617 427.184 131.653 426.195 132.417C425.206 133.181 424.014 133.638 422.767 133.732C421.52 133.827 420.272 133.554 419.179 132.949C418.085 132.343 417.194 131.431 416.616 130.325C416.037 129.219 415.797 127.968 415.924 126.727C416.051 125.486 416.541 124.309 417.332 123.343C418.123 122.377 419.181 121.664 420.375 121.292C421.569 120.919 422.846 120.904 424.048 121.249C425.704 121.769 427.086 122.923 427.889 124.458C428.692 125.994 428.851 127.785 428.331 129.437Z" fill="#0E5B99"/>
<path d="M577.64 42.4572C577.234 43.6349 576.491 44.6681 575.502 45.4288C574.514 46.1896 573.323 46.6445 572.078 46.7373C570.833 46.8301 569.588 46.5566 568.497 45.9508C567.406 45.345 566.517 44.4334 565.94 43.3289C565.364 42.2244 565.124 40.9754 565.252 39.7367C565.38 38.498 565.869 37.3238 566.66 36.3596C567.45 35.3953 568.506 34.6834 569.698 34.3118C570.89 33.9403 572.164 33.9255 573.365 34.2692C574.185 34.5264 574.946 34.9424 575.605 35.4932C576.263 36.044 576.807 36.719 577.204 37.4794C577.601 38.2399 577.844 39.0709 577.918 39.925C577.993 40.7792 577.899 41.6396 577.64 42.4572Z" fill="#0E5B99"/>
<path d="M388.503 201.012C395.904 193.631 395.904 181.664 388.503 174.282C381.102 166.901 369.103 166.901 361.702 174.282C354.301 181.664 354.301 193.631 361.702 201.012C369.103 208.394 381.102 208.394 388.503 201.012Z" fill="#FBDCB2"/>
<path d="M374.11 198.815V196.24C372.725 196.231 371.369 195.842 370.191 195.114L370.806 193.401C371.903 194.113 373.182 194.495 374.491 194.502C376.309 194.502 377.538 193.45 377.538 192.018C377.538 190.586 376.542 189.741 374.641 188.971C372.034 187.953 370.424 186.777 370.424 184.559C370.424 182.34 371.935 180.833 374.284 180.419V177.844H375.878V180.328C377.043 180.337 378.187 180.644 379.198 181.222L378.551 182.878C377.573 182.313 376.459 182.027 375.33 182.05C373.354 182.05 372.615 183.217 372.615 184.244C372.615 185.569 373.562 186.231 375.786 187.15C378.426 188.226 379.754 189.551 379.754 191.828C379.754 193.848 378.351 195.735 375.712 196.166V198.823L374.11 198.815Z" fill="black"/>
<path d="M520.507 46.6083C526.01 37.7288 523.253 26.0813 514.35 20.593C505.447 15.1046 493.768 17.8536 488.265 26.7331C482.762 35.6126 485.518 47.2601 494.422 52.7484C503.325 58.2368 515.004 55.4878 520.507 46.6083Z" fill="#FBDCB2"/>
<path d="M503.379 47.8633V45.2885C501.994 45.2828 500.637 44.893 499.461 44.1626L500.075 42.4488C501.175 43.1611 502.458 43.5433 503.769 43.5499C505.587 43.5499 506.816 42.4985 506.816 41.0662C506.816 39.6339 505.811 38.7895 503.919 38.0278C501.304 37.0012 499.693 35.8256 499.693 33.6068C499.693 31.388 501.204 29.8812 503.562 29.4673V26.8925H505.147V29.3762C506.312 29.3877 507.455 29.6955 508.468 30.2704L507.829 31.9262C506.853 31.3465 505.735 31.0458 504.599 31.0569C502.632 31.0569 501.885 32.2325 501.885 33.2508C501.885 34.5755 502.84 35.2461 505.064 36.165C507.704 37.233 509.032 38.566 509.032 40.8344C509.012 41.9271 508.589 42.974 507.843 43.7746C507.097 44.5751 506.081 45.0729 504.99 45.1726V47.8633H503.379Z" fill="black"/>
<path d="M625.129 161.742C623.488 161.742 621.883 161.256 620.517 160.346C619.152 159.437 618.088 158.144 617.46 156.631C616.832 155.118 616.667 153.453 616.988 151.847C617.308 150.241 618.099 148.766 619.259 147.608C620.42 146.451 621.9 145.662 623.51 145.343C625.12 145.023 626.789 145.187 628.306 145.814C629.823 146.44 631.119 147.501 632.032 148.863C632.944 150.224 633.431 151.825 633.431 153.463C633.431 155.658 632.556 157.764 630.999 159.317C629.442 160.869 627.331 161.742 625.129 161.742ZM625.129 146.202C623.686 146.2 622.274 146.626 621.073 147.424C619.872 148.223 618.936 149.359 618.382 150.688C617.829 152.018 617.683 153.482 617.963 154.894C618.244 156.306 618.938 157.603 619.959 158.622C620.979 159.641 622.279 160.334 623.694 160.616C625.11 160.897 626.578 160.754 627.911 160.203C629.245 159.653 630.385 158.72 631.188 157.523C631.99 156.326 632.418 154.919 632.418 153.479C632.418 151.551 631.65 149.701 630.284 148.336C628.917 146.972 627.063 146.204 625.129 146.202Z" fill="#0E5B99"/>
<path d="M649.493 184.128C647.851 184.128 646.246 183.643 644.881 182.733C643.516 181.823 642.452 180.53 641.823 179.017C641.195 177.505 641.031 175.84 641.351 174.234C641.671 172.628 642.462 171.153 643.623 169.995C644.784 168.837 646.263 168.049 647.873 167.729C649.483 167.41 651.153 167.574 652.669 168.2C654.186 168.827 655.483 169.888 656.395 171.25C657.307 172.611 657.794 174.212 657.794 175.849C657.794 178.045 656.919 180.151 655.363 181.703C653.806 183.256 651.694 184.128 649.493 184.128ZM649.493 168.597C648.051 168.598 646.643 169.026 645.446 169.826C644.248 170.625 643.315 171.761 642.765 173.09C642.215 174.418 642.071 175.879 642.354 177.289C642.636 178.698 643.331 179.993 644.35 181.009C645.37 182.024 646.668 182.716 648.082 182.996C649.496 183.275 650.961 183.131 652.292 182.581C653.623 182.03 654.761 181.098 655.562 179.903C656.362 178.708 656.789 177.303 656.789 175.866C656.787 173.937 656.017 172.088 654.649 170.725C653.281 169.362 651.426 168.597 649.493 168.597Z" fill="#0E5B99"/>
<path d="M655.371 145.393L619.52 183.309L620.244 183.991L656.096 146.074L655.371 145.393Z" fill="#0E5B99"/>
<path d="M452.941 555.608L454.386 582.548H629.417L631.434 570.088L452.941 555.608Z" fill="#001F32"/>
<path d="M497.415 304.555C484.133 325.774 464.509 401.486 459.777 408.556C455.892 414.351 457.719 473.414 452.946 484.723C427.834 493.002 407.679 490.519 408.501 475.161C411.73 414.202 448.546 337.679 461.919 323.506C470.552 314.366 484.407 308.338 497.415 304.555Z" fill="white"/>
<path d="M519.746 299.488L582.005 283.493C582.005 283.493 579.772 292.666 577.265 295.166C574.758 297.667 532.538 315.591 529.193 314.755C525.847 313.918 519.746 299.488 519.746 299.488Z" fill="#FCA649"/>
<path d="M627.296 310.648C617.003 310.532 607.149 312.908 598.599 321.411C586.479 333.498 572.268 365.182 570.599 383.504L556.387 410.179C556.387 410.179 528.446 412.265 514.234 413.101C500.022 413.937 477.385 413.101 477.385 413.101L497.416 425.387C497.416 425.387 515.836 449.024 527.126 450.688C538.415 452.352 635.872 358.137 644.231 359.801L631.447 570.088C631.447 570.088 487.006 585.595 452.971 555.608C443.541 491.81 456.964 424.601 466.02 385.515C471.881 360.198 484.159 325.774 497.441 304.555C503.349 302.829 509.352 301.447 515.421 300.415C511.362 314.175 513.346 347.117 513.346 347.117C513.346 347.117 578.145 320.699 587.06 290.969C587.417 289.752 587.774 288.593 588.106 287.475C595.685 292.385 609.623 301.102 625.52 309.58C626.109 309.944 626.715 310.309 627.296 310.648Z" fill="#29816C"/>
<path d="M635.794 388.546C621.582 422.73 588.079 462.809 573.311 465.359C562.121 467.337 542.654 463.653 526.401 454.869C516.364 449.438 457.359 412.472 457.359 412.472L477.714 378.247C477.714 378.247 493.113 386.269 506.038 392.23C525.363 401.146 556.385 410.22 556.385 410.22L570.596 383.545C572.257 365.199 586.476 333.515 598.596 321.452C607.147 312.933 617 310.557 627.294 310.69C649.474 324.052 649.64 355.247 635.794 388.546Z" fill="white"/>
<path d="M584.803 256.396L582.022 283.493C582.022 283.493 579.789 292.666 577.282 295.166C574.775 297.667 532.555 315.591 529.21 314.754C525.864 313.918 519.746 299.488 519.746 299.488L521.689 283.493L584.803 256.396Z" fill="#BF6745"/>
<path d="M588.079 287.508C587.747 288.618 587.39 289.785 587.033 291.002C581.986 307.825 568.156 318.588 537.741 335.386C523.114 343.483 513.318 347.15 513.318 347.15C513.318 347.15 508.944 334.219 510.562 324.06C510.629 323.621 510.704 323.174 510.778 322.727C512.057 314.829 513.675 306.285 515.394 300.448L517.054 300.167L519.702 299.488C519.702 299.488 525.82 313.918 529.165 314.755C532.511 315.591 574.731 297.667 577.246 295.166C579.761 292.666 581.978 283.493 581.978 283.493C581.978 283.493 584.227 285.008 588.079 287.508Z" fill="white"/>
<path d="M584.812 430.802C584.705 430.803 584.601 430.773 584.51 430.718C584.419 430.662 584.345 430.582 584.297 430.487L583.276 428.418C578.661 419.079 574.294 410.253 561.768 409.119C561.693 409.113 561.62 409.092 561.553 409.057C561.486 409.022 561.427 408.975 561.379 408.917C561.331 408.859 561.296 408.792 561.274 408.72C561.252 408.648 561.245 408.573 561.253 408.498C561.268 408.35 561.341 408.213 561.455 408.117C561.57 408.021 561.718 407.973 561.867 407.985C575.033 409.185 579.74 418.706 584.281 427.921C584.613 428.608 584.953 429.295 585.302 429.974C585.368 430.109 585.378 430.265 585.33 430.408C585.282 430.55 585.179 430.668 585.044 430.736C584.973 430.775 584.893 430.797 584.812 430.802Z" fill="#332624" fill-opacity="0.16"/>
<path d="M595.95 419.956C595.809 419.957 595.672 419.904 595.568 419.807L594.539 418.839C590.181 414.699 582.917 407.828 573.288 407.455C573.203 407.471 573.115 407.469 573.031 407.446C572.948 407.424 572.87 407.383 572.804 407.327C572.739 407.27 572.687 407.2 572.652 407.12C572.618 407.041 572.602 406.955 572.606 406.869C572.61 406.782 572.633 406.698 572.675 406.622C572.716 406.546 572.774 406.48 572.845 406.43C572.915 406.38 572.996 406.346 573.081 406.331C573.167 406.317 573.254 406.321 573.338 406.346C583.366 406.735 591.144 414.095 595.319 418.044L596.34 419.004C596.398 419.057 596.443 419.121 596.475 419.192C596.506 419.263 596.522 419.34 596.522 419.418C596.522 419.496 596.506 419.573 596.475 419.644C596.443 419.715 596.398 419.779 596.34 419.832C596.231 419.921 596.091 419.966 595.95 419.956Z" fill="#332624" fill-opacity="0.16"/>
<path d="M462.212 370.936C462.092 370.936 461.974 370.898 461.877 370.826C461.78 370.755 461.708 370.654 461.673 370.539C460.22 365.96 461.59 351.025 464.993 347.357C465.047 347.301 465.111 347.257 465.182 347.226C465.254 347.196 465.331 347.18 465.408 347.18C465.486 347.18 465.563 347.196 465.634 347.226C465.705 347.257 465.77 347.301 465.823 347.357C465.878 347.411 465.922 347.476 465.952 347.547C465.982 347.618 465.998 347.694 465.998 347.771C465.998 347.849 465.982 347.925 465.952 347.996C465.922 348.067 465.878 348.131 465.823 348.185C464.454 349.659 463.258 353.625 462.611 358.791C462.013 363.568 462.063 368.179 462.727 370.282C462.75 370.353 462.759 370.427 462.753 370.502C462.748 370.576 462.727 370.648 462.693 370.714C462.659 370.78 462.612 370.839 462.555 370.887C462.499 370.935 462.433 370.972 462.362 370.994L462.212 370.936Z" fill="#332624" fill-opacity="0.16"/>
<path d="M544.684 187.829C522.437 191.786 507.694 199.287 504.008 235.971C500.322 272.656 510.79 290.505 524.33 292.666C537.869 294.827 577.258 280.993 584.787 256.396C592.316 231.799 585.642 180.535 544.684 187.829Z" fill="#BF6745"/>
<path d="M526.252 255.021C519.179 254.905 511.102 254.955 507.657 260.817C504.212 266.678 506.827 267.349 510.629 266.372C514.431 265.395 523.852 264.981 526.31 265.378C529.771 265.933 536.603 269.758 538.903 268.458C538.903 268.5 543.734 255.303 526.252 255.021Z" fill="white"/>
<path d="M515.08 235.698C515.08 238.074 513.826 240.003 512.282 240.003C510.738 240.003 509.477 239.391 509.477 235.698C509.477 233.314 510.73 231.385 512.282 231.385C513.835 231.385 515.08 233.314 515.08 235.698Z" fill="#332624"/>
<path d="M546.236 236.344C546.236 238.72 544.983 240.649 543.439 240.649C541.895 240.649 540.633 240.036 540.633 236.344C540.633 233.96 541.886 232.031 543.439 232.031C544.991 232.031 546.236 233.96 546.236 236.344Z" fill="#332624"/>
<path d="M520.683 256.155C519.761 256.192 518.846 255.981 518.034 255.544C517.222 255.107 516.543 254.46 516.067 253.672C515.528 252.697 515.295 251.583 515.399 250.474C515.503 249.365 515.938 248.313 516.648 247.454C519.305 244.06 522.36 237.602 522.194 235.748C522.179 235.598 522.225 235.449 522.321 235.334C522.417 235.218 522.554 235.145 522.704 235.131C522.854 235.117 523.003 235.162 523.119 235.258C523.235 235.353 523.308 235.491 523.323 235.64C523.538 237.958 520.193 244.747 517.512 248.15C516.938 248.832 516.584 249.671 516.497 250.558C516.409 251.444 516.592 252.336 517.022 253.117C517.486 253.855 518.17 254.431 518.978 254.763C519.786 255.096 520.678 255.169 521.53 254.972C526.51 254.235 528.029 254.044 528.038 254.044C528.116 254.025 528.197 254.023 528.276 254.037C528.356 254.051 528.431 254.082 528.497 254.128C528.564 254.173 528.62 254.232 528.662 254.3C528.704 254.368 528.731 254.445 528.742 254.524C528.752 254.604 528.746 254.685 528.723 254.762C528.7 254.838 528.661 254.91 528.609 254.971C528.557 255.032 528.492 255.081 528.419 255.115C528.347 255.15 528.268 255.168 528.187 255.17C528.187 255.17 526.643 255.361 521.696 256.098C521.36 256.139 521.021 256.159 520.683 256.155Z" fill="#332624"/>
<path d="M527.902 294.173C525.294 294.209 522.721 293.573 520.431 292.327C520.366 292.291 520.308 292.242 520.261 292.184C520.215 292.126 520.18 292.06 520.159 291.988C520.138 291.917 520.132 291.842 520.14 291.768C520.148 291.694 520.171 291.622 520.207 291.557C520.243 291.492 520.292 291.434 520.35 291.387C520.408 291.341 520.475 291.306 520.547 291.286C520.618 291.265 520.693 291.258 520.768 291.266C520.842 291.275 520.914 291.297 520.979 291.333C525.13 293.643 530.11 293.635 537.017 291.292C537.155 291.261 537.3 291.282 537.423 291.351C537.547 291.42 537.64 291.532 537.686 291.666C537.731 291.8 537.725 291.945 537.669 292.075C537.613 292.205 537.511 292.309 537.382 292.368C534.342 293.481 531.14 294.091 527.902 294.173Z" fill="#D68363"/>
<path d="M505.816 224.033C498.345 220.183 499.831 190.138 509.726 181.537C516.856 175.327 526.752 171.287 536.124 174.45C539.535 175.6 541.378 174.45 544.558 173.133C548.049 171.696 551.722 170.746 555.474 170.31C559.965 169.78 564.29 169.101 568.714 170.012C572.624 170.84 577.846 172.91 580.958 175.534C584.702 178.705 585.981 183.813 588.197 188.185C590.725 193.119 594.553 197.272 599.271 200.197C601.861 201.812 604.816 203.145 606.46 205.711C610.063 211.341 605.58 219.918 609.913 225.01C610.644 225.838 611.573 226.541 612.345 227.369C614.927 230.168 616.272 239.068 614.786 244.706C612.802 252.256 607.174 257.952 599.47 260.941C592.431 263.64 585.881 263.118 584.412 260.204C582.594 256.553 583.507 247.222 581.465 243.762C579.423 240.301 576.708 231.26 577.563 219.86C578.418 208.46 572.001 208.551 561.957 209.296C551.912 210.041 550.335 200.827 533.534 194.295C523.406 190.345 509.012 206.233 505.816 224.033Z" fill="white"/>
<path d="M542.19 290.53C542.051 290.527 541.918 290.474 541.815 290.381C541.713 290.287 541.648 290.159 541.632 290.022C541.617 289.884 541.653 289.745 541.732 289.632C541.812 289.518 541.93 289.437 542.065 289.404C545.366 288.691 548.726 288.286 552.101 288.195C552.873 288.195 553.604 288.129 554.301 288.08C556.045 287.947 558.452 284.652 560.062 282.483C560.681 281.54 561.399 280.665 562.204 279.875L563.499 278.865C563.536 278.829 563.578 278.799 563.624 278.774C564.13 278.443 564.354 278.691 564.454 278.774C564.553 278.881 564.608 279.021 564.608 279.167C564.608 279.313 564.553 279.453 564.454 279.56L564.371 279.627L564.238 279.726L562.935 280.744C562.224 281.481 561.579 282.279 561.009 283.129C559.083 285.745 556.684 289.007 554.426 289.181C553.712 289.239 552.965 289.272 552.184 289.305C548.873 289.393 545.577 289.789 542.339 290.489L542.19 290.53Z" fill="#D68363"/>
<path d="M593.611 249.607C592.299 254.98 587.916 258.524 583.815 257.522C579.714 256.52 577.473 251.362 578.785 245.997C580.096 240.633 584.488 237.089 588.58 238.083C592.673 239.076 594.922 244.242 593.611 249.607Z" fill="#BF6745"/>
<path d="M538.33 335.055C537.99 335.212 537.674 335.452 537.334 335.61L528.634 316.104L510.562 324.085C510.629 323.646 510.704 323.199 510.778 322.752L528.692 314.837C528.83 314.779 528.986 314.776 529.125 314.83C529.265 314.884 529.378 314.991 529.439 315.127L538.33 335.055Z" fill="#332624" fill-opacity="0.16"/>
<path d="M516.474 227.411C516.099 227.485 515.712 227.468 515.345 227.361C512.921 226.682 508.206 226.964 507.252 227.518C506.694 227.754 506.069 227.779 505.494 227.589C504.92 227.398 504.434 227.005 504.129 226.484C503.823 225.962 503.719 225.347 503.836 224.754C503.952 224.161 504.281 223.631 504.761 223.263C507.999 221.392 514.914 222.137 516.673 222.634C517.189 222.803 517.635 223.135 517.944 223.581C518.252 224.026 518.407 224.56 518.383 225.101C518.36 225.641 518.16 226.16 517.814 226.577C517.468 226.994 516.994 227.287 516.466 227.411H516.474Z" fill="white"/>
<path d="M537.936 226.823C537.382 226.701 536.886 226.395 536.53 225.953C536.174 225.512 535.98 224.963 535.98 224.397C535.98 223.831 536.174 223.282 536.53 222.841C536.886 222.4 537.382 222.093 537.936 221.971C543.224 221.052 549.201 222.096 552.372 223.627C552.712 223.734 553.026 223.912 553.291 224.15C553.556 224.388 553.767 224.679 553.91 225.006C554.052 225.332 554.123 225.685 554.116 226.041C554.11 226.396 554.027 226.746 553.874 227.068C553.72 227.389 553.499 227.673 553.225 227.901C552.952 228.13 552.632 228.297 552.288 228.391C551.944 228.486 551.584 228.506 551.232 228.449C550.88 228.393 550.544 228.262 550.247 228.065C547.864 226.931 542.776 226.136 538.783 226.831C538.502 226.877 538.216 226.874 537.936 226.823Z" fill="white"/>
<path d="M525.084 270.18C523.891 270.176 522.7 270.077 521.523 269.882C517.887 269.269 514.882 267.854 513.712 266.181C513.656 266.113 513.614 266.033 513.59 265.948C513.567 265.863 513.56 265.774 513.572 265.686C513.584 265.599 513.614 265.515 513.66 265.439C513.706 265.363 513.767 265.298 513.84 265.247C513.912 265.196 513.994 265.16 514.081 265.142C514.167 265.124 514.257 265.123 514.344 265.141C514.431 265.159 514.513 265.194 514.586 265.245C514.658 265.296 514.72 265.361 514.766 265.436C515.737 266.819 518.477 268.069 521.739 268.607C525.956 269.311 529.891 268.706 532.265 266.951C532.334 266.902 532.412 266.866 532.495 266.847C532.578 266.827 532.664 266.825 532.748 266.838C532.832 266.852 532.913 266.883 532.985 266.927C533.057 266.972 533.12 267.031 533.17 267.1C533.219 267.169 533.255 267.246 533.274 267.328C533.293 267.41 533.296 267.495 533.282 267.578C533.268 267.662 533.238 267.741 533.193 267.813C533.148 267.884 533.089 267.946 533.02 267.994C530.664 269.52 527.892 270.284 525.084 270.18Z" fill="#D68363"/>
<path d="M147.544 485.063C142.696 492.207 132.178 527.186 127.621 581.099C127.621 581.099 264.699 582.523 315.386 582.523C319.321 552.562 313.602 510.661 313.602 510.661L147.544 485.063Z" fill="#7A543E"/>
<path d="M282.126 291.267C290.344 286.929 300.04 268.806 291.755 249.781C283.47 230.756 269.043 234.009 269.043 234.009L282.126 291.267Z" fill="#F6F7F8"/>
<path d="M192.36 312.089C153.436 322.62 131.712 341.537 121.7 368.767C110.909 398.116 110.859 455.531 116.147 477.288C122.223 502.283 142.653 527.054 247.563 536.07C248.568 531.102 304.294 519.876 304.294 519.876C304.294 519.876 331.547 514.163 333.058 521.167C354.641 500.139 358.243 475.086 345.128 430.81C334.402 394.606 324.79 366.755 308.602 350.81C287.849 330.352 249.356 323.63 249.356 323.63L192.36 312.089Z" fill="#7A543E"/>
<path d="M219.165 298.594L194.867 313.115C194.867 313.115 201.599 329.135 207.02 353.161C212.441 377.187 216.982 394.714 246.036 393.215C275.09 391.717 253.889 324.623 253.889 324.623L219.165 298.594Z" fill="#C87554"/>
<path d="M297.25 518.824C304.381 496.587 307.004 487.48 310.689 460.052C313.678 437.814 310.449 428.84 305.094 413.979C299.282 398.463 294.922 382.444 292.07 366.126L291.48 366.234C294.338 382.583 298.709 398.633 304.538 414.178C309.859 428.956 313.072 437.88 310.1 459.969C306.423 487.348 303.783 496.397 296.677 518.642L297.25 518.824Z" fill="white" fill-opacity="0.12"/>
<path d="M241.216 364.47C241.275 364.469 241.333 364.45 241.382 364.417C241.431 364.383 241.468 364.335 241.49 364.28L241.805 363.452C247.683 347.937 252.514 338.341 256.158 334.939C256.186 334.912 256.208 334.879 256.223 334.844C256.238 334.808 256.245 334.77 256.245 334.732C256.245 334.693 256.238 334.655 256.223 334.619C256.208 334.584 256.186 334.552 256.158 334.525C256.132 334.496 256.1 334.473 256.064 334.458C256.028 334.442 255.99 334.434 255.951 334.434C255.912 334.434 255.873 334.442 255.837 334.458C255.802 334.473 255.769 334.496 255.743 334.525C252.082 337.977 247.16 347.647 241.291 363.294L240.975 364.122C240.948 364.196 240.951 364.277 240.984 364.348C241.017 364.42 241.076 364.475 241.15 364.503C241.173 364.495 241.196 364.484 241.216 364.47Z" fill="#D68363"/>
<path d="M214.331 298.362C220.366 312.677 197.562 322.496 187.02 312.089C176.477 301.682 165.943 276.944 184.014 267.672C166.947 266.19 182.197 213.899 214.355 222.261C218.116 208.51 247.743 189.228 274.124 217.294C299.219 214.297 316.361 247.926 297.019 276.125C313.53 283.377 314.784 316.328 283.662 318.124C252.541 319.921 214.331 298.362 214.331 298.362Z" fill="white"/>
<path d="M301.064 284.544L292.281 284.172L291.75 287.243L300.201 288.435L301.064 284.544Z" fill="#001F32"/>
<path d="M275.577 225.035C258.501 224.671 218.73 231.658 212.33 269.088C206.345 304.091 233.531 330.41 254.193 333.209C271.252 335.518 288.884 320.898 295.409 285.107C301.933 249.317 286.551 225.258 275.577 225.035Z" fill="#C87554"/>
<path d="M255.668 333.714C255.162 333.714 254.647 333.622 254.149 333.556C242.934 332.033 230.748 324.002 222.347 312.594C217.752 306.409 214.464 299.358 212.682 291.868C210.899 284.378 210.66 276.606 211.979 269.021L212.685 269.137C211.381 276.631 211.616 284.311 213.377 291.711C215.138 299.111 218.387 306.078 222.928 312.188C231.229 323.447 243.216 331.371 254.24 332.886C254.73 332.952 255.228 333.01 255.726 333.043L255.668 333.714Z" fill="#D68363"/>
<path d="M266.582 315.765C269.903 315.765 272.874 314.73 274.36 313.471C274.443 313.392 274.492 313.285 274.497 313.171C274.503 313.057 274.465 312.945 274.391 312.859C274.316 312.772 274.212 312.717 274.098 312.704C273.984 312.692 273.87 312.724 273.779 312.792C272.119 314.175 268.284 315.276 264.349 314.705C262.761 314.509 261.235 313.968 259.88 313.12C258.524 312.271 257.372 311.137 256.504 309.795C256.438 309.697 256.337 309.628 256.221 309.602C256.105 309.576 255.984 309.594 255.882 309.655C255.832 309.687 255.789 309.728 255.755 309.777C255.722 309.825 255.698 309.88 255.686 309.938C255.673 309.995 255.673 310.055 255.683 310.113C255.694 310.171 255.717 310.226 255.749 310.276C256.685 311.723 257.927 312.949 259.388 313.868C260.849 314.786 262.494 315.374 264.208 315.591C264.994 315.705 265.788 315.763 266.582 315.765Z" fill="#D68363"/>
<path d="M270.958 305.532C271.87 305.569 272.781 305.424 273.636 305.106C274.491 304.787 275.274 304.302 275.939 303.677C276.586 303.045 277.033 302.238 277.225 301.355C277.417 300.472 277.345 299.552 277.018 298.71C276.761 297.965 276.404 297.187 276.03 296.35C274.843 293.734 273.54 290.762 274.677 287.931C274.721 287.822 274.721 287.7 274.676 287.592C274.631 287.483 274.545 287.397 274.436 287.351C274.382 287.328 274.323 287.316 274.264 287.315C274.205 287.315 274.146 287.326 274.091 287.349C274.037 287.371 273.987 287.404 273.945 287.445C273.903 287.487 273.87 287.537 273.847 287.591C272.519 290.779 274.013 294.074 275.217 296.698C275.582 297.526 275.93 298.271 276.171 298.975C276.437 299.651 276.5 300.39 276.352 301.101C276.205 301.812 275.854 302.466 275.341 302.982C274.063 304.273 271.431 305.225 267.87 304.042C267.758 304.005 267.635 304.014 267.53 304.066C267.424 304.119 267.343 304.211 267.305 304.323C267.271 304.435 267.281 304.556 267.333 304.661C267.386 304.766 267.477 304.847 267.588 304.886C268.67 305.276 269.808 305.494 270.958 305.532Z" fill="#001F32"/>
<path d="M259.097 295.464C257.586 295.324 256.449 295.183 254.731 294.968C253.145 294.777 250.978 294.504 247.484 294.14C246.508 294.032 245.566 293.721 244.718 293.228C243.87 292.734 243.135 292.069 242.561 291.275C239.24 286.904 239.614 279.204 239.905 277.383C240.145 275.868 241.855 274.899 244.985 274.46C248.041 274.116 251.126 274.116 254.183 274.46C255.793 274.626 269.955 276.216 269.723 281.324C269.449 287.053 267.954 291.143 265.265 293.461C263.774 294.775 261.85 295.496 259.861 295.489C259.554 295.497 259.321 295.481 259.097 295.464ZM241.664 277.631C241.332 279.734 241.266 286.614 243.98 290.174C244.408 290.778 244.961 291.285 245.601 291.659C246.241 292.033 246.953 292.266 247.691 292.343C251.186 292.741 253.361 293.005 254.946 293.171C256.656 293.378 257.777 293.519 259.271 293.66C260.14 293.743 261.016 293.647 261.846 293.377C262.676 293.108 263.441 292.672 264.094 292.095C266.402 290.1 267.689 286.44 267.938 281.216C267.938 280.314 266.485 279.221 263.945 278.294C260.718 277.212 257.374 276.511 253.983 276.207C252.329 276.032 250.667 275.941 249.003 275.934C244.371 275.967 241.797 276.803 241.664 277.631Z" fill="#001F32"/>
<path d="M295.246 298.089C291.926 297.832 291.029 297.692 283.218 296.292C282.068 296.14 280.965 295.741 279.984 295.122C279.004 294.503 278.17 293.679 277.54 292.708C275.05 288.775 276.394 283.112 276.859 281.473C277.258 280.041 279.059 279.196 282.355 278.89C285.38 278.666 288.42 278.78 291.42 279.229C294.616 279.693 302.037 281.134 301.995 284.553C301.946 288.204 300.285 294.761 297.679 297.137C297.087 297.723 296.296 298.066 295.462 298.097L295.246 298.089ZM278.578 281.953C278.279 282.996 276.917 288.361 279.051 291.764C279.554 292.521 280.215 293.16 280.988 293.639C281.762 294.117 282.63 294.424 283.533 294.537C291.262 295.928 292.15 296.061 295.388 296.317C295.593 296.313 295.796 296.266 295.983 296.181C296.17 296.095 296.337 295.973 296.475 295.821C298.492 293.983 300.169 288.146 300.211 284.536C300.211 283.609 297.421 281.895 291.171 280.993C289.178 280.699 287.167 280.547 285.152 280.537C281.226 280.504 278.752 281.208 278.544 281.953H278.578Z" fill="#001F32"/>
<path d="M276.985 284.644C277.171 284.642 277.351 284.581 277.5 284.47C277.597 284.403 277.679 284.317 277.742 284.218C277.805 284.119 277.848 284.008 277.867 283.893C277.886 283.777 277.882 283.658 277.855 283.544C277.827 283.43 277.777 283.322 277.708 283.228C276.172 281.1 270.361 281.067 268.377 281.961C268.162 282.06 267.994 282.24 267.91 282.462C267.826 282.683 267.833 282.929 267.929 283.145C267.977 283.251 268.046 283.347 268.131 283.426C268.217 283.506 268.317 283.568 268.427 283.609C268.536 283.649 268.653 283.668 268.77 283.664C268.886 283.66 269.001 283.632 269.108 283.584C270.569 282.93 275.416 283.104 276.255 284.271C276.339 284.386 276.448 284.48 276.575 284.545C276.702 284.609 276.843 284.643 276.985 284.644Z" fill="#001F32"/>
<path d="M211.938 276.671L240.701 278.012L241.216 282.226L211.938 278.873V276.671Z" fill="#001F32"/>
<path d="M296.969 276.091C298.937 254.996 291.524 243.257 286.75 240.003C270.347 237.453 280.566 254.583 249.478 254.839C224.574 255.021 229.904 282.119 210.504 280.256C205.921 259.558 226.774 224.985 250.731 222.882C274.689 220.779 290.577 223.71 298.804 241.295C307.03 258.879 296.969 276.091 296.969 276.091Z" fill="white"/>
<path d="M285.926 240.003C285.976 239.879 291.09 227.196 275.234 217.079L273.84 217.642C289.172 227.428 284.233 239.689 284.183 239.813L285.926 240.003Z" fill="#E5E4ED"/>
<path d="M212.328 298.362C216.761 298.362 220.355 293.825 220.355 288.229C220.355 282.632 216.761 278.095 212.328 278.095C207.895 278.095 204.301 282.632 204.301 288.229C204.301 293.825 207.895 298.362 212.328 298.362Z" fill="#C87554"/>
<path d="M264.775 272.275C265.113 272.275 265.44 272.16 265.704 271.949C265.967 271.738 266.151 271.444 266.224 271.116C266.297 270.787 266.256 270.443 266.108 270.14C265.959 269.838 265.711 269.595 265.406 269.452C259.595 266.753 252.887 268.5 250.372 269.154C250.183 269.203 250.005 269.288 249.849 269.406C249.693 269.523 249.562 269.67 249.463 269.838C249.364 270.006 249.299 270.192 249.272 270.385C249.245 270.578 249.256 270.774 249.305 270.963C249.355 271.151 249.44 271.329 249.558 271.484C249.676 271.64 249.823 271.771 249.991 271.869C250.16 271.968 250.346 272.033 250.54 272.06C250.733 272.087 250.93 272.076 251.119 272.027C253.361 271.439 259.296 269.891 264.152 272.134C264.346 272.229 264.559 272.277 264.775 272.275Z" fill="white"/>
<path d="M291.764 277.756C292.052 277.756 292.335 277.672 292.576 277.515C292.818 277.358 293.009 277.134 293.125 276.871C293.241 276.607 293.278 276.316 293.231 276.032C293.184 275.748 293.055 275.484 292.86 275.272C291.067 273.31 288.51 272.159 284.816 271.646C284.622 271.619 284.425 271.631 284.236 271.68C284.047 271.729 283.87 271.815 283.714 271.933C283.559 272.05 283.428 272.197 283.329 272.366C283.23 272.534 283.166 272.719 283.139 272.912C283.112 273.105 283.124 273.302 283.173 273.49C283.223 273.679 283.309 273.856 283.427 274.011C283.545 274.166 283.692 274.297 283.861 274.395C284.029 274.494 284.216 274.558 284.409 274.585C287.381 274.999 289.39 275.852 290.668 277.276C290.807 277.427 290.977 277.548 291.165 277.631C291.354 277.713 291.558 277.756 291.764 277.756Z" fill="white"/>
<path d="M281.411 474.176C282.241 474.176 283.071 474.176 283.901 474.093C289.072 473.718 294.111 472.292 298.71 469.903C303.308 467.514 307.367 464.212 310.639 460.201L310.183 459.82C306.963 463.768 302.968 467.018 298.442 469.37C293.917 471.722 288.957 473.127 283.868 473.497C275.235 474.085 267.133 471.543 261.637 466.534L261.23 466.973C266.303 471.609 273.566 474.176 281.411 474.176Z" fill="white" fill-opacity="0.12"/>
<path d="M261.131 284.172C261.131 286.407 259.62 288.212 257.761 288.212C255.901 288.212 254.391 286.407 254.391 284.172C254.391 281.937 255.901 280.14 257.761 280.14C259.62 280.14 261.131 281.945 261.131 284.172Z" fill="#001F32"/>
<path d="M286.746 292.012C288.323 292.012 289.602 290.311 289.602 288.212C289.602 286.113 288.323 284.412 286.746 284.412C285.169 284.412 283.891 286.113 283.891 288.212C283.891 290.311 285.169 292.012 286.746 292.012Z" fill="#001F32"/>
<path d="M416.863 350.363L372.942 426.803L331.668 405.344C331.668 405.344 341.629 387.999 352.072 369.827L375.59 328.912L416.863 350.363Z" fill="#26C9AE"/>
<path d="M380.503 366.995C373.248 363.228 364.573 365.033 361.128 371.027C357.683 377.021 360.771 384.944 368.026 388.711C375.282 392.478 383.948 390.674 387.393 384.68C390.838 378.685 387.758 370.746 380.503 366.995Z" fill="#0E5B99"/>
<path d="M376.981 334.641V334.707L374.491 338.987L339.983 399.019L337.492 403.307L338.712 403.937L340.024 404.624L341.551 405.452L341.983 405.675L343.511 406.503L344.83 407.182L367.036 418.731L367.924 419.195L369.253 419.874L371.486 421.033H371.535L373.03 418.425L373.519 417.597L373.984 416.769L382.983 401.113L407.413 358.601L407.704 358.095L408.484 356.738L409.132 355.612L409.962 354.221V354.155L410.31 353.542V353.468L410.9 352.449V352.391L376.981 334.641ZM339.891 402.645L340.954 400.79L341.668 399.549L375.321 340.991L375.86 340.055L377.678 336.885L380.999 338.607L382.003 339.128L405.371 351.274L406.791 352.01L408.683 352.996L408.492 353.31V353.376L408.086 354.088L407.696 354.759L406.865 356.166L406.517 356.771L406.384 357.011L389.782 385.93L387.831 389.349L382.559 398.53L372.756 415.602L371.975 416.943L371.195 418.309L371.071 418.524L370.971 418.706L370.822 418.624L369.112 417.738L367.659 416.984L345.096 405.352L344.175 404.872L343.203 404.367L342.423 403.961L341.103 403.274L340.904 403.167L339.891 402.645Z" fill="#0E5B99"/>
<path d="M372.798 415.718L372.665 415.652C371.793 415.221 370.793 415.125 369.855 415.381C368.917 415.638 368.106 416.229 367.576 417.042C367.559 417.062 367.545 417.085 367.535 417.109C367.258 417.583 367.101 418.117 367.078 418.665L371.577 421.008L374.068 416.72C373.719 416.301 373.287 415.959 372.798 415.718Z" fill="#0E5B99"/>
<path d="M406.974 356.233L406.85 356.166C406.008 355.726 405.375 354.97 405.091 354.066C404.806 353.161 404.892 352.181 405.33 351.34V351.265C405.616 350.776 406.011 350.359 406.484 350.048L410.975 352.383L408.485 356.671C407.958 356.623 407.445 356.474 406.974 356.233Z" fill="#0E5B99"/>
<path d="M341.543 399.474L341.676 399.54C342.518 399.981 343.15 400.736 343.435 401.641C343.72 402.545 343.633 403.525 343.195 404.367V404.441C342.915 404.924 342.525 405.335 342.058 405.642L337.559 403.307L340.049 399.027C340.571 399.078 341.079 399.23 341.543 399.474Z" fill="#0E5B99"/>
<path d="M375.766 339.989L375.891 340.055C376.763 340.487 377.763 340.585 378.703 340.33C379.642 340.075 380.455 339.486 380.988 338.673C381.005 338.65 381.019 338.625 381.029 338.598C381.302 338.123 381.459 337.589 381.486 337.042L376.986 334.707L374.496 338.988C374.847 339.404 375.279 339.745 375.766 339.989Z" fill="#0E5B99"/>
<g style="mix-blend-mode:multiply">
<path d="M372.522 427.523L332.078 406.503L375.992 330.062L416.443 351.091L372.522 427.523Z" fill="#DADADA"/>
</g>
<path d="M376.168 330.625L332.246 407.066L373.528 428.517L417.45 352.085L376.168 330.625Z" fill="#26C9AE"/>
<path d="M381.081 368.717C373.834 364.95 365.159 366.755 361.714 372.749C358.269 378.743 361.357 386.658 368.612 390.433C375.868 394.208 384.534 392.395 387.979 386.401C391.424 380.407 388.336 372.484 381.081 368.717Z" fill="#0E5B99"/>
<path d="M377.571 336.363V336.421L375.587 339.882L375.114 340.709L341.386 399.383L340.606 400.741L338.779 403.936L338.148 405.029L339.468 405.708L342.648 407.364L344.225 408.192L367.668 420.42L368.73 420.975L371.752 422.539L372.167 422.755L374.392 418.88L374.624 418.474L383.44 403.133L408.568 359.387L409.116 358.443L411.183 354.833V354.767L411.531 354.155L411.573 354.088L410.361 353.451L405.546 350.967L381.124 338.267L377.571 336.363ZM342.39 405.369L341.793 405.054L340.473 404.367L341.104 403.274L341.751 402.14L342.258 401.262L342.739 400.434L376.168 342.266L376.442 341.786L377.214 340.436L378.268 338.615L380.153 339.592L381.572 340.337L382.817 340.983L404.948 352.474L405.953 353.004L407.347 353.724L408.045 354.097L409.265 354.718L408.875 355.396L408.144 356.671L407.422 357.922L407.206 358.311L382.925 400.534L373.794 416.429L373.254 417.365L372.698 418.342L371.47 420.478L369.602 419.501L368.191 418.772L367.161 418.234L345.055 406.726L343.826 406.081L342.39 405.369Z" fill="#0E5B99"/>
<path d="M373.388 417.44L373.255 417.374C372.383 416.942 371.382 416.844 370.443 417.099C369.503 417.354 368.69 417.943 368.158 418.756C368.147 418.783 368.133 418.808 368.116 418.831C367.842 419.305 367.688 419.84 367.668 420.387L372.159 422.722L374.649 418.441C374.303 418.023 373.874 417.682 373.388 417.44Z" fill="#0E5B99"/>
<path d="M407.563 357.955L407.438 357.888C406.595 357.449 405.961 356.695 405.674 355.79C405.388 354.885 405.473 353.904 405.911 353.062L405.952 352.987C406.227 352.503 406.614 352.091 407.081 351.787L411.58 354.121L409.09 358.402C408.557 358.354 408.038 358.202 407.563 357.955Z" fill="#0E5B99"/>
<path d="M342.131 401.196L342.256 401.262C342.674 401.479 343.045 401.776 343.348 402.136C343.652 402.496 343.881 402.912 344.023 403.36C344.164 403.808 344.216 404.28 344.175 404.748C344.134 405.217 344.001 405.672 343.783 406.089C343.772 406.116 343.758 406.141 343.742 406.164C343.462 406.645 343.076 407.055 342.613 407.364L338.113 405.029L340.604 400.741C341.138 400.793 341.656 400.947 342.131 401.196Z" fill="#0E5B99"/>
<path d="M376.309 341.711L376.441 341.777C377.314 342.208 378.316 342.305 379.255 342.049C380.195 341.792 381.007 341.201 381.538 340.387C381.55 340.363 381.564 340.341 381.58 340.32C381.854 339.846 382.008 339.311 382.028 338.764L377.537 336.421L375.047 340.709C375.395 341.125 375.824 341.466 376.309 341.711Z" fill="#0E5B99"/>
<g style="mix-blend-mode:multiply">
<path d="M373.555 428.475L333.211 407.513L376.925 331.429L417.269 352.399L373.555 428.475Z" fill="#DADADA"/>
</g>
<path d="M377.098 331.992L333.176 408.424L374.458 429.883L418.379 353.451L377.098 331.992Z" fill="#26C9AE"/>
<path d="M382.014 370.084C374.767 366.308 366.093 368.113 362.648 374.107C359.203 380.101 362.291 388.024 369.546 391.791C376.801 395.558 385.468 393.762 388.913 387.768C392.358 381.774 389.27 373.851 382.014 370.084Z" fill="#0E5B99"/>
<path d="M378.503 337.721V337.787L377 340.395L376.27 341.661L376.029 342.067L342.567 400.244L342.044 401.155L341.496 402.107L340.89 403.166L340.06 404.624L339.437 405.708L339.047 406.387L343.546 408.722L368.599 421.753L371.92 423.458L373.132 424.088L375.622 419.807L380.918 410.485L383.043 406.784L383.873 405.294L410.014 359.759L412.504 355.413L411.184 354.726L409.972 354.097L408.437 353.269L406.486 352.275L405.191 351.605L381.906 339.501L380.777 338.921L378.503 337.721ZM341.595 405.418L341.795 405.054L342.425 403.961L343.189 402.628L343.397 402.206L343.521 401.991L360.281 372.832L362.249 369.405L377.332 343.152L377.897 342.175L379.017 340.221L379.15 339.981L379.349 340.08L381.059 340.974L382.462 341.711L404.876 353.36L405.589 353.732L406.818 354.378L407.598 354.775L408.819 355.405L409.126 355.579L410.13 356.092L408.81 358.393L408.304 359.263L383.317 402.761L374.402 418.276L374.128 418.748L372.343 421.86L371.513 421.438L369.023 420.138L367.777 419.493L344.65 407.472L343.256 406.743L341.338 405.749L341.595 405.418Z" fill="#0E5B99"/>
<path d="M374.317 418.805L374.184 418.739C373.313 418.304 372.311 418.204 371.371 418.459C370.431 418.714 369.618 419.306 369.087 420.122C369.077 420.148 369.063 420.173 369.046 420.196C368.77 420.67 368.616 421.205 368.598 421.753L373.089 424.087L375.579 419.807C375.235 419.387 374.805 419.045 374.317 418.805Z" fill="#0E5B99"/>
<path d="M408.492 359.321L408.368 359.246C407.525 358.807 406.89 358.052 406.604 357.148C406.318 356.243 406.403 355.262 406.84 354.42C406.851 354.396 406.865 354.374 406.882 354.353C407.159 353.868 407.545 353.454 408.011 353.145L412.51 355.488L410.02 359.768C409.486 359.72 408.967 359.568 408.492 359.321Z" fill="#0E5B99"/>
<path d="M343.062 402.554L343.187 402.628C344.03 403.068 344.664 403.822 344.95 404.727C345.237 405.632 345.152 406.613 344.714 407.455C344.717 407.48 344.717 407.505 344.714 407.529C344.435 408.01 344.049 408.421 343.585 408.73L339.086 406.387L341.576 402.107C342.096 402.16 342.6 402.312 343.062 402.554Z" fill="#0E5B99"/>
<path d="M377.238 343.069L377.371 343.135C378.242 343.571 379.244 343.67 380.185 343.415C381.125 343.16 381.938 342.568 382.468 341.753C382.479 341.726 382.493 341.701 382.51 341.678C382.786 341.204 382.94 340.669 382.958 340.122L378.467 337.787L375.977 342.067C376.32 342.488 376.75 342.829 377.238 343.069Z" fill="#0E5B99"/>
<path d="M350.731 543.314C350.731 543.314 352.715 550.053 353.329 551.642C355.537 557.363 361.506 561.147 367.657 561.147H368.811C375.078 561.147 380.208 557.007 382.79 551.328C383.698 549.261 384.461 547.134 385.073 544.961C385.874 542.726 386.124 540.331 385.803 537.979C385.482 535.627 384.598 533.386 383.227 531.445C381.856 529.505 380.037 527.921 377.924 526.829C375.811 525.736 373.465 525.166 371.085 525.166H365.2C354.782 525.166 346.987 533.611 350.731 543.314Z" fill="#FCA649"/>
<path d="M400.265 538.612C400.265 538.612 402.283 545.235 402.872 546.8C404.997 552.404 410.053 555.906 415.025 555.592L415.955 555.542C421.027 555.236 424.92 550.864 426.663 545.053C427.276 542.928 427.764 540.769 428.124 538.587C430.332 528.784 423.924 519.007 415.623 519.504L410.866 519.793C402.449 520.298 396.654 529.107 400.265 538.612Z" fill="#FCA649"/>
<path d="M315.743 531.649C315.743 531.649 316.664 538.537 317.004 540.176C318.225 546.071 322.815 550.392 328.02 550.98L328.991 551.088C334.279 551.676 339.069 548.066 341.883 542.643C342.886 540.662 343.767 538.621 344.523 536.533C348.516 527.269 343.601 516.506 334.943 515.538L329.962 514.983C321.188 513.973 313.667 521.656 315.743 531.649Z" fill="#FCA649"/>
<path d="M453.462 478.597C453.462 517.417 418.107 548.886 374.501 548.886C330.895 548.886 286.367 517.425 286.367 478.597C286.367 439.768 330.895 408.316 374.501 408.316C418.107 408.316 453.462 439.785 453.462 478.597Z" fill="#FCA649"/>
<path d="M405.282 465.367C405.282 467.553 403.92 469.333 402.227 469.333C400.533 469.333 399.172 467.553 399.172 465.367C399.172 463.181 400.542 461.401 402.227 461.401C403.912 461.401 405.282 463.173 405.282 465.367Z" fill="#2D1F25"/>
<path d="M433.66 465.367C433.66 467.553 432.291 469.333 430.606 469.333C428.92 469.333 427.551 467.553 427.551 465.367C427.551 463.181 428.92 461.401 430.606 461.401C432.291 461.401 433.66 463.173 433.66 465.367Z" fill="#2D1F25"/>
<path d="M413.004 526.052C409.839 526.05 406.716 525.328 403.873 523.941C400.8 522.417 398.092 520.252 395.932 517.592C393.772 514.932 392.211 511.84 391.354 508.526C391.338 508.46 391.336 508.391 391.346 508.325C391.357 508.258 391.38 508.194 391.416 508.136C391.451 508.078 391.498 508.028 391.553 507.988C391.608 507.949 391.67 507.92 391.736 507.905C391.802 507.887 391.87 507.883 391.937 507.893C392.004 507.902 392.068 507.925 392.126 507.96C392.185 507.994 392.235 508.04 392.275 508.095C392.315 508.15 392.343 508.211 392.359 508.277C393.177 511.446 394.669 514.403 396.735 516.946C398.8 519.489 401.39 521.558 404.329 523.014C408.231 524.901 414.515 526.417 422.285 522.89C422.407 522.849 422.541 522.855 422.659 522.906C422.777 522.957 422.873 523.051 422.926 523.168C422.98 523.285 422.988 523.418 422.949 523.541C422.911 523.664 422.828 523.768 422.716 523.833C419.676 525.26 416.364 526.017 413.004 526.052Z" fill="#2D1F25"/>
<path d="M424.741 524.264C434.4 524.264 442.231 515.487 442.231 504.659C442.231 493.832 434.4 485.054 424.741 485.054C415.081 485.054 407.25 493.832 407.25 504.659C407.25 515.487 415.081 524.264 424.741 524.264Z" fill="#FCA649"/>
<path d="M428.291 520.977C436.956 520.977 443.98 512.937 443.98 503.02C443.98 493.102 436.956 485.063 428.291 485.063C419.626 485.063 412.602 493.102 412.602 503.02C412.602 512.937 419.626 520.977 428.291 520.977Z" fill="#FFC78B"/>
<path d="M428.291 503.591C428.291 505.396 427.287 506.853 426.05 506.853C424.813 506.853 423.809 505.396 423.809 503.591C423.809 501.786 424.805 500.329 426.05 500.329C427.295 500.329 428.291 501.786 428.291 503.591Z" fill="#2D1F25"/>
<path d="M437.881 503.591C437.881 505.396 436.877 506.853 435.64 506.853C434.403 506.853 433.398 505.396 433.398 503.591C433.398 501.786 434.403 500.329 435.64 500.329C436.877 500.329 437.881 501.786 437.881 503.591Z" fill="#2D1F25"/>
<path d="M390.122 509.254C387.808 509.182 385.611 508.217 383.996 506.563C383.948 506.515 383.909 506.459 383.883 506.396C383.857 506.334 383.844 506.267 383.844 506.199C383.844 506.131 383.857 506.064 383.883 506.002C383.909 505.939 383.948 505.882 383.996 505.835C384.094 505.74 384.225 505.686 384.361 505.686C384.498 505.686 384.629 505.74 384.726 505.835C386.171 507.35 388.985 508.641 391.367 508.053C393.393 507.548 394.829 505.793 395.642 502.854C395.661 502.789 395.692 502.728 395.734 502.674C395.776 502.621 395.828 502.576 395.888 502.543C395.947 502.51 396.012 502.489 396.08 502.481C396.148 502.474 396.216 502.479 396.282 502.498C396.347 502.515 396.408 502.545 396.462 502.587C396.515 502.628 396.56 502.679 396.593 502.738C396.626 502.796 396.647 502.861 396.655 502.928C396.663 502.995 396.657 503.063 396.639 503.127C395.493 507.267 393.318 508.633 391.658 509.047C391.157 509.181 390.641 509.25 390.122 509.254Z" fill="#2D1F25"/>
<path d="M395.101 453.602C395.014 453.602 394.928 453.579 394.852 453.536C394.732 453.47 394.642 453.358 394.603 453.227C394.564 453.095 394.579 452.953 394.645 452.832C394.959 452.277 395.389 451.795 395.906 451.42C396.423 451.044 397.015 450.783 397.641 450.655C398.148 450.595 398.661 450.658 399.138 450.838C399.615 451.018 400.041 451.31 400.381 451.69C400.429 451.738 400.467 451.794 400.493 451.857C400.519 451.919 400.532 451.986 400.532 452.054C400.532 452.122 400.519 452.189 400.493 452.251C400.467 452.314 400.429 452.371 400.381 452.418C400.333 452.466 400.276 452.504 400.213 452.53C400.15 452.556 400.083 452.569 400.015 452.569C399.948 452.569 399.88 452.556 399.818 452.53C399.755 452.504 399.698 452.466 399.65 452.418C399.422 452.154 399.133 451.948 398.807 451.82C398.482 451.692 398.13 451.644 397.782 451.682C397.316 451.79 396.878 451.993 396.493 452.278C396.109 452.563 395.788 452.924 395.549 453.337C395.505 453.417 395.44 453.484 395.361 453.531C395.283 453.577 395.193 453.602 395.101 453.602Z" fill="#2D1F25"/>
<path d="M431.43 453.602C431.324 453.601 431.22 453.567 431.134 453.505C431.048 453.442 430.983 453.355 430.949 453.254C430.746 452.755 430.403 452.324 429.962 452.013C429.52 451.701 428.999 451.523 428.459 451.499C427.921 451.501 427.399 451.676 426.969 451.999C426.54 452.321 426.227 452.773 426.076 453.288C426.012 453.397 425.91 453.48 425.789 453.52C425.668 453.56 425.537 453.554 425.42 453.504C425.302 453.455 425.207 453.364 425.153 453.249C425.098 453.135 425.087 453.004 425.121 452.882C425.357 452.177 425.81 451.564 426.415 451.13C427.02 450.696 427.747 450.463 428.492 450.464C429.242 450.501 429.964 450.756 430.57 451.197C431.177 451.638 431.64 452.247 431.904 452.948C431.927 453.012 431.938 453.079 431.934 453.147C431.931 453.215 431.914 453.281 431.885 453.342C431.855 453.403 431.814 453.457 431.763 453.502C431.712 453.547 431.653 453.581 431.588 453.602C431.536 453.612 431.483 453.612 431.43 453.602Z" fill="#2D1F25"/>
<path d="M413.391 424.112L421.053 433.492C421.053 433.492 449.426 415.792 454.39 422.663C447.816 413.863 433.048 408.349 413.391 424.112Z" fill="#FCA649"/>
<path d="M342.407 543.157H342.249C330.138 540.59 321.181 533.727 315.262 529.182L313.809 528.047C313.699 527.965 313.626 527.842 313.607 527.707C313.587 527.571 313.623 527.433 313.705 527.323C313.788 527.213 313.911 527.141 314.047 527.121C314.183 527.102 314.322 527.137 314.432 527.22L315.893 528.337C321.704 532.816 330.578 539.597 342.457 542.113C342.59 542.143 342.707 542.224 342.781 542.339C342.856 542.453 342.882 542.592 342.855 542.726C342.835 542.836 342.781 542.936 342.701 543.014C342.62 543.091 342.517 543.141 342.407 543.157Z" fill="#2D1F25"/>
<path d="M402.085 544.986C401.966 544.984 401.85 544.941 401.759 544.864C401.668 544.786 401.606 544.679 401.586 544.561C401.565 544.444 401.586 544.322 401.646 544.219C401.705 544.115 401.799 544.035 401.911 543.993C404.875 542.875 420.066 536.964 427.645 529.918C427.743 529.823 427.874 529.77 428.01 529.77C428.147 529.77 428.278 529.823 428.375 529.918C428.424 529.966 428.462 530.023 428.488 530.085C428.514 530.148 428.527 530.215 428.527 530.283C428.527 530.35 428.514 530.417 428.488 530.48C428.462 530.542 428.424 530.599 428.375 530.647C420.622 537.858 405.273 543.835 402.268 544.961C402.21 544.982 402.147 544.991 402.085 544.986Z" fill="#2D1F25"/>
<path d="M421.055 433.492C423.479 429.626 439.126 409.26 454.392 422.664C465.856 432.723 446.365 451.119 446.365 451.119C433.274 434.635 421.055 433.492 421.055 433.492Z" fill="#FFC78B"/>
<path d="M392.679 430.272C389.699 426.273 385.05 411.446 366.173 415.701C347.296 419.956 344.225 434.784 343.287 441.118C342.631 445.247 343.263 449.478 345.097 453.238C345.744 454.397 353.888 455.945 353.888 455.945L373.81 432.218L389.716 432.739L392.679 430.272Z" fill="#FCA649"/>
<path d="M353.888 455.929C351.398 448.966 353.498 427.043 364.879 420.983C376.26 414.923 384.271 420.726 389.7 432.723C365.684 437.243 358.545 455.026 353.888 455.929Z" fill="#FFC78B"/>
<path d="M461.27 367.351C454.629 364.164 431.677 346.761 427.725 342.671C423.774 338.582 419.15 338.217 412.484 342.671C405.818 347.126 396.214 356.067 393.981 359.759C391.474 364.137 389.256 368.672 387.34 373.337C386.202 376.259 388.062 380.49 390.37 378.139C387.265 382.717 386.916 387.9 388.103 389.638C388.388 390.114 388.835 390.472 389.362 390.647C389.889 390.822 390.462 390.802 390.976 390.59C390.245 393.571 392.794 396.982 397.309 393.67C395.242 396.725 402.672 398.447 406.374 395.028C410.077 391.609 421.997 381.475 422.404 380.954C422.811 380.432 424.131 382.51 426.165 385.01C430.929 390.864 437.911 393.066 447.748 392.61C449.566 392.768 463.586 402.719 463.586 402.719L477.757 378.271C477.757 378.271 465.703 369.487 461.27 367.351Z" fill="#BF6745"/>
<path d="M390.983 378.545C391.058 378.437 398.297 367.782 401.285 363.179C403.31 360.25 406.046 357.88 409.238 356.291C409.62 356.075 409.96 355.885 410.242 355.711L409.462 354.436L408.499 354.991C405.1 356.701 402.186 359.235 400.023 362.359C397.043 366.921 389.813 377.593 389.738 377.7L390.983 378.545Z" fill="#332624"/>
<path d="M391.674 390.839C392.123 389.605 400.308 378.553 403.811 373.834L406.011 370.853C407.779 368.37 415.001 362.276 416.885 361.614L416.387 360.198C414.071 361.026 406.6 367.476 404.765 369.976L402.574 372.948C395.285 382.783 390.678 389.125 390.238 390.334L391.674 390.839Z" fill="#332624"/>
<path d="M397.85 394.167C403.86 387.842 419.848 371.176 421.599 370.017L420.769 368.767C418.52 370.257 397.642 392.205 396.754 393.14L397.85 394.167Z" fill="#332624"/>
<path d="M252.082 530.109C238.568 530.051 210.759 527.203 183.747 521.83C165.982 518.32 135.234 510.993 128.867 501.356L129.465 500.967C134.08 507.946 153.406 515.107 183.888 521.135C210.85 526.458 238.609 529.306 252.082 529.356V530.109Z" fill="white" fill-opacity="0.12"/>
<path d="M257.95 496.289L176.084 464.299L176.159 464.001C177.553 458.421 178.649 433.087 178.01 405.658C177.254 373.569 174.44 351.886 170.281 346.182L170.862 345.76C176.673 353.732 178.275 386.699 178.724 405.642C179.296 430.106 178.458 456.972 176.931 463.86L258.216 495.643L257.95 496.289Z" fill="white" fill-opacity="0.12"/>
<path d="M256.712 527.137C265.395 527.137 271.38 521.888 276.635 522.939C280.57 523.726 296.151 528.909 303.091 531.127C310.031 533.346 324.201 535.821 328.26 534.34C332.32 532.858 330.269 530.39 326.957 529.894C323.645 529.397 313.866 526.334 312.845 525.34C311.824 524.347 329.696 524.057 335.59 520.969C340.405 518.485 336.603 515.571 333.573 516.109C329.946 516.755 316.971 517.765 313.733 516.813C310.496 515.861 332.361 512.798 337.35 508.716C341.949 504.957 338.114 502.838 333.266 503.542C328.684 504.212 315.003 507.681 311.749 507.424C308.495 507.168 329.281 501.629 333.067 497.986C336.097 495.08 332.809 492.597 328.601 493.847C324.392 495.097 308.91 497.084 305.067 497.059C301.647 497.059 299.862 497.307 298.625 494.84C297.388 492.373 305.307 489.782 309.358 488.341C313.592 486.834 310.612 482.339 307.814 482.678C304.843 483.026 294.682 483.895 290.706 485.899C285.908 488.316 282.023 493.11 280.744 494.095C279.466 495.08 263.893 498.458 261.162 497.721C258.431 496.985 245.198 527.137 256.712 527.137Z" fill="#C87554"/>
</svg>
