<svg width="212" height="72" viewBox="0 0 212 72" fill="none" xmlns="http://www.w3.org/2000/svg">
<rect width="212" height="72" rx="10.9571" fill="#090909"/>
<g filter="url(#filter0_ii_255_43)">
<path d="M25.4391 18.2322C25.0183 18.6757 24.7695 19.364 24.7695 20.2554V52.1024C24.7695 52.9952 25.0183 53.6821 25.4391 54.1256L25.5461 54.2293L43.4627 36.3892V36.1789V35.9687L25.5461 18.1271L25.4391 18.2322Z" fill="url(#paint0_linear_255_43)"/>
<path d="M49.4322 42.3371L43.4609 36.3884V36.1782V35.968L49.4336 30.0208L49.5681 30.0971L56.6442 34.1003C58.6645 35.2436 58.6645 37.1142 56.6442 38.259L49.5681 42.2622L49.4322 42.3371Z" fill="url(#paint1_linear_255_43)"/>
<g filter="url(#filter1_i_255_43)">
<path d="M49.5683 42.2608L43.4597 36.1782L25.4375 54.1249C26.1027 54.8277 27.2033 54.9141 28.4426 54.2142L49.5683 42.2608Z" fill="url(#paint2_linear_255_43)"/>
</g>
<path d="M49.5683 30.0962L28.4426 18.1442C27.2033 17.4429 26.1027 17.5308 25.4375 18.2335L43.4611 36.1802L49.5683 30.0962Z" fill="url(#paint3_linear_255_43)"/>
</g>
<path d="M103.604 37.9211C100.392 37.9211 97.7734 40.3435 97.7734 43.6799C97.7734 46.996 100.392 49.4388 103.604 49.4388C106.818 49.4388 109.437 46.996 109.437 43.6799C109.435 40.3435 106.817 37.9211 103.604 37.9211ZM103.604 47.1721C101.844 47.1721 100.326 45.7327 100.326 43.6813C100.326 41.6082 101.845 40.1905 103.604 40.1905C105.365 40.1905 106.882 41.6082 106.882 43.6813C106.882 45.7313 105.365 47.1721 103.604 47.1721ZM90.8827 37.9211C87.6702 37.9211 85.0518 40.3435 85.0518 43.6799C85.0518 46.996 87.6702 49.4388 90.8827 49.4388C94.0965 49.4388 96.7149 46.996 96.7149 43.6799C96.7149 40.3435 94.0965 37.9211 90.8827 37.9211ZM90.8827 47.1721C89.1221 47.1721 87.6046 45.7327 87.6046 43.6813C87.6046 41.6082 89.1234 40.1905 90.8827 40.1905C92.6433 40.1905 94.1607 41.6082 94.1607 43.6813C94.1621 45.7313 92.6433 47.1721 90.8827 47.1721ZM75.7517 39.6895V42.1323H81.6495C81.4733 43.5066 81.0116 44.51 80.3068 45.2073C79.449 46.0577 78.1064 46.996 75.7517 46.996C72.1212 46.996 69.2829 44.0943 69.2829 40.4952C69.2829 36.8961 72.1212 33.9944 75.7517 33.9944C77.7103 33.9944 79.1404 34.758 80.1962 35.7397L81.9349 34.016C80.4598 32.62 78.5025 31.5516 75.7517 31.5516C70.7786 31.5516 66.5977 35.5651 66.5977 40.4952C66.5977 45.4253 70.7786 49.4388 75.7517 49.4388C78.4356 49.4388 80.4612 48.5654 82.0442 46.9297C83.6723 45.3156 84.179 43.0462 84.179 41.2142C84.179 40.6482 84.1353 40.1242 84.0465 39.6882L75.7517 39.6895ZM137.636 41.5866C137.153 40.3002 135.677 37.9211 132.663 37.9211C129.67 37.9211 127.183 40.2555 127.183 43.6799C127.183 46.908 129.649 49.4388 132.948 49.4388C135.611 49.4388 137.151 47.8247 137.79 46.8864L135.81 45.577C135.15 46.537 134.247 47.1694 132.948 47.1694C131.651 47.1694 130.726 46.5803 130.132 45.424L137.9 42.2392L137.636 41.5866ZM129.714 43.5066C129.649 41.2806 131.453 40.1472 132.752 40.1472C133.764 40.1472 134.622 40.6496 134.908 41.3686L129.714 43.5066ZM123.4 49.0908H125.951V32.1637H123.4V49.0908ZM119.217 39.2088H119.13C118.558 38.5318 117.457 37.9211 116.072 37.9211C113.167 37.9211 110.505 40.4519 110.505 43.703C110.505 46.931 113.167 49.4401 116.072 49.4401C117.458 49.4401 118.558 48.8294 119.13 48.1321H119.217V48.9608C119.217 51.1638 118.029 52.3419 116.116 52.3419C114.553 52.3419 113.585 51.2302 113.189 50.2918L110.966 51.2085C111.604 52.7345 113.298 54.6113 116.116 54.6113C119.108 54.6113 121.639 52.8659 121.639 48.6114V38.2718H119.219L119.217 39.2088ZM116.292 47.1721C114.531 47.1721 113.057 45.7097 113.057 43.703C113.057 41.6732 114.531 40.1905 116.292 40.1905C118.029 40.1905 119.394 41.6732 119.394 43.703C119.394 45.7097 118.029 47.1721 116.292 47.1721ZM149.593 32.1637H143.486V49.0908H146.033V42.6779H149.592C152.416 42.6779 155.194 40.6509 155.194 37.4215C155.194 34.1921 152.417 32.1637 149.593 32.1637ZM149.658 40.3219H146.033V34.5197H149.658C151.564 34.5197 152.646 36.0837 152.646 37.4215C152.646 38.7322 151.564 40.3219 149.658 40.3219ZM165.41 37.8913C163.564 37.8913 161.653 38.697 160.863 40.483L163.124 41.4187C163.608 40.483 164.509 40.177 165.453 40.177C166.771 40.177 168.111 40.961 168.133 42.3543V42.529C167.671 42.2677 166.683 41.8763 165.475 41.8763C163.037 41.8763 160.554 43.2047 160.554 45.6867C160.554 47.952 162.554 49.4103 164.794 49.4103C166.506 49.4103 167.452 48.648 168.044 47.7543H168.132V49.061H170.593V42.571C170.594 39.5677 168.33 37.8913 165.41 37.8913ZM165.101 47.168C164.268 47.168 163.103 46.7537 163.103 45.73C163.103 44.4233 164.553 43.9223 165.806 43.9223C166.924 43.9223 167.453 44.162 168.133 44.4883C167.935 46.0577 166.573 47.168 165.101 47.168ZM179.556 38.261L176.634 45.6H176.547L173.515 38.261H170.769L175.316 48.518L172.724 54.224H175.382L182.39 38.261H179.556ZM156.601 49.0908H159.148V32.1637H156.601V49.0908Z" fill="white"/>
<path d="M75.4341 22.1514C75.4341 23.2655 75.0957 24.1523 74.4175 24.8144C73.6478 25.6015 72.6435 25.995 71.4098 25.995C70.2281 25.995 69.2223 25.5962 68.3967 24.7984C67.5697 23.9994 67.1562 23.0102 67.1562 21.8296C67.1562 20.6477 67.5697 19.6585 68.3967 18.8608C69.2223 18.0617 70.2281 17.6629 71.4098 17.6629C71.9966 17.6629 72.5575 17.7746 73.0897 17.9966C73.6233 18.2199 74.0504 18.5164 74.3697 18.8874L73.6506 19.5894C73.1088 18.9578 72.3623 18.6427 71.4085 18.6427C70.546 18.6427 69.8009 18.9379 69.1718 19.5282C68.5427 20.1185 68.2289 20.8856 68.2289 21.8283C68.2289 22.7709 68.5427 23.5381 69.1718 24.1284C69.8009 24.7187 70.546 25.0138 71.4085 25.0138C72.3228 25.0138 73.0856 24.7173 73.6956 24.123C74.0913 23.7362 74.3206 23.1977 74.382 22.5077H71.4085V21.5491H75.3755C75.4164 21.7578 75.4341 21.9586 75.4341 22.1514Z" fill="white"/>
<path d="M81.7253 18.8196H77.9971V21.3484H81.3595V22.307H77.9971V24.8357H81.7253V25.8169H76.9449V17.8398H81.7253V18.8196Z" fill="white"/>
<path d="M86.1615 25.8169H85.1094V18.8196H82.8223V17.8398H88.4487V18.8196H86.1615V25.8169Z" fill="white"/>
<path d="M92.5193 25.8169V17.8398H93.5715V25.8169H92.5193Z" fill="white"/>
<path d="M98.2374 25.8169H97.1853V18.8196H94.8981V17.8398H100.525V18.8196H98.2374V25.8169Z" fill="white"/>
<path d="M111.175 24.7865C110.37 25.5922 109.37 25.9951 108.173 25.9951C106.976 25.9951 105.976 25.5922 105.172 24.7865C104.367 23.9808 103.966 22.9943 103.966 21.8283C103.966 20.6624 104.367 19.6758 105.172 18.8701C105.976 18.0645 106.976 17.6603 108.173 17.6603C109.363 17.6603 110.362 18.0658 111.17 18.8755C111.978 19.6851 112.382 20.669 112.382 21.8283C112.382 22.9943 111.979 23.9808 111.175 24.7865ZM105.949 24.1178C106.555 24.7161 107.296 25.0139 108.173 25.0139C109.05 25.0139 109.793 24.7147 110.397 24.1178C111.003 23.5195 111.308 22.7564 111.308 21.8283C111.308 20.9003 111.003 20.1372 110.397 19.5389C109.793 18.9406 109.05 18.6428 108.173 18.6428C107.296 18.6428 106.555 18.9419 105.949 19.5389C105.344 20.1372 105.04 20.9003 105.04 21.8283C105.04 22.7564 105.344 23.5195 105.949 24.1178Z" fill="white"/>
<path d="M113.858 25.8169V17.8398H115.138L119.117 24.0447H119.162L119.117 22.5077V17.8398H120.17V25.8169H119.071L114.908 19.3102H114.863L114.908 20.8472V25.8169H113.858Z" fill="white"/>
<path d="M75.4341 22.1514C75.4341 23.2655 75.0957 24.1523 74.4175 24.8144C73.6478 25.6015 72.6435 25.995 71.4098 25.995C70.2281 25.995 69.2223 25.5962 68.3967 24.7984C67.5697 23.9994 67.1562 23.0102 67.1562 21.8296C67.1562 20.6477 67.5697 19.6585 68.3967 18.8608C69.2223 18.0617 70.2281 17.6629 71.4098 17.6629C71.9966 17.6629 72.5575 17.7746 73.0897 17.9966C73.6233 18.2199 74.0504 18.5164 74.3697 18.8874L73.6506 19.5894C73.1088 18.9578 72.3623 18.6427 71.4085 18.6427C70.546 18.6427 69.8009 18.9379 69.1718 19.5282C68.5427 20.1185 68.2289 20.8856 68.2289 21.8283C68.2289 22.7709 68.5427 23.5381 69.1718 24.1284C69.8009 24.7187 70.546 25.0138 71.4085 25.0138C72.3228 25.0138 73.0856 24.7173 73.6956 24.123C74.0913 23.7362 74.3206 23.1977 74.382 22.5077H71.4085V21.5491H75.3755C75.4164 21.7578 75.4341 21.9586 75.4341 22.1514Z" stroke="white" stroke-width="0.0560213" stroke-miterlimit="10"/>
<path d="M81.7253 18.8196H77.9971V21.3484H81.3595V22.307H77.9971V24.8357H81.7253V25.8169H76.9449V17.8398H81.7253V18.8196Z" stroke="white" stroke-width="0.0560213" stroke-miterlimit="10"/>
<path d="M86.1615 25.8169H85.1094V18.8196H82.8223V17.8398H88.4487V18.8196H86.1615V25.8169Z" stroke="white" stroke-width="0.0560213" stroke-miterlimit="10"/>
<path d="M92.5193 25.8169V17.8398H93.5715V25.8169H92.5193Z" stroke="white" stroke-width="0.0560213" stroke-miterlimit="10"/>
<path d="M98.2374 25.8169H97.1853V18.8196H94.8981V17.8398H100.525V18.8196H98.2374V25.8169Z" stroke="white" stroke-width="0.0560213" stroke-miterlimit="10"/>
<path d="M111.175 24.7865C110.37 25.5922 109.37 25.9951 108.173 25.9951C106.976 25.9951 105.976 25.5922 105.172 24.7865C104.367 23.9808 103.966 22.9943 103.966 21.8283C103.966 20.6624 104.367 19.6758 105.172 18.8701C105.976 18.0645 106.976 17.6603 108.173 17.6603C109.363 17.6603 110.362 18.0658 111.17 18.8755C111.978 19.6851 112.382 20.669 112.382 21.8283C112.382 22.9943 111.979 23.9808 111.175 24.7865ZM105.949 24.1178C106.555 24.7161 107.296 25.0139 108.173 25.0139C109.05 25.0139 109.793 24.7147 110.397 24.1178C111.003 23.5195 111.308 22.7564 111.308 21.8283C111.308 20.9003 111.003 20.1372 110.397 19.5389C109.793 18.9406 109.05 18.6428 108.173 18.6428C107.296 18.6428 106.555 18.9419 105.949 19.5389C105.344 20.1372 105.04 20.9003 105.04 21.8283C105.04 22.7564 105.344 23.5195 105.949 24.1178Z" stroke="white" stroke-width="0.0560213" stroke-miterlimit="10"/>
<path d="M113.858 25.8169V17.8398H115.138L119.117 24.0447H119.162L119.117 22.5077V17.8398H120.17V25.8169H119.071L114.908 19.3102H114.863L114.908 20.8472V25.8169H113.858Z" stroke="white" stroke-width="0.0560213" stroke-miterlimit="10"/>
<defs>
<filter id="filter0_ii_255_43" x="24.7695" y="17.6603" width="33.3899" height="37.0374" filterUnits="userSpaceOnUse" color-interpolation-filters="sRGB">
<feFlood flood-opacity="0" result="BackgroundImageFix"/>
<feBlend mode="normal" in="SourceGraphic" in2="BackgroundImageFix" result="shape"/>
<feColorMatrix in="SourceAlpha" type="matrix" values="0 0 0 0 0 0 0 0 0 0 0 0 0 0 0 0 0 0 127 0" result="hardAlpha"/>
<feOffset dy="-0.217772"/>
<feComposite in2="hardAlpha" operator="arithmetic" k2="-1" k3="1"/>
<feColorMatrix type="matrix" values="0 0 0 0 0 0 0 0 0 0 0 0 0 0 0 0 0 0 0.12 0"/>
<feBlend mode="normal" in2="shape" result="effect1_innerShadow_255_43"/>
<feColorMatrix in="SourceAlpha" type="matrix" values="0 0 0 0 0 0 0 0 0 0 0 0 0 0 0 0 0 0 127 0" result="hardAlpha"/>
<feOffset dy="0.217772"/>
<feComposite in2="hardAlpha" operator="arithmetic" k2="-1" k3="1"/>
<feColorMatrix type="matrix" values="0 0 0 0 1 0 0 0 0 1 0 0 0 0 1 0 0 0 0.25 0"/>
<feBlend mode="normal" in2="effect1_innerShadow_255_43" result="effect2_innerShadow_255_43"/>
</filter>
<filter id="filter1_i_255_43" x="25.4375" y="36.1782" width="24.1308" height="18.5194" filterUnits="userSpaceOnUse" color-interpolation-filters="sRGB">
<feFlood flood-opacity="0" result="BackgroundImageFix"/>
<feBlend mode="normal" in="SourceGraphic" in2="BackgroundImageFix" result="shape"/>
<feColorMatrix in="SourceAlpha" type="matrix" values="0 0 0 0 0 0 0 0 0 0 0 0 0 0 0 0 0 0 127 0" result="hardAlpha"/>
<feOffset dy="-0.217772"/>
<feComposite in2="hardAlpha" operator="arithmetic" k2="-1" k3="1"/>
<feColorMatrix type="matrix" values="0 0 0 0 0 0 0 0 0 0 0 0 0 0 0 0 0 0 0.08 0"/>
<feBlend mode="normal" in2="shape" result="effect1_innerShadow_255_43"/>
</filter>
<linearGradient id="paint0_linear_255_43" x1="41.8746" y1="19.9184" x2="17.7087" y2="44.1879" gradientUnits="userSpaceOnUse">
<stop stop-color="#00A0FF"/>
<stop offset="0.0066" stop-color="#00A1FF"/>
<stop offset="0.2601" stop-color="#00BEFF"/>
<stop offset="0.5122" stop-color="#00D2FF"/>
<stop offset="0.7604" stop-color="#00DFFF"/>
<stop offset="1" stop-color="#00E3FF"/>
</linearGradient>
<linearGradient id="paint1_linear_255_43" x1="59.2741" y1="36.1782" x2="24.2827" y2="36.1782" gradientUnits="userSpaceOnUse">
<stop stop-color="#FFE000"/>
<stop offset="0.4087" stop-color="#FFBD00"/>
<stop offset="0.7754" stop-color="#FFA500"/>
<stop offset="1" stop-color="#FF9C00"/>
</linearGradient>
<linearGradient id="paint2_linear_255_43" x1="46.251" y1="39.4814" x2="13.479" y2="72.3938" gradientUnits="userSpaceOnUse">
<stop stop-color="#FF3A44"/>
<stop offset="1" stop-color="#C31162"/>
</linearGradient>
<linearGradient id="paint3_linear_255_43" x1="20.8985" y1="7.63194" x2="35.5321" y2="22.3282" gradientUnits="userSpaceOnUse">
<stop stop-color="#32A071"/>
<stop offset="0.0685" stop-color="#2DA771"/>
<stop offset="0.4762" stop-color="#15CF74"/>
<stop offset="0.8009" stop-color="#06E775"/>
<stop offset="1" stop-color="#00F076"/>
</linearGradient>
</defs>
</svg>
