<svg width="171" height="26" viewBox="0 0 171 26" fill="none" xmlns="http://www.w3.org/2000/svg">
<path fill-rule="evenodd" clip-rule="evenodd" d="M45.8108 15.2224C38.5072 17.4816 30.0747 19.73 21.9627 20.2914C15.0292 20.7705 8.33213 20.0263 2.85044 16.8597C2.07772 16.4139 1.11006 16.7204 0.692168 17.5455C0.273636 18.3699 0.561573 19.4024 1.3343 19.8489C7.31414 23.3023 14.6056 24.2056 22.1685 23.6822C30.4264 23.1113 39.0111 20.848 46.4612 18.5562C47.3257 20.4246 49.1157 22.1666 52.269 23.4518C57.1124 25.4262 63.7255 25.4018 70.6921 24.2892C80.7961 22.6763 91.6652 18.8301 98.6535 16.0971C98.9401 15.9857 99.3669 15.8083 99.8893 15.5745C100.049 15.9497 100.227 16.3194 100.424 16.6824C102.138 19.8455 105.17 22.4031 108.26 23.3166C127.855 29.1087 150.725 22.1686 169.345 16.5206C170.186 16.2643 170.677 15.3237 170.441 14.4218C170.199 13.5199 169.32 12.9958 168.472 13.2521C150.374 18.7424 128.155 25.6696 109.107 20.0412C106.763 19.348 104.482 17.3824 103.183 14.9818C103.036 14.714 102.909 14.4401 102.788 14.1621C105.355 12.8048 108.375 10.9127 109.999 8.88725C111.668 6.81087 112.082 4.59448 110.63 2.50111C109.381 0.711545 107.489 0.559297 105.521 1.48704C103.399 2.48071 101.214 4.80378 100.507 5.89397C99.1822 7.93025 98.7617 10.1392 99.0038 12.2931C98.3795 12.5744 97.8725 12.7838 97.5597 12.9061C90.7243 15.5785 80.1004 19.3507 70.2207 20.9282C63.8637 21.9437 57.8253 22.0789 53.4055 20.2778C51.5205 19.5091 50.2751 18.6119 49.5992 17.5707C50.9332 17.1452 52.2194 16.7265 53.4482 16.3269C55.8785 15.5364 60.9384 14.2281 64.5536 11.8961C67.4286 10.042 69.3779 7.51976 69.2645 4.35795C69.2065 2.73355 68.3255 1.64946 66.9234 1.04184C64.8282 0.134485 61.2047 0.573541 59.8555 0.879391C55.7632 1.8051 50.3012 5.63708 47.5989 9.955C46.5204 11.678 45.8789 13.4804 45.8108 15.2224ZM49.1724 14.1608C50.3286 13.7897 51.446 13.4254 52.5194 13.076C54.7879 12.3379 59.5299 11.1655 62.9056 8.98781C64.6931 7.8351 66.1526 6.45403 66.0819 4.48776C66.0761 4.33483 65.9341 4.29135 65.8086 4.22882C65.6143 4.13298 65.3919 4.06704 65.155 4.01538C63.5515 3.66603 61.3977 4.00381 60.5161 4.20364C57.0825 4.98049 52.5149 8.21912 50.2477 11.8424C49.7687 12.6077 49.3871 13.3873 49.1724 14.1608ZM102.151 10.7285C103.648 9.90674 105.215 8.91306 106.451 7.83171C107.107 7.25739 107.661 6.66678 108.011 6.05372C108.305 5.54669 108.419 5.02739 108.069 4.5258C107.929 4.32258 107.718 4.31852 107.502 4.35659C107.273 4.39737 107.037 4.48434 106.801 4.59648C105.247 5.32645 103.641 7.03174 103.125 7.83171C102.52 8.75945 102.221 9.74091 102.151 10.7285Z" fill="#FFD900"/>
</svg>
