<svg width="30" height="30" viewBox="0 0 30 30" fill="none" xmlns="http://www.w3.org/2000/svg">
<rect width="30" height="30" rx="4" fill="#29816C"/>
<mask id="mask0_222_326" style="mask-type:alpha" maskUnits="userSpaceOnUse" x="5" y="5" width="20" height="20">
<rect x="5" y="5" width="20" height="20" fill="#D9D9D9"/>
</mask>
<g mask="url(#mask0_222_326)">
<path d="M15.0002 14.9998C15.4585 14.9998 15.8509 14.8366 16.1772 14.5103C16.5036 14.1839 16.6668 13.7915 16.6668 13.3332C16.6668 12.8748 16.5036 12.4825 16.1772 12.1561C15.8509 11.8297 15.4585 11.6665 15.0002 11.6665C14.5418 11.6665 14.1495 11.8297 13.8231 12.1561C13.4967 12.4825 13.3335 12.8748 13.3335 13.3332C13.3335 13.7915 13.4967 14.1839 13.8231 14.5103C14.1495 14.8366 14.5418 14.9998 15.0002 14.9998ZM15.0002 21.1248C16.6946 19.5693 17.9516 18.1561 18.771 16.8853C19.5904 15.6144 20.0002 14.4859 20.0002 13.4998C20.0002 11.9859 19.5175 10.7464 18.5522 9.78109C17.587 8.81581 16.4029 8.33317 15.0002 8.33317C13.5974 8.33317 12.4134 8.81581 11.4481 9.78109C10.4828 10.7464 10.0002 11.9859 10.0002 13.4998C10.0002 14.4859 10.4099 15.6144 11.2293 16.8853C12.0488 18.1561 13.3057 19.5693 15.0002 21.1248ZM15.0002 23.3332C12.7641 21.4304 11.0939 19.663 9.98975 18.0311C8.88558 16.3991 8.3335 14.8887 8.3335 13.4998C8.3335 11.4165 9.00363 9.75678 10.3439 8.52067C11.6842 7.28456 13.2363 6.6665 15.0002 6.6665C16.7641 6.6665 18.3161 7.28456 19.6564 8.52067C20.9967 9.75678 21.6668 11.4165 21.6668 13.4998C21.6668 14.8887 21.1147 16.3991 20.0106 18.0311C18.9064 19.663 17.2363 21.4304 15.0002 23.3332Z" fill="white"/>
</g>
</svg>
