<svg width="30" height="30" viewBox="0 0 30 30" fill="none" xmlns="http://www.w3.org/2000/svg">
<rect width="30" height="30" rx="4" fill="#29816C"/>
<mask id="mask0_222_340" style="mask-type:alpha" maskUnits="userSpaceOnUse" x="5" y="5" width="20" height="20">
<rect x="5" y="5" width="20" height="20" fill="#D9D9D9"/>
</mask>
<g mask="url(#mask0_222_340)">
<path d="M8.33317 21.6668C7.87484 21.6668 7.48248 21.5036 7.15609 21.1772C6.8297 20.8509 6.6665 20.4585 6.6665 20.0002V10.0002C6.6665 9.54183 6.8297 9.14947 7.15609 8.82308C7.48248 8.49669 7.87484 8.3335 8.33317 8.3335H21.6665C22.1248 8.3335 22.5172 8.49669 22.8436 8.82308C23.17 9.14947 23.3332 9.54183 23.3332 10.0002V20.0002C23.3332 20.4585 23.17 20.8509 22.8436 21.1772C22.5172 21.5036 22.1248 21.6668 21.6665 21.6668H8.33317ZM14.9998 15.8335L8.33317 11.6668V20.0002H21.6665V11.6668L14.9998 15.8335ZM14.9998 14.1668L21.6665 10.0002H8.33317L14.9998 14.1668ZM8.33317 11.6668V10.0002V20.0002V11.6668Z" fill="white"/>
</g>
</svg>
