<svg width="23" height="22" viewBox="0 0 23 22" fill="none" xmlns="http://www.w3.org/2000/svg">
<path d="M10.7159 0.927049C11.0153 0.0057385 12.3187 0.00573993 12.618 0.927051L14.5857 6.98278C14.7195 7.3948 15.1035 7.67376 15.5367 7.67376H21.9041C22.8728 7.67376 23.2756 8.91338 22.4919 9.48278L17.3406 13.2254C16.9901 13.4801 16.8434 13.9314 16.9773 14.3435L18.9449 20.3992C19.2443 21.3205 18.1898 22.0866 17.4061 21.5172L12.2548 17.7746C11.9043 17.5199 11.4297 17.5199 11.0792 17.7746L5.92789 21.5172C5.14418 22.0866 4.0897 21.3205 4.38906 20.3992L6.35668 14.3435C6.49055 13.9314 6.3439 13.4801 5.99341 13.2254L0.842098 9.48278C0.0583839 8.91338 0.46116 7.67376 1.42988 7.67376H7.79725C8.23048 7.67376 8.61444 7.3948 8.74831 6.98278L10.7159 0.927049Z" fill="#FFD900"/>
</svg>
