<svg width="30" height="30" viewBox="0 0 30 30" fill="none" xmlns="http://www.w3.org/2000/svg">
<path d="M11.55 13.95C10.95 13.35 10.05 13.35 9.45 13.95C8.85 14.55 8.85 15.45 9.45 16.05L13.95 20.55C14.25 20.85 14.55 21 15 21C15.45 21 15.75 20.85 16.05 20.55L26.55 8.55004C27 7.80004 27 6.90004 26.25 6.45004C25.65 6.00004 24.75 6.00004 24.3 6.60004L15 17.25L11.55 13.95Z" fill="#29816C"/>
<path d="M28.5 13.5C27.6 13.5 27 14.1 27 15C27 21.6 21.6 27 15 27C8.4 27 3 21.6 3 15C3 11.85 4.2 8.85 6.45 6.6C8.7 4.2 11.7 3 15 3C15.9 3 16.95 3.15 17.85 3.3C18.6 3.6 19.5 3.15 19.8 2.25C20.1 1.35 19.5 0.75 18.75 0.45H18.6C17.4 0.15 16.2 0 15 0C6.75 0 0 6.75 0 15.15C0 19.05 1.65 22.95 4.35 25.65C7.2 28.5 10.95 30 14.85 30C23.1 30 29.85 23.25 29.85 15C30 14.1 29.25 13.5 28.5 13.5Z" fill="#29816C"/>
</svg>
